{"glyphs":{"0":{"ha":857,"x_min":66,"x_max":791,"o":"m 429 -16 q 622 48 541 -16 q 748 228 704 111 q 791 505 791 344 l 791 505 q 747 782 791 665 q 622 963 703 899 q 429 1026 541 1026 l 429 1026 q 236 963 317 1026 q 110 782 155 899 q 66 505 66 665 l 66 505 q 110 228 66 344 q 235 48 154 111 q 429 -16 317 -16 l 429 -16 m 429 94 q 297 143 352 94 q 213 284 242 193 q 183 505 183 376 l 183 505 q 213 726 183 633 q 297 867 242 818 q 429 917 352 917 l 429 917 q 560 867 505 917 q 645 726 615 818 q 674 505 674 633 l 674 505 q 645 284 674 376 q 560 143 615 193 q 429 94 505 94 l 429 94 "},"1":{"ha":517,"x_min":40,"x_max":412,"o":"m 285 1010 l 40 844 l 40 716 l 290 886 l 292 886 l 292 0 l 412 0 l 412 1010 l 285 1010 "},"2":{"ha":794,"x_min":68,"x_max":728,"o":"m 728 0 l 728 110 l 236 110 l 236 113 l 498 358 l 498 358 q 625 491 576 431 q 696 607 673 551 q 719 726 719 663 l 719 726 q 678 881 719 813 q 565 987 637 949 q 399 1026 493 1026 l 399 1026 q 228 984 302 1026 q 113 866 154 941 q 72 692 72 791 l 188 692 l 188 692 q 213 811 188 761 q 285 889 238 862 q 399 917 332 917 l 399 917 q 507 893 461 917 q 577 826 552 869 q 602 722 602 782 l 602 722 q 583 629 602 671 q 525 541 564 586 q 422 437 485 496 l 68 100 l 68 0 l 728 0 "},"3":{"ha":838,"x_min":69,"x_max":772,"o":"m 422 -16 q 602 22 523 -16 q 726 128 680 60 q 772 283 772 195 l 772 283 q 746 393 772 343 q 672 475 720 442 q 560 519 625 509 l 560 523 l 560 523 q 691 607 644 548 q 739 745 739 667 l 739 745 q 698 889 739 826 q 584 989 656 952 q 418 1026 511 1026 l 418 1026 q 250 988 323 1026 q 134 882 176 950 q 91 725 92 814 l 210 725 l 210 725 q 237 828 211 785 q 309 895 263 871 q 416 918 355 918 l 416 918 q 523 896 478 918 q 593 834 568 874 q 618 739 618 794 l 618 739 q 591 651 618 688 q 516 593 564 614 q 404 572 468 572 l 323 572 l 323 463 l 404 463 l 404 463 q 534 440 479 463 q 620 377 589 418 q 650 283 650 337 l 650 283 q 621 182 650 225 q 540 116 592 140 q 420 93 488 93 l 420 93 q 301 118 351 93 q 223 190 250 143 q 195 304 195 237 l 69 304 l 69 304 q 116 137 71 210 q 240 25 161 65 q 422 -16 319 -16 l 422 -16 "},"4":{"ha":867,"x_min":45,"x_max":821,"o":"m 821 235 l 821 345 l 184 345 l 184 348 l 550 868 l 595 868 l 595 1010 l 520 1010 l 45 337 l 45 235 l 821 235 m 671 0 l 671 1010 l 553 1010 l 553 313 l 553 266 l 553 0 l 671 0 "},"5":{"ha":806,"x_min":62,"x_max":740,"o":"m 403 -14 q 579 31 503 -14 q 697 152 655 75 q 740 330 740 229 l 740 330 q 717 468 740 405 q 652 576 694 530 q 552 647 610 622 q 425 672 494 672 l 425 672 q 301 649 357 672 q 200 581 245 627 l 198 581 l 224 901 l 686 901 l 686 1010 l 115 1010 l 75 451 l 193 448 l 193 448 q 275 532 218 503 q 408 562 332 562 l 408 562 q 518 532 471 562 q 593 449 566 502 q 621 329 621 397 l 621 329 q 593 209 621 261 q 516 126 565 156 q 403 96 467 96 l 403 96 q 296 121 343 96 q 219 188 248 145 q 184 285 189 231 l 62 285 l 62 285 q 111 132 65 199 q 232 25 156 64 q 403 -14 307 -14 l 403 -14 "},"6":{"ha":822,"x_min":66,"x_max":756,"o":"m 418 -16 q 595 28 519 -16 q 713 149 671 72 q 756 323 756 225 l 756 323 q 714 496 756 420 q 601 615 673 572 q 439 659 530 659 l 439 659 q 337 643 385 659 q 249 597 288 627 q 186 528 210 568 l 184 528 l 184 528 q 212 731 184 644 q 298 867 241 818 q 440 916 355 916 l 440 916 q 565 873 517 916 q 627 758 612 829 l 748 758 l 748 758 q 696 899 738 838 q 588 992 655 959 q 434 1026 522 1026 l 434 1026 q 272 987 341 1026 q 157 873 203 947 q 89 696 111 800 q 66 463 66 592 l 66 463 q 91 253 66 343 q 163 104 116 163 q 274 14 210 44 q 418 -16 338 -16 l 418 -16 m 418 94 q 308 125 357 94 q 230 208 258 156 q 201 322 201 260 l 201 322 q 218 410 201 369 q 265 483 235 451 q 336 532 296 514 q 422 549 376 549 l 422 549 q 532 519 483 549 q 609 438 581 489 q 637 323 637 387 l 637 323 q 608 208 637 260 q 529 124 578 155 q 418 94 479 94 l 418 94 "},"7":{"ha":732,"x_min":41,"x_max":690,"o":"m 241 0 l 690 894 l 690 1010 l 41 1010 l 41 901 l 565 901 l 565 899 l 111 0 l 241 0 "},"8":{"ha":820,"x_min":66,"x_max":754,"o":"m 410 -16 q 588 21 511 -16 q 710 122 665 58 q 754 269 754 186 l 754 269 q 726 391 754 335 q 649 483 697 446 q 541 528 601 519 l 541 528 l 541 528 q 667 606 617 543 q 716 755 716 669 l 716 755 q 676 895 716 833 q 567 991 636 956 q 410 1026 498 1026 l 410 1026 q 252 991 321 1026 q 142 895 182 956 q 102 755 102 833 l 102 755 q 152 606 102 668 q 279 528 201 543 l 279 528 l 279 528 q 170 483 218 519 q 94 391 122 447 q 66 269 66 336 l 66 269 q 110 122 66 186 q 232 21 154 58 q 410 -16 309 -16 l 410 -16 m 410 94 q 292 116 342 94 q 215 179 242 138 q 187 274 187 220 l 187 274 q 216 375 187 331 q 295 444 244 419 q 410 469 345 469 l 410 469 q 524 444 474 469 q 603 375 574 419 q 631 274 631 331 l 631 274 q 604 179 631 220 q 527 116 576 138 q 410 94 477 94 l 410 94 m 410 574 q 312 596 355 574 q 245 657 269 618 q 222 747 222 696 l 222 747 q 245 837 222 798 q 311 897 269 875 q 410 918 353 918 l 410 918 q 508 897 466 918 q 573 837 550 875 q 596 747 596 798 l 596 747 q 572 656 596 696 q 507 595 549 617 q 410 574 465 574 l 410 574 "},"9":{"ha":822,"x_min":66,"x_max":756,"o":"m 387 -16 q 549 24 479 -16 q 664 137 618 63 q 733 315 710 211 q 756 547 756 418 l 756 547 q 731 757 756 667 q 660 906 706 847 q 549 996 613 966 q 405 1026 484 1026 l 405 1026 q 228 984 304 1027 q 109 864 152 941 q 66 689 66 787 l 66 689 q 107 518 66 593 q 221 400 149 443 q 383 357 294 357 l 383 357 q 486 372 437 357 q 572 415 534 387 q 634 482 610 443 l 637 482 l 637 482 q 608 280 637 368 q 522 143 579 193 q 380 94 465 94 l 380 94 q 254 138 302 94 q 191 254 205 182 l 70 254 l 70 254 q 122 112 80 173 q 231 18 163 52 q 387 -16 299 -16 l 387 -16 m 400 466 q 291 495 340 466 q 214 575 242 525 q 186 689 186 626 l 186 689 q 215 805 186 753 q 294 887 244 857 q 404 917 343 917 l 404 917 q 514 886 465 917 q 593 805 564 856 q 622 691 622 753 l 622 691 q 605 604 622 644 q 557 532 588 563 q 487 484 527 501 q 400 466 446 466 l 400 466 "},"\u0000":{"ha":181,"x_min":null,"x_max":null,"o":""},"A":{"ha":919,"x_min":18,"x_max":901,"o":"m 148 0 l 364 607 l 364 607 q 411 744 385 665 q 477 951 437 823 l 444 951 l 444 951 q 510 745 484 824 q 556 607 536 666 l 769 0 l 901 0 l 531 1010 l 390 1010 l 18 0 l 148 0 m 709 283 l 709 393 l 209 393 l 209 283 l 709 283 "},"Ä":{"ha":919,"x_min":18,"x_max":901,"o":"m 148 0 l 364 607 l 364 607 q 411 744 385 665 q 477 951 437 823 l 444 951 l 444 951 q 510 745 484 824 q 556 607 536 666 l 769 0 l 901 0 l 531 1010 l 390 1010 l 18 0 l 148 0 m 709 283 l 709 393 l 209 393 l 209 283 l 709 283 m 604 1147 q 659 1170 636 1147 q 682 1225 682 1193 l 682 1225 q 659 1282 682 1259 q 604 1305 636 1305 l 604 1305 q 547 1282 570 1305 q 524 1225 524 1259 l 524 1225 q 547 1170 524 1193 q 604 1147 570 1147 l 604 1147 m 319 1147 q 375 1170 352 1147 q 398 1225 398 1193 l 398 1225 q 375 1282 398 1259 q 319 1305 352 1305 l 319 1305 q 263 1282 287 1305 q 240 1225 240 1259 l 240 1225 q 263 1170 240 1193 q 319 1147 287 1147 l 319 1147 "},"Ã":{"ha":919,"x_min":18,"x_max":901,"o":"m 148 0 l 364 607 l 364 607 q 411 744 385 665 q 477 951 437 823 l 444 951 l 444 951 q 510 745 484 824 q 556 607 536 666 l 769 0 l 901 0 l 531 1010 l 390 1010 l 18 0 l 148 0 m 709 283 l 709 393 l 209 393 l 209 283 l 709 283 m 549 1147 q 626 1185 599 1147 q 656 1285 654 1223 l 574 1285 l 574 1285 q 563 1244 571 1257 q 537 1231 554 1231 l 537 1231 q 502 1239 520 1231 q 465 1259 484 1248 q 422 1279 445 1271 q 374 1288 400 1288 l 374 1288 q 295 1249 321 1288 q 267 1149 269 1209 l 351 1149 l 351 1149 q 360 1185 352 1168 q 385 1202 368 1202 l 385 1202 q 416 1194 398 1202 q 456 1174 434 1185 q 501 1155 477 1163 q 549 1147 525 1147 l 549 1147 "},"À":{"ha":919,"x_min":18,"x_max":901,"o":"m 148 0 l 364 607 l 364 607 q 411 744 385 665 q 477 951 437 823 l 444 951 l 444 951 q 510 745 484 824 q 556 607 536 666 l 769 0 l 901 0 l 531 1010 l 390 1010 l 18 0 l 148 0 m 709 283 l 709 393 l 209 393 l 209 283 l 709 283 m 511 1104 l 416 1305 l 284 1305 l 414 1104 l 511 1104 "},"Á":{"ha":919,"x_min":18,"x_max":901,"o":"m 148 0 l 364 607 l 364 607 q 411 744 385 665 q 477 951 437 823 l 444 951 l 444 951 q 510 745 484 824 q 556 607 536 666 l 769 0 l 901 0 l 531 1010 l 390 1010 l 18 0 l 148 0 m 709 283 l 709 393 l 209 393 l 209 283 l 709 283 m 507 1104 l 637 1305 l 505 1305 l 410 1104 l 507 1104 "},"Â":{"ha":919,"x_min":18,"x_max":901,"o":"m 148 0 l 364 607 l 364 607 q 411 744 385 665 q 477 951 437 823 l 444 951 l 444 951 q 510 745 484 824 q 556 607 536 666 l 769 0 l 901 0 l 531 1010 l 390 1010 l 18 0 l 148 0 m 709 283 l 709 393 l 209 393 l 209 283 l 709 283 m 460 1238 l 557 1120 l 675 1120 l 675 1121 l 517 1305 l 404 1305 l 247 1121 l 247 1120 l 363 1120 l 460 1238 "},"Å":{"ha":919,"x_min":18,"x_max":901,"o":"m 148 0 l 364 607 l 364 607 q 411 744 385 665 q 477 951 437 823 l 444 951 l 444 951 q 510 745 484 824 q 556 607 536 666 l 769 0 l 901 0 l 531 1010 l 390 1010 l 18 0 l 148 0 m 709 283 l 709 393 l 209 393 l 209 283 l 709 283 m 461 1065 q 545 1087 507 1065 q 606 1145 583 1109 q 628 1225 628 1181 l 628 1225 q 606 1306 628 1270 q 545 1364 583 1343 q 461 1386 507 1386 l 461 1386 q 376 1364 414 1386 q 316 1306 338 1343 q 294 1226 294 1270 l 294 1226 q 316 1145 294 1182 q 377 1087 339 1109 q 461 1065 414 1065 l 461 1065 m 461 1148 q 406 1171 429 1148 q 383 1226 383 1194 l 383 1226 q 406 1281 383 1259 q 461 1303 429 1303 l 461 1303 q 516 1281 494 1303 q 539 1226 539 1259 l 539 1226 q 516 1171 539 1194 q 461 1148 494 1148 l 461 1148 "},"Ǻ":{"ha":919,"x_min":18,"x_max":901,"o":"m 148 0 l 364 607 l 364 607 q 411 744 385 665 q 477 951 437 823 l 444 951 l 444 951 q 510 745 484 824 q 556 607 536 666 l 769 0 l 901 0 l 531 1010 l 390 1010 l 18 0 l 148 0 m 709 283 l 709 393 l 209 393 l 209 283 l 709 283 m 509 1424 l 637 1546 l 513 1546 l 414 1424 l 509 1424 m 461 1065 q 545 1087 507 1065 q 606 1145 583 1109 q 628 1225 628 1181 l 628 1225 q 606 1306 628 1270 q 545 1364 583 1343 q 461 1386 507 1386 l 461 1386 q 376 1364 414 1386 q 316 1306 338 1343 q 294 1226 294 1270 l 294 1226 q 316 1145 294 1182 q 377 1087 339 1109 q 461 1065 414 1065 l 461 1065 m 461 1148 q 406 1171 429 1148 q 383 1226 383 1194 l 383 1226 q 406 1281 383 1259 q 461 1303 429 1303 l 461 1303 q 516 1281 494 1303 q 539 1226 539 1259 l 539 1226 q 516 1171 539 1194 q 461 1148 494 1148 l 461 1148 "},"":{"ha":919,"x_min":18,"x_max":911,"o":"m 148 0 l 364 607 l 364 607 q 411 744 385 665 q 477 951 437 823 l 444 951 l 444 951 q 510 745 484 824 q 556 607 536 666 l 769 0 l 901 0 l 531 1010 l 390 1010 l 18 0 l 148 0 m 709 283 l 709 393 l 209 393 l 209 283 l 709 283 m 461 1065 q 545 1087 507 1065 q 606 1145 583 1109 q 628 1225 628 1181 l 628 1225 q 606 1306 628 1270 q 545 1364 583 1343 q 461 1386 507 1386 l 461 1386 q 376 1364 414 1386 q 316 1306 338 1343 q 294 1226 294 1270 l 294 1226 q 316 1145 294 1182 q 377 1087 339 1109 q 461 1065 414 1065 l 461 1065 m 461 1148 q 406 1171 429 1148 q 383 1226 383 1194 l 383 1226 q 406 1281 383 1259 q 461 1303 429 1303 l 461 1303 q 516 1281 494 1303 q 539 1226 539 1259 l 539 1226 q 516 1171 539 1194 q 461 1148 494 1148 l 461 1148 m 821 -286 q 868 -284 846 -286 q 911 -279 891 -281 l 902 -182 l 902 -182 q 879 -185 892 -184 q 855 -186 867 -186 l 855 -186 q 811 -174 825 -186 q 797 -138 797 -161 l 797 -138 q 821 -78 797 -108 q 901 0 846 -49 l 788 20 l 788 20 q 710 -62 739 -22 q 680 -158 680 -103 l 680 -158 q 719 -254 680 -221 q 821 -286 758 -286 l 821 -286 "},"Ā":{"ha":919,"x_min":18,"x_max":901,"o":"m 148 0 l 364 607 l 364 607 q 411 744 385 665 q 477 951 437 823 l 444 951 l 444 951 q 510 745 484 824 q 556 607 536 666 l 769 0 l 901 0 l 531 1010 l 390 1010 l 18 0 l 148 0 m 709 283 l 709 393 l 209 393 l 209 283 l 709 283 m 273 1257 l 273 1161 l 648 1161 l 648 1257 l 273 1257 "},"Ă":{"ha":919,"x_min":18,"x_max":901,"o":"m 148 0 l 364 607 l 364 607 q 411 744 385 665 q 477 951 437 823 l 444 951 l 444 951 q 510 745 484 824 q 556 607 536 666 l 769 0 l 901 0 l 531 1010 l 390 1010 l 18 0 l 148 0 m 709 283 l 709 393 l 209 393 l 209 283 l 709 283 m 460 1115 q 559 1141 515 1115 q 629 1210 604 1166 q 655 1305 655 1253 l 568 1305 l 568 1305 q 537 1229 568 1259 q 461 1200 507 1200 l 461 1200 q 384 1229 414 1200 q 354 1305 354 1259 l 267 1305 l 267 1305 q 293 1209 267 1253 q 362 1140 319 1166 q 460 1115 406 1115 l 460 1115 "},"Ą":{"ha":919,"x_min":18,"x_max":911,"o":"m 148 0 l 364 607 l 364 607 q 411 744 385 665 q 477 951 437 823 l 444 951 l 444 951 q 510 745 484 824 q 556 607 536 666 l 769 0 l 901 0 l 531 1010 l 390 1010 l 18 0 l 148 0 m 709 283 l 709 393 l 209 393 l 209 283 l 709 283 m 821 -286 q 868 -284 846 -286 q 911 -279 891 -281 l 902 -182 l 902 -182 q 879 -185 892 -184 q 855 -186 867 -186 l 855 -186 q 811 -174 825 -186 q 797 -138 797 -161 l 797 -138 q 821 -78 797 -108 q 901 0 846 -49 l 788 20 l 788 20 q 710 -62 739 -22 q 680 -158 680 -103 l 680 -158 q 719 -254 680 -221 q 821 -286 758 -286 l 821 -286 "},"Ǎ":{"ha":919,"x_min":18,"x_max":901,"o":"m 148 0 l 364 607 l 364 607 q 411 744 385 665 q 477 951 437 823 l 444 951 l 444 951 q 510 745 484 824 q 556 607 536 666 l 769 0 l 901 0 l 531 1010 l 390 1010 l 18 0 l 148 0 m 709 283 l 709 393 l 209 393 l 209 283 l 709 283 m 247 1305 l 247 1303 l 404 1120 l 517 1120 l 675 1303 l 675 1305 l 557 1305 l 460 1186 l 363 1305 l 247 1305 "},"Ǟ":{"ha":919,"x_min":18,"x_max":901,"o":"m 148 0 l 364 607 l 364 607 q 411 744 385 665 q 477 951 437 823 l 444 951 l 444 951 q 510 745 484 824 q 556 607 536 666 l 769 0 l 901 0 l 531 1010 l 390 1010 l 18 0 l 148 0 m 709 283 l 709 393 l 209 393 l 209 283 l 709 283 m 600 1116 q 655 1139 632 1116 q 678 1195 678 1162 l 678 1195 q 655 1251 678 1228 q 600 1274 632 1274 l 600 1274 q 543 1251 566 1274 q 520 1195 520 1227 l 520 1195 q 543 1139 520 1162 q 600 1116 566 1116 l 600 1116 m 315 1116 q 371 1139 348 1116 q 394 1195 394 1162 l 394 1195 q 371 1251 394 1228 q 315 1274 348 1274 l 315 1274 q 259 1251 283 1274 q 236 1195 236 1227 l 236 1195 q 259 1139 236 1162 q 315 1116 283 1116 l 315 1116 m 273 1443 l 273 1357 l 648 1357 l 648 1443 l 273 1443 "},"Ǡ":{"ha":919,"x_min":18,"x_max":901,"o":"m 148 0 l 364 607 l 364 607 q 411 744 385 665 q 477 951 437 823 l 444 951 l 444 951 q 510 745 484 824 q 556 607 536 666 l 769 0 l 901 0 l 531 1010 l 390 1010 l 18 0 l 148 0 m 709 283 l 709 393 l 209 393 l 209 283 l 709 283 m 461 1116 q 518 1139 494 1116 q 541 1195 541 1162 l 541 1195 q 518 1251 541 1228 q 460 1274 494 1274 l 460 1274 q 405 1251 428 1274 q 381 1195 381 1228 l 381 1195 q 405 1139 381 1162 q 461 1116 428 1116 l 461 1116 m 273 1443 l 273 1357 l 648 1357 l 648 1443 l 273 1443 "},"Ȁ":{"ha":919,"x_min":18,"x_max":901,"o":"m 148 0 l 364 607 l 364 607 q 411 744 385 665 q 477 951 437 823 l 444 951 l 444 951 q 510 745 484 824 q 556 607 536 666 l 769 0 l 901 0 l 531 1010 l 390 1010 l 18 0 l 148 0 m 709 283 l 709 393 l 209 393 l 209 283 l 709 283 m 611 1104 l 530 1305 l 398 1305 l 514 1104 l 611 1104 m 411 1104 l 297 1305 l 165 1305 l 312 1104 l 411 1104 "},"Ȃ":{"ha":919,"x_min":18,"x_max":901,"o":"m 148 0 l 364 607 l 364 607 q 411 744 385 665 q 477 951 437 823 l 444 951 l 444 951 q 510 745 484 824 q 556 607 536 666 l 769 0 l 901 0 l 531 1010 l 390 1010 l 18 0 l 148 0 m 709 283 l 709 393 l 209 393 l 209 283 l 709 283 m 460 1308 q 359 1283 404 1308 q 290 1215 315 1258 q 264 1120 264 1173 l 352 1120 l 352 1120 q 383 1194 352 1165 q 460 1223 414 1223 l 460 1223 q 538 1194 507 1223 q 570 1120 570 1165 l 657 1120 l 657 1120 q 632 1215 657 1173 q 563 1283 607 1258 q 460 1308 519 1308 l 460 1308 "},"Ȧ":{"ha":919,"x_min":18,"x_max":901,"o":"m 148 0 l 364 607 l 364 607 q 411 744 385 665 q 477 951 437 823 l 444 951 l 444 951 q 510 745 484 824 q 556 607 536 666 l 769 0 l 901 0 l 531 1010 l 390 1010 l 18 0 l 148 0 m 709 283 l 709 393 l 209 393 l 209 283 l 709 283 m 461 1147 q 518 1170 494 1147 q 541 1225 541 1193 l 541 1225 q 518 1282 541 1259 q 460 1305 494 1305 l 460 1305 q 405 1282 428 1305 q 381 1225 381 1259 l 381 1225 q 405 1170 381 1193 q 461 1147 428 1147 l 461 1147 "},"Ḁ":{"ha":919,"x_min":18,"x_max":901,"o":"m 148 0 l 364 607 l 364 607 q 411 744 385 665 q 477 951 437 823 l 444 951 l 444 951 q 510 745 484 824 q 556 607 536 666 l 769 0 l 901 0 l 531 1010 l 390 1010 l 18 0 l 148 0 m 709 283 l 709 393 l 209 393 l 209 283 l 709 283 m 461 -372 q 544 -351 507 -372 q 604 -294 582 -330 q 626 -215 626 -258 l 626 -215 q 604 -137 626 -172 q 544 -80 582 -101 q 461 -59 507 -59 l 461 -59 q 377 -80 415 -59 q 318 -137 340 -101 q 296 -215 296 -172 l 296 -215 q 318 -294 296 -258 q 377 -351 340 -330 q 461 -372 415 -372 l 461 -372 m 460 -292 q 407 -269 429 -292 q 384 -215 384 -247 l 384 -215 q 407 -161 384 -184 q 460 -139 429 -139 l 460 -139 q 515 -161 493 -139 q 538 -215 538 -184 l 538 -215 q 515 -269 538 -247 q 460 -292 493 -292 l 460 -292 "},"Ạ":{"ha":919,"x_min":18,"x_max":901,"o":"m 148 0 l 364 607 l 364 607 q 411 744 385 665 q 477 951 437 823 l 444 951 l 444 951 q 510 745 484 824 q 556 607 536 666 l 769 0 l 901 0 l 531 1010 l 390 1010 l 18 0 l 148 0 m 709 283 l 709 393 l 209 393 l 209 283 l 709 283 m 461 -294 q 518 -271 494 -294 q 541 -216 541 -248 l 541 -216 q 518 -159 541 -182 q 460 -136 494 -136 l 460 -136 q 405 -159 428 -136 q 381 -216 381 -182 l 381 -216 q 405 -271 381 -248 q 461 -294 428 -294 l 461 -294 "},"Ả":{"ha":919,"x_min":18,"x_max":901,"o":"m 148 0 l 364 607 l 364 607 q 411 744 385 665 q 477 951 437 823 l 444 951 l 444 951 q 510 745 484 824 q 556 607 536 666 l 769 0 l 901 0 l 531 1010 l 390 1010 l 18 0 l 148 0 m 709 283 l 709 393 l 209 393 l 209 283 l 709 283 m 541 1166 l 541 1166 q 562 1220 559 1195 q 552 1265 564 1246 q 513 1295 540 1284 q 446 1305 486 1305 l 353 1305 l 353 1227 l 446 1227 l 446 1227 q 465 1220 461 1227 q 461 1200 469 1213 l 412 1104 l 503 1104 l 541 1166 "},"Ấ":{"ha":919,"x_min":18,"x_max":901,"o":"m 148 0 l 364 607 l 364 607 q 411 744 385 665 q 477 951 437 823 l 444 951 l 444 951 q 510 745 484 824 q 556 607 536 666 l 769 0 l 901 0 l 531 1010 l 390 1010 l 18 0 l 148 0 m 709 283 l 709 393 l 209 393 l 209 283 l 709 283 m 462 1221 l 558 1101 l 676 1101 l 676 1103 l 518 1288 l 405 1288 l 248 1103 l 248 1101 l 364 1101 l 462 1221 m 647 1314 l 777 1500 l 645 1500 l 550 1314 l 647 1314 "},"Ầ":{"ha":919,"x_min":18,"x_max":901,"o":"m 148 0 l 364 607 l 364 607 q 411 744 385 665 q 477 951 437 823 l 444 951 l 444 951 q 510 745 484 824 q 556 607 536 666 l 769 0 l 901 0 l 531 1010 l 390 1010 l 18 0 l 148 0 m 709 283 l 709 393 l 209 393 l 209 283 l 709 283 m 462 1221 l 558 1101 l 676 1101 l 676 1103 l 518 1288 l 405 1288 l 248 1103 l 248 1101 l 364 1101 l 462 1221 m 686 1314 l 591 1500 l 459 1500 l 589 1314 l 686 1314 "},"Ẩ":{"ha":919,"x_min":18,"x_max":901,"o":"m 148 0 l 364 607 l 364 607 q 411 744 385 665 q 477 951 437 823 l 444 951 l 444 951 q 510 745 484 824 q 556 607 536 666 l 769 0 l 901 0 l 531 1010 l 390 1010 l 18 0 l 148 0 m 709 283 l 709 393 l 209 393 l 209 283 l 709 283 m 462 1221 l 558 1101 l 676 1101 l 676 1103 l 518 1288 l 405 1288 l 248 1103 l 248 1101 l 364 1101 l 462 1221 m 671 1360 l 671 1360 q 694 1431 697 1399 q 661 1481 690 1463 q 576 1500 631 1500 l 483 1500 l 483 1422 l 576 1422 l 576 1422 q 595 1415 591 1422 q 592 1394 600 1408 l 549 1314 l 640 1314 l 671 1360 "},"Ẫ":{"ha":919,"x_min":18,"x_max":901,"o":"m 148 0 l 364 607 l 364 607 q 411 744 385 665 q 477 951 437 823 l 444 951 l 444 951 q 510 745 484 824 q 556 607 536 666 l 769 0 l 901 0 l 531 1010 l 390 1010 l 18 0 l 148 0 m 709 283 l 709 393 l 209 393 l 209 283 l 709 283 m 462 1221 l 558 1101 l 676 1101 l 676 1103 l 518 1288 l 405 1288 l 248 1103 l 248 1101 l 364 1101 l 462 1221 m 550 1339 q 627 1377 599 1339 q 656 1478 654 1415 l 575 1478 l 575 1478 q 563 1436 572 1449 q 538 1423 555 1423 l 538 1423 q 503 1432 521 1423 q 465 1452 485 1440 q 423 1472 446 1463 q 374 1480 401 1480 l 374 1480 q 295 1441 321 1480 q 267 1341 269 1402 l 351 1341 l 351 1341 q 360 1378 352 1361 q 386 1395 369 1395 l 386 1395 q 417 1387 399 1395 q 456 1367 435 1378 q 502 1348 477 1356 q 550 1339 526 1339 l 550 1339 "},"Ậ":{"ha":919,"x_min":18,"x_max":901,"o":"m 148 0 l 364 607 l 364 607 q 411 744 385 665 q 477 951 437 823 l 444 951 l 444 951 q 510 745 484 824 q 556 607 536 666 l 769 0 l 901 0 l 531 1010 l 390 1010 l 18 0 l 148 0 m 709 283 l 709 393 l 209 393 l 209 283 l 709 283 m 460 1238 l 557 1120 l 675 1120 l 675 1121 l 517 1305 l 404 1305 l 247 1121 l 247 1120 l 363 1120 l 460 1238 m 461 -294 q 518 -271 494 -294 q 541 -216 541 -248 l 541 -216 q 518 -159 541 -182 q 460 -136 494 -136 l 460 -136 q 405 -159 428 -136 q 381 -216 381 -182 l 381 -216 q 405 -271 381 -248 q 461 -294 428 -294 l 461 -294 "},"Ắ":{"ha":919,"x_min":18,"x_max":901,"o":"m 148 0 l 364 607 l 364 607 q 411 744 385 665 q 477 951 437 823 l 444 951 l 444 951 q 510 745 484 824 q 556 607 536 666 l 769 0 l 901 0 l 531 1010 l 390 1010 l 18 0 l 148 0 m 709 283 l 709 393 l 209 393 l 209 283 l 709 283 m 461 1097 q 560 1123 516 1097 q 630 1191 604 1148 q 656 1288 656 1234 l 568 1288 l 568 1288 q 538 1212 568 1241 q 462 1182 508 1182 l 462 1182 q 385 1212 415 1182 q 355 1288 355 1241 l 267 1288 l 267 1288 q 293 1192 267 1235 q 363 1123 319 1148 q 461 1097 407 1097 l 461 1097 m 506 1314 l 637 1499 l 504 1499 l 409 1314 l 506 1314 "},"Ằ":{"ha":919,"x_min":18,"x_max":901,"o":"m 148 0 l 364 607 l 364 607 q 411 744 385 665 q 477 951 437 823 l 444 951 l 444 951 q 510 745 484 824 q 556 607 536 666 l 769 0 l 901 0 l 531 1010 l 390 1010 l 18 0 l 148 0 m 709 283 l 709 393 l 209 393 l 209 283 l 709 283 m 460 1097 q 558 1123 515 1097 q 628 1191 602 1148 q 654 1288 654 1234 l 567 1288 l 567 1288 q 537 1212 567 1241 q 460 1182 507 1182 l 460 1182 q 384 1212 414 1182 q 353 1288 353 1241 l 266 1288 l 266 1288 q 292 1191 266 1234 q 361 1123 317 1148 q 460 1097 406 1097 l 460 1097 m 418 1499 l 285 1499 l 416 1314 l 513 1314 l 418 1499 "},"Ẳ":{"ha":919,"x_min":18,"x_max":901,"o":"m 148 0 l 364 607 l 364 607 q 411 744 385 665 q 477 951 437 823 l 444 951 l 444 951 q 510 745 484 824 q 556 607 536 666 l 769 0 l 901 0 l 531 1010 l 390 1010 l 18 0 l 148 0 m 709 283 l 709 393 l 209 393 l 209 283 l 709 283 m 461 1097 q 560 1123 516 1097 q 630 1191 604 1148 q 656 1288 656 1234 l 568 1288 l 568 1288 q 538 1212 568 1241 q 462 1182 508 1182 l 462 1182 q 385 1212 415 1182 q 355 1288 355 1241 l 267 1288 l 267 1288 q 293 1192 267 1235 q 363 1123 319 1148 q 461 1097 407 1097 l 461 1097 m 538 1360 l 538 1360 q 561 1431 565 1399 q 528 1481 557 1463 q 444 1500 498 1500 l 351 1500 l 351 1422 l 444 1422 l 444 1422 q 463 1415 459 1422 q 459 1394 467 1408 l 417 1314 l 507 1314 l 538 1360 "},"Ẵ":{"ha":919,"x_min":18,"x_max":901,"o":"m 148 0 l 364 607 l 364 607 q 411 744 385 665 q 477 951 437 823 l 444 951 l 444 951 q 510 745 484 824 q 556 607 536 666 l 769 0 l 901 0 l 531 1010 l 390 1010 l 18 0 l 148 0 m 709 283 l 709 393 l 209 393 l 209 283 l 709 283 m 460 1098 q 558 1123 515 1098 q 628 1192 602 1149 q 654 1288 654 1235 l 567 1288 l 567 1288 q 537 1212 567 1241 q 460 1182 507 1182 l 460 1182 q 384 1212 414 1182 q 354 1288 354 1241 l 267 1288 l 267 1288 q 293 1192 267 1235 q 362 1123 319 1149 q 460 1098 406 1098 l 460 1098 m 552 1339 q 629 1377 602 1339 q 659 1478 656 1415 l 577 1478 l 577 1478 q 565 1436 574 1449 q 540 1423 557 1423 l 540 1423 q 505 1432 523 1423 q 467 1452 487 1440 q 425 1472 448 1463 q 376 1480 403 1480 l 376 1480 q 297 1441 323 1480 q 269 1341 271 1402 l 353 1341 l 353 1341 q 362 1377 354 1360 q 388 1394 371 1394 l 388 1394 q 419 1386 401 1394 q 458 1367 437 1378 q 504 1348 480 1356 q 552 1339 528 1339 l 552 1339 "},"Ặ":{"ha":919,"x_min":18,"x_max":901,"o":"m 148 0 l 364 607 l 364 607 q 411 744 385 665 q 477 951 437 823 l 444 951 l 444 951 q 510 745 484 824 q 556 607 536 666 l 769 0 l 901 0 l 531 1010 l 390 1010 l 18 0 l 148 0 m 709 283 l 709 393 l 209 393 l 209 283 l 709 283 m 460 1115 q 559 1141 515 1115 q 629 1210 604 1166 q 655 1305 655 1253 l 568 1305 l 568 1305 q 537 1229 568 1259 q 461 1200 507 1200 l 461 1200 q 384 1229 414 1200 q 354 1305 354 1259 l 267 1305 l 267 1305 q 293 1209 267 1253 q 362 1140 319 1166 q 460 1115 406 1115 l 460 1115 m 461 -294 q 518 -271 494 -294 q 541 -216 541 -248 l 541 -216 q 518 -159 541 -182 q 460 -136 494 -136 l 460 -136 q 405 -159 428 -136 q 381 -216 381 -182 l 381 -216 q 405 -271 381 -248 q 461 -294 428 -294 l 461 -294 "},"Α":{"ha":919,"x_min":18,"x_max":901,"o":"m 148 0 l 364 607 l 364 607 q 411 744 385 665 q 477 951 437 823 l 444 951 l 444 951 q 510 745 484 824 q 556 607 536 666 l 769 0 l 901 0 l 531 1010 l 390 1010 l 18 0 l 148 0 m 709 283 l 709 393 l 209 393 l 209 283 l 709 283 "},"Ά":{"ha":919,"x_min":18,"x_max":901,"o":"m 148 0 l 364 607 l 364 607 q 411 744 385 665 q 477 951 437 823 l 444 951 l 444 951 q 510 745 484 824 q 556 607 536 666 l 769 0 l 901 0 l 531 1010 l 390 1010 l 18 0 l 148 0 m 709 283 l 709 393 l 209 393 l 209 283 l 709 283 m 198 809 l 260 1010 l 142 1010 l 116 809 l 198 809 "},"Ἀ":{"ha":941,"x_min":41,"x_max":923,"o":"m 171 0 l 387 607 l 387 607 q 434 744 408 665 q 500 951 460 823 l 467 951 l 467 951 q 533 745 507 824 q 579 607 559 666 l 792 0 l 924 0 l 554 1010 l 413 1010 l 41 0 l 171 0 m 732 283 l 732 393 l 232 393 l 232 283 l 732 283 m 121 810 q 240 840 197 810 q 282 918 282 869 l 282 918 q 240 995 282 967 q 121 1022 197 1022 l 100 1022 l 100 945 l 121 945 l 121 945 q 173 936 155 945 q 191 907 191 926 l 191 907 q 173 874 191 886 q 121 863 155 863 l 114 863 l 114 810 l 121 810 l 121 810 "},"Ἁ":{"ha":941,"x_min":41,"x_max":923,"o":"m 171 0 l 387 607 l 387 607 q 434 744 408 665 q 500 951 460 823 l 467 951 l 467 951 q 533 745 507 824 q 579 607 559 666 l 792 0 l 924 0 l 554 1010 l 413 1010 l 41 0 l 171 0 m 732 283 l 732 393 l 232 393 l 232 283 l 732 283 m 254 801 l 254 854 l 247 854 l 247 854 q 196 865 214 854 q 178 899 178 877 l 178 899 q 196 927 178 917 q 247 937 214 937 l 268 937 l 268 1013 l 247 1013 l 247 1013 q 129 986 172 1013 q 86 909 86 958 l 86 909 q 129 831 86 861 q 247 801 172 801 l 254 801 "},"Ἂ":{"ha":1067,"x_min":41,"x_max":1048,"o":"m 296 0 l 513 607 l 513 607 q 560 744 534 665 q 625 951 586 823 l 592 951 l 592 951 q 658 745 632 824 q 705 607 684 666 l 918 0 l 1049 0 l 680 1010 l 538 1010 l 167 0 l 296 0 m 858 283 l 858 393 l 357 393 l 357 283 l 858 283 m 62 801 q 181 831 138 801 q 223 909 223 861 l 223 909 q 181 986 223 958 q 62 1013 138 1013 l 41 1013 l 41 937 l 62 937 l 62 937 q 114 927 96 937 q 132 899 132 917 l 132 899 q 114 865 132 877 q 62 854 96 854 l 55 854 l 55 801 l 62 801 l 62 801 m 361 1010 l 245 1010 l 306 803 l 387 803 l 361 1010 "},"Ἃ":{"ha":1074,"x_min":41,"x_max":1056,"o":"m 303 0 l 519 607 l 519 607 q 567 744 541 665 q 632 951 593 823 l 599 951 l 599 951 q 665 745 639 824 q 711 607 691 666 l 924 0 l 1056 0 l 686 1010 l 545 1010 l 174 0 l 303 0 m 865 283 l 865 393 l 364 393 l 364 283 l 865 283 m 210 801 l 210 854 l 202 854 l 202 854 q 151 865 169 854 q 133 899 133 877 l 133 899 q 151 927 133 917 q 202 937 169 937 l 223 937 l 223 1013 l 202 1013 l 202 1013 q 84 986 127 1013 q 41 909 41 958 l 41 909 q 84 831 41 861 q 202 801 127 801 l 210 801 m 380 1010 l 264 1010 l 326 803 l 406 803 l 380 1010 "},"Ἄ":{"ha":1076,"x_min":41,"x_max":1057,"o":"m 304 0 l 521 607 l 521 607 q 568 744 542 665 q 633 951 594 823 l 600 951 l 600 951 q 666 745 640 824 q 713 607 692 666 l 926 0 l 1057 0 l 688 1010 l 547 1010 l 175 0 l 304 0 m 866 283 l 866 393 l 366 393 l 366 283 l 866 283 m 62 801 q 181 831 138 801 q 223 909 223 861 l 223 909 q 181 986 223 958 q 62 1013 138 1013 l 41 1013 l 41 937 l 62 937 l 62 937 q 114 927 96 937 q 132 899 132 917 l 132 899 q 114 865 132 877 q 62 854 96 854 l 55 854 l 55 801 l 62 801 l 62 801 m 366 803 l 427 1010 l 311 1010 l 285 803 l 366 803 "},"Ἅ":{"ha":1081,"x_min":41,"x_max":1063,"o":"m 310 0 l 526 607 l 526 607 q 573 744 547 665 q 639 951 600 823 l 606 951 l 606 951 q 672 745 646 824 q 718 607 698 666 l 931 0 l 1063 0 l 693 1010 l 552 1010 l 180 0 l 310 0 m 871 283 l 871 393 l 371 393 l 371 283 l 871 283 m 210 801 l 210 854 l 202 854 l 202 854 q 151 865 169 854 q 133 899 133 877 l 133 899 q 151 927 133 917 q 202 937 169 937 l 223 937 l 223 1013 l 202 1013 l 202 1013 q 84 986 127 1013 q 41 909 41 958 l 41 909 q 84 831 41 861 q 202 801 127 801 l 210 801 m 365 803 l 425 1010 l 309 1010 l 284 803 l 365 803 "},"Ἆ":{"ha":993,"x_min":41,"x_max":975,"o":"m 222 0 l 439 607 l 439 607 q 486 744 460 665 q 551 951 512 823 l 518 951 l 518 951 q 584 745 558 824 q 631 607 610 666 l 844 0 l 975 0 l 606 1010 l 465 1010 l 93 0 l 222 0 m 784 283 l 784 393 l 283 393 l 283 283 l 784 283 m 166 806 q 284 836 242 806 q 327 915 327 866 l 327 915 q 284 991 327 964 q 166 1019 242 1019 l 145 1019 l 145 942 l 166 942 l 166 942 q 217 932 199 942 q 235 903 235 922 l 235 903 q 217 871 235 882 q 166 859 199 859 l 159 859 l 159 806 l 166 806 l 166 806 m 324 1071 q 401 1109 374 1071 q 431 1209 429 1147 l 349 1209 l 349 1209 q 337 1167 346 1180 q 312 1155 329 1155 l 312 1155 q 277 1163 295 1155 q 239 1183 259 1172 q 197 1203 220 1195 q 149 1212 175 1212 l 149 1212 q 70 1173 96 1212 q 41 1073 43 1133 l 125 1073 l 125 1073 q 135 1109 127 1092 q 161 1126 143 1126 l 161 1126 q 191 1118 173 1126 q 231 1098 209 1109 q 276 1079 252 1087 q 324 1071 300 1071 l 324 1071 "},"Ἇ":{"ha":1002,"x_min":41,"x_max":983,"o":"m 231 0 l 447 607 l 447 607 q 494 744 468 665 q 559 951 520 823 l 526 951 l 526 951 q 592 745 566 824 q 639 607 618 666 l 852 0 l 983 0 l 614 1010 l 473 1010 l 101 0 l 231 0 m 792 283 l 792 393 l 292 393 l 292 283 l 792 283 m 313 800 l 313 852 l 306 852 l 306 852 q 255 864 273 852 q 237 897 237 876 l 237 897 q 255 925 237 916 q 306 935 273 935 l 327 935 l 327 1012 l 306 1012 l 306 1012 q 188 984 231 1012 q 145 908 145 957 l 145 908 q 188 829 145 859 q 306 800 231 800 l 313 800 m 324 1064 q 401 1102 374 1064 q 431 1202 429 1140 l 349 1202 l 349 1202 q 337 1161 346 1173 q 312 1148 329 1148 l 312 1148 q 277 1157 295 1148 q 239 1177 259 1165 q 197 1197 220 1188 q 149 1205 175 1205 l 149 1205 q 70 1166 96 1205 q 41 1066 43 1126 l 125 1066 l 125 1066 q 135 1102 127 1085 q 161 1119 143 1119 l 161 1119 q 191 1111 173 1119 q 231 1092 209 1103 q 276 1072 252 1080 q 324 1064 300 1064 l 324 1064 "},"Ᾰ":{"ha":919,"x_min":18,"x_max":901,"o":"m 148 0 l 364 607 l 364 607 q 411 744 385 665 q 477 951 437 823 l 444 951 l 444 951 q 510 745 484 824 q 556 607 536 666 l 769 0 l 901 0 l 531 1010 l 390 1010 l 18 0 l 148 0 m 709 283 l 709 393 l 209 393 l 209 283 l 709 283 m 460 1115 q 559 1141 515 1115 q 629 1210 604 1166 q 655 1305 655 1253 l 568 1305 l 568 1305 q 537 1229 568 1259 q 461 1200 507 1200 l 461 1200 q 384 1229 414 1200 q 354 1305 354 1259 l 267 1305 l 267 1305 q 293 1209 267 1253 q 362 1140 319 1166 q 460 1115 406 1115 l 460 1115 "},"Ᾱ":{"ha":919,"x_min":18,"x_max":901,"o":"m 148 0 l 364 607 l 364 607 q 411 744 385 665 q 477 951 437 823 l 444 951 l 444 951 q 510 745 484 824 q 556 607 536 666 l 769 0 l 901 0 l 531 1010 l 390 1010 l 18 0 l 148 0 m 709 283 l 709 393 l 209 393 l 209 283 l 709 283 m 273 1257 l 273 1161 l 648 1161 l 648 1257 l 273 1257 "},"Ὰ":{"ha":919,"x_min":9,"x_max":901,"o":"m 148 0 l 364 607 l 364 607 q 411 744 385 665 q 477 951 437 823 l 444 951 l 444 951 q 510 745 484 824 q 556 607 536 666 l 769 0 l 901 0 l 531 1010 l 390 1010 l 18 0 l 148 0 m 709 283 l 709 393 l 209 393 l 209 283 l 709 283 m 128 1021 l 9 1021 l 72 819 l 154 819 l 128 1021 "},"Ⱥ":{"ha":919,"x_min":18,"x_max":901,"o":"m 646 1138 l 196 -129 l 309 -129 l 759 1138 l 646 1138 m 148 0 l 364 607 l 364 607 q 411 744 385 665 q 477 951 437 823 l 444 951 l 444 951 q 510 745 484 824 q 556 607 536 666 l 769 0 l 901 0 l 531 1010 l 390 1010 l 18 0 l 148 0 m 709 283 l 709 393 l 209 393 l 209 283 l 709 283 "},"Ά":{"ha":941,"x_min":41,"x_max":923,"o":"m 171 0 l 387 607 l 387 607 q 434 744 408 665 q 500 951 460 823 l 467 951 l 467 951 q 533 745 507 824 q 579 607 559 666 l 792 0 l 924 0 l 554 1010 l 413 1010 l 41 0 l 171 0 m 732 283 l 732 393 l 232 393 l 232 283 l 732 283 m 221 809 l 283 1010 l 165 1010 l 139 809 l 221 809 "},"А":{"ha":919,"x_min":18,"x_max":901,"o":"m 148 0 l 364 607 l 364 607 q 411 744 385 665 q 477 951 437 823 l 444 951 l 444 951 q 510 745 484 824 q 556 607 536 666 l 769 0 l 901 0 l 531 1010 l 390 1010 l 18 0 l 148 0 m 709 283 l 709 393 l 209 393 l 209 283 l 709 283 "},"Ӑ":{"ha":919,"x_min":18,"x_max":901,"o":"m 148 0 l 364 607 l 364 607 q 411 744 385 665 q 477 951 437 823 l 444 951 l 444 951 q 510 745 484 824 q 556 607 536 666 l 769 0 l 901 0 l 531 1010 l 390 1010 l 18 0 l 148 0 m 709 283 l 709 393 l 209 393 l 209 283 l 709 283 m 460 1115 q 559 1141 515 1115 q 629 1210 604 1166 q 655 1305 655 1253 l 568 1305 l 568 1305 q 537 1229 568 1259 q 461 1200 507 1200 l 461 1200 q 384 1229 414 1200 q 354 1305 354 1259 l 267 1305 l 267 1305 q 293 1209 267 1253 q 362 1140 319 1166 q 460 1115 406 1115 l 460 1115 "},"Ӓ":{"ha":919,"x_min":18,"x_max":901,"o":"m 148 0 l 364 607 l 364 607 q 411 744 385 665 q 477 951 437 823 l 444 951 l 444 951 q 510 745 484 824 q 556 607 536 666 l 769 0 l 901 0 l 531 1010 l 390 1010 l 18 0 l 148 0 m 709 283 l 709 393 l 209 393 l 209 283 l 709 283 m 604 1147 q 659 1170 636 1147 q 682 1225 682 1193 l 682 1225 q 659 1282 682 1259 q 604 1305 636 1305 l 604 1305 q 547 1282 570 1305 q 524 1225 524 1259 l 524 1225 q 547 1170 524 1193 q 604 1147 570 1147 l 604 1147 m 319 1147 q 375 1170 352 1147 q 398 1225 398 1193 l 398 1225 q 375 1282 398 1259 q 319 1305 352 1305 l 319 1305 q 263 1282 287 1305 q 240 1225 240 1259 l 240 1225 q 263 1170 240 1193 q 319 1147 287 1147 l 319 1147 "},"ᾈ":{"ha":941,"x_min":41,"x_max":923,"o":"m 171 0 l 387 607 l 387 607 q 434 744 408 665 q 500 951 460 823 l 467 951 l 467 951 q 533 745 507 824 q 579 607 559 666 l 792 0 l 924 0 l 554 1010 l 413 1010 l 41 0 l 171 0 m 732 283 l 732 393 l 232 393 l 232 283 l 732 283 m 553 -335 q 582 -335 568 -335 q 611 -333 597 -334 l 611 -247 l 611 -247 q 594 -248 602 -248 q 577 -248 586 -248 l 577 -248 q 547 -236 556 -248 q 538 -199 538 -225 l 538 -80 l 429 -80 l 429 -209 l 429 -209 q 463 -300 429 -266 q 553 -335 497 -335 l 553 -335 m 121 810 q 240 840 197 810 q 282 918 282 869 l 282 918 q 240 995 282 967 q 121 1022 197 1022 l 100 1022 l 100 945 l 121 945 l 121 945 q 173 936 155 945 q 191 907 191 926 l 191 907 q 173 874 191 886 q 121 863 155 863 l 114 863 l 114 810 l 121 810 l 121 810 "},"ᾉ":{"ha":941,"x_min":41,"x_max":923,"o":"m 171 0 l 387 607 l 387 607 q 434 744 408 665 q 500 951 460 823 l 467 951 l 467 951 q 533 745 507 824 q 579 607 559 666 l 792 0 l 924 0 l 554 1010 l 413 1010 l 41 0 l 171 0 m 732 283 l 732 393 l 232 393 l 232 283 l 732 283 m 553 -335 q 582 -335 568 -335 q 611 -333 597 -334 l 611 -247 l 611 -247 q 594 -248 602 -248 q 577 -248 586 -248 l 577 -248 q 547 -236 556 -248 q 538 -199 538 -225 l 538 -80 l 429 -80 l 429 -209 l 429 -209 q 463 -300 429 -266 q 553 -335 497 -335 l 553 -335 m 254 801 l 254 854 l 247 854 l 247 854 q 196 865 214 854 q 178 899 178 877 l 178 899 q 196 927 178 917 q 247 937 214 937 l 268 937 l 268 1013 l 247 1013 l 247 1013 q 129 986 172 1013 q 86 909 86 958 l 86 909 q 129 831 86 861 q 247 801 172 801 l 254 801 "},"ᾊ":{"ha":1067,"x_min":41,"x_max":1048,"o":"m 296 0 l 513 607 l 513 607 q 560 744 534 665 q 625 951 586 823 l 592 951 l 592 951 q 658 745 632 824 q 705 607 684 666 l 918 0 l 1049 0 l 680 1010 l 538 1010 l 167 0 l 296 0 m 858 283 l 858 393 l 357 393 l 357 283 l 858 283 m 678 -335 q 708 -335 693 -335 q 736 -333 722 -334 l 736 -247 l 736 -247 q 720 -248 728 -248 q 703 -248 711 -248 l 703 -248 q 672 -236 682 -248 q 663 -199 663 -225 l 663 -80 l 554 -80 l 554 -209 l 554 -209 q 588 -300 554 -266 q 678 -335 623 -335 l 678 -335 m 62 801 q 181 831 138 801 q 223 909 223 861 l 223 909 q 181 986 223 958 q 62 1013 138 1013 l 41 1013 l 41 937 l 62 937 l 62 937 q 114 927 96 937 q 132 899 132 917 l 132 899 q 114 865 132 877 q 62 854 96 854 l 55 854 l 55 801 l 62 801 l 62 801 m 361 1010 l 245 1010 l 306 803 l 387 803 l 361 1010 "},"ᾋ":{"ha":1074,"x_min":41,"x_max":1056,"o":"m 303 0 l 519 607 l 519 607 q 567 744 541 665 q 632 951 593 823 l 599 951 l 599 951 q 665 745 639 824 q 711 607 691 666 l 924 0 l 1056 0 l 686 1010 l 545 1010 l 174 0 l 303 0 m 865 283 l 865 393 l 364 393 l 364 283 l 865 283 m 686 -335 q 715 -335 701 -335 q 744 -333 730 -334 l 744 -247 l 744 -247 q 727 -248 735 -248 q 710 -248 719 -248 l 710 -248 q 680 -236 689 -248 q 671 -199 671 -225 l 671 -80 l 562 -80 l 562 -209 l 562 -209 q 596 -300 562 -266 q 686 -335 630 -335 l 686 -335 m 210 801 l 210 854 l 202 854 l 202 854 q 151 865 169 854 q 133 899 133 877 l 133 899 q 151 927 133 917 q 202 937 169 937 l 223 937 l 223 1013 l 202 1013 l 202 1013 q 84 986 127 1013 q 41 909 41 958 l 41 909 q 84 831 41 861 q 202 801 127 801 l 210 801 m 380 1010 l 264 1010 l 326 803 l 406 803 l 380 1010 "},"ᾌ":{"ha":1076,"x_min":41,"x_max":1057,"o":"m 304 0 l 521 607 l 521 607 q 568 744 542 665 q 633 951 594 823 l 600 951 l 600 951 q 666 745 640 824 q 713 607 692 666 l 926 0 l 1057 0 l 688 1010 l 547 1010 l 175 0 l 304 0 m 866 283 l 866 393 l 366 393 l 366 283 l 866 283 m 62 801 q 181 831 138 801 q 223 909 223 861 l 223 909 q 181 986 223 958 q 62 1013 138 1013 l 41 1013 l 41 937 l 62 937 l 62 937 q 114 927 96 937 q 132 899 132 917 l 132 899 q 114 865 132 877 q 62 854 96 854 l 55 854 l 55 801 l 62 801 l 62 801 m 366 803 l 427 1010 l 311 1010 l 285 803 l 366 803 m 686 -335 q 716 -335 701 -335 q 745 -333 730 -334 l 745 -247 l 745 -247 q 728 -248 736 -248 q 711 -248 720 -248 l 711 -248 q 681 -236 690 -248 q 671 -199 671 -225 l 671 -80 l 562 -80 l 562 -209 l 562 -209 q 596 -300 562 -266 q 686 -335 631 -335 l 686 -335 "},"ᾍ":{"ha":1081,"x_min":41,"x_max":1063,"o":"m 310 0 l 526 607 l 526 607 q 573 744 547 665 q 639 951 600 823 l 606 951 l 606 951 q 672 745 646 824 q 718 607 698 666 l 931 0 l 1063 0 l 693 1010 l 552 1010 l 180 0 l 310 0 m 871 283 l 871 393 l 371 393 l 371 283 l 871 283 m 692 -335 q 721 -335 707 -335 q 750 -333 736 -334 l 750 -247 l 750 -247 q 733 -248 741 -248 q 716 -248 725 -248 l 716 -248 q 686 -236 695 -248 q 677 -199 677 -225 l 677 -80 l 568 -80 l 568 -209 l 568 -209 q 602 -300 568 -266 q 692 -335 636 -335 l 692 -335 m 210 801 l 210 854 l 202 854 l 202 854 q 151 865 169 854 q 133 899 133 877 l 133 899 q 151 927 133 917 q 202 937 169 937 l 223 937 l 223 1013 l 202 1013 l 202 1013 q 84 986 127 1013 q 41 909 41 958 l 41 909 q 84 831 41 861 q 202 801 127 801 l 210 801 m 365 803 l 425 1010 l 309 1010 l 284 803 l 365 803 "},"ᾎ":{"ha":993,"x_min":41,"x_max":975,"o":"m 222 0 l 439 607 l 439 607 q 486 744 460 665 q 551 951 512 823 l 518 951 l 518 951 q 584 745 558 824 q 631 607 610 666 l 844 0 l 975 0 l 606 1010 l 465 1010 l 93 0 l 222 0 m 784 283 l 784 393 l 283 393 l 283 283 l 784 283 m 166 806 q 284 836 242 806 q 327 915 327 866 l 327 915 q 284 991 327 964 q 166 1019 242 1019 l 145 1019 l 145 942 l 166 942 l 166 942 q 217 932 199 942 q 235 903 235 922 l 235 903 q 217 871 235 882 q 166 859 199 859 l 159 859 l 159 806 l 166 806 l 166 806 m 324 1071 q 401 1109 374 1071 q 431 1209 429 1147 l 349 1209 l 349 1209 q 337 1167 346 1180 q 312 1155 329 1155 l 312 1155 q 277 1163 295 1155 q 239 1183 259 1172 q 197 1203 220 1195 q 149 1212 175 1212 l 149 1212 q 70 1173 96 1212 q 41 1073 43 1133 l 125 1073 l 125 1073 q 135 1109 127 1092 q 161 1126 143 1126 l 161 1126 q 191 1118 173 1126 q 231 1098 209 1109 q 276 1079 252 1087 q 324 1071 300 1071 l 324 1071 m 604 -335 q 634 -335 619 -335 q 663 -333 648 -334 l 663 -247 l 663 -247 q 646 -248 654 -248 q 629 -248 637 -248 l 629 -248 q 598 -236 608 -248 q 589 -199 589 -225 l 589 -80 l 480 -80 l 480 -209 l 480 -209 q 514 -300 480 -266 q 604 -335 549 -335 l 604 -335 "},"ᾏ":{"ha":1002,"x_min":41,"x_max":983,"o":"m 231 0 l 447 607 l 447 607 q 494 744 468 665 q 559 951 520 823 l 526 951 l 526 951 q 592 745 566 824 q 639 607 618 666 l 852 0 l 983 0 l 614 1010 l 473 1010 l 101 0 l 231 0 m 792 283 l 792 393 l 292 393 l 292 283 l 792 283 m 612 -335 q 642 -335 627 -335 q 671 -333 656 -334 l 671 -247 l 671 -247 q 654 -248 662 -248 q 637 -248 646 -248 l 637 -248 q 607 -236 616 -248 q 597 -199 597 -225 l 597 -80 l 488 -80 l 488 -209 l 488 -209 q 523 -300 488 -266 q 612 -335 557 -335 l 612 -335 m 313 800 l 313 852 l 306 852 l 306 852 q 255 864 273 852 q 237 897 237 876 l 237 897 q 255 925 237 916 q 306 935 273 935 l 327 935 l 327 1012 l 306 1012 l 306 1012 q 188 984 231 1012 q 145 908 145 957 l 145 908 q 188 829 145 859 q 306 800 231 800 l 313 800 m 324 1064 q 401 1102 374 1064 q 431 1202 429 1140 l 349 1202 l 349 1202 q 337 1161 346 1173 q 312 1148 329 1148 l 312 1148 q 277 1157 295 1148 q 239 1177 259 1165 q 197 1197 220 1188 q 149 1205 175 1205 l 149 1205 q 70 1166 96 1205 q 41 1066 43 1126 l 125 1066 l 125 1066 q 135 1102 127 1085 q 161 1119 143 1119 l 161 1119 q 191 1111 173 1119 q 231 1092 209 1103 q 276 1072 252 1080 q 324 1064 300 1064 l 324 1064 "},"ᾼ":{"ha":919,"x_min":18,"x_max":901,"o":"m 148 0 l 364 607 l 364 607 q 411 744 385 665 q 477 951 437 823 l 444 951 l 444 951 q 510 745 484 824 q 556 607 536 666 l 769 0 l 901 0 l 531 1010 l 390 1010 l 18 0 l 148 0 m 709 283 l 709 393 l 209 393 l 209 283 l 709 283 m 530 -335 q 559 -335 545 -335 q 588 -333 574 -334 l 588 -247 l 588 -247 q 571 -248 579 -248 q 554 -248 563 -248 l 554 -248 q 524 -236 533 -248 q 515 -199 515 -225 l 515 -80 l 406 -80 l 406 -209 l 406 -209 q 440 -300 406 -266 q 530 -335 474 -335 l 530 -335 "},"Λ":{"ha":919,"x_min":18,"x_max":901,"o":"m 148 0 l 364 607 l 364 607 q 411 744 385 665 q 477 951 437 823 l 444 951 l 444 951 q 510 745 484 824 q 556 607 536 666 l 769 0 l 901 0 l 531 1010 l 390 1010 l 18 0 l 148 0 "},"Æ":{"ha":1352,"x_min":18,"x_max":1295,"o":"m 150 0 l 559 907 l 646 907 l 646 0 l 1295 0 l 1295 110 l 769 110 l 769 454 l 1255 454 l 1255 564 l 769 564 l 769 901 l 1293 901 l 1293 1010 l 482 1010 l 18 0 l 150 0 m 708 299 l 708 407 l 245 407 l 245 299 l 708 299 "},"Ǣ":{"ha":1352,"x_min":18,"x_max":1295,"o":"m 150 0 l 559 907 l 646 907 l 646 0 l 1295 0 l 1295 110 l 769 110 l 769 454 l 1255 454 l 1255 564 l 769 564 l 769 901 l 1293 901 l 1293 1010 l 482 1010 l 18 0 l 150 0 m 708 299 l 708 407 l 245 407 l 245 299 l 708 299 m 705 1257 l 705 1161 l 1079 1161 l 1079 1257 l 705 1257 "},"Ǽ":{"ha":1352,"x_min":18,"x_max":1295,"o":"m 150 0 l 559 907 l 646 907 l 646 0 l 1295 0 l 1295 110 l 769 110 l 769 454 l 1255 454 l 1255 564 l 769 564 l 769 901 l 1293 901 l 1293 1010 l 482 1010 l 18 0 l 150 0 m 708 299 l 708 407 l 245 407 l 245 299 l 708 299 m 938 1104 l 1068 1305 l 936 1305 l 841 1104 l 938 1104 "},"Ӕ":{"ha":1352,"x_min":18,"x_max":1295,"o":"m 150 0 l 559 907 l 646 907 l 646 0 l 1295 0 l 1295 110 l 769 110 l 769 454 l 1255 454 l 1255 564 l 769 564 l 769 901 l 1293 901 l 1293 1010 l 482 1010 l 18 0 l 150 0 m 708 299 l 708 407 l 245 407 l 245 299 l 708 299 "},"B":{"ha":891,"x_min":105,"x_max":831,"o":"m 475 0 l 475 0 q 675 35 596 0 q 793 133 754 70 q 831 280 831 197 l 831 280 q 803 405 831 355 q 728 485 775 456 q 627 522 682 514 l 627 525 l 627 525 q 713 569 676 541 q 770 640 750 597 q 791 742 791 683 l 791 742 q 753 883 791 823 q 643 977 715 943 q 469 1010 571 1010 l 105 1010 l 105 0 l 475 0 m 229 460 l 481 460 l 481 460 q 604 437 553 460 q 681 373 654 414 q 707 277 707 332 l 707 277 q 649 153 707 197 q 475 110 590 110 l 229 110 l 229 460 m 229 901 l 471 901 l 471 901 q 618 856 567 901 q 669 736 669 810 l 669 736 q 645 646 669 684 q 576 588 621 608 q 471 567 532 567 l 229 567 l 229 901 "},"Ḃ":{"ha":891,"x_min":105,"x_max":831,"o":"m 475 0 l 475 0 q 675 35 596 0 q 793 133 754 70 q 831 280 831 197 l 831 280 q 803 405 831 355 q 728 485 775 456 q 627 522 682 514 l 627 525 l 627 525 q 713 569 676 541 q 770 640 750 597 q 791 742 791 683 l 791 742 q 753 883 791 823 q 643 977 715 943 q 469 1010 571 1010 l 105 1010 l 105 0 l 475 0 m 229 460 l 481 460 l 481 460 q 604 437 553 460 q 681 373 654 414 q 707 277 707 332 l 707 277 q 649 153 707 197 q 475 110 590 110 l 229 110 l 229 460 m 229 901 l 471 901 l 471 901 q 618 856 567 901 q 669 736 669 810 l 669 736 q 645 646 669 684 q 576 588 621 608 q 471 567 532 567 l 229 567 l 229 901 m 429 1147 q 485 1170 462 1147 q 509 1225 509 1193 l 509 1225 q 485 1282 509 1259 q 428 1305 462 1305 l 428 1305 q 372 1282 395 1305 q 349 1225 349 1259 l 349 1225 q 372 1170 349 1193 q 429 1147 395 1147 l 429 1147 "},"Ḅ":{"ha":891,"x_min":105,"x_max":831,"o":"m 475 0 l 475 0 q 675 35 596 0 q 793 133 754 70 q 831 280 831 197 l 831 280 q 803 405 831 355 q 728 485 775 456 q 627 522 682 514 l 627 525 l 627 525 q 713 569 676 541 q 770 640 750 597 q 791 742 791 683 l 791 742 q 753 883 791 823 q 643 977 715 943 q 469 1010 571 1010 l 105 1010 l 105 0 l 475 0 m 229 460 l 481 460 l 481 460 q 604 437 553 460 q 681 373 654 414 q 707 277 707 332 l 707 277 q 649 153 707 197 q 475 110 590 110 l 229 110 l 229 460 m 229 901 l 471 901 l 471 901 q 618 856 567 901 q 669 736 669 810 l 669 736 q 645 646 669 684 q 576 588 621 608 q 471 567 532 567 l 229 567 l 229 901 m 434 -294 q 491 -271 467 -294 q 514 -216 514 -248 l 514 -216 q 491 -159 514 -182 q 433 -136 467 -136 l 433 -136 q 377 -159 401 -136 q 354 -216 354 -182 l 354 -216 q 377 -271 354 -248 q 434 -294 401 -294 l 434 -294 "},"Ḇ":{"ha":891,"x_min":105,"x_max":831,"o":"m 475 0 l 475 0 q 675 35 596 0 q 793 133 754 70 q 831 280 831 197 l 831 280 q 803 405 831 355 q 728 485 775 456 q 627 522 682 514 l 627 525 l 627 525 q 713 569 676 541 q 770 640 750 597 q 791 742 791 683 l 791 742 q 753 883 791 823 q 643 977 715 943 q 469 1010 571 1010 l 105 1010 l 105 0 l 475 0 m 229 460 l 481 460 l 481 460 q 604 437 553 460 q 681 373 654 414 q 707 277 707 332 l 707 277 q 649 153 707 197 q 475 110 590 110 l 229 110 l 229 460 m 229 901 l 471 901 l 471 901 q 618 856 567 901 q 669 736 669 810 l 669 736 q 645 646 669 684 q 576 588 621 608 q 471 567 532 567 l 229 567 l 229 901 m 246 -151 l 246 -246 l 621 -246 l 621 -151 l 246 -151 "},"Ƀ":{"ha":907,"x_min":2,"x_max":848,"o":"m 491 0 l 491 0 q 691 35 612 0 q 808 133 770 70 q 847 280 847 197 l 847 280 q 819 405 847 355 q 744 485 791 456 q 642 522 697 514 l 642 525 l 642 525 q 729 569 692 541 q 786 640 766 597 q 806 742 806 683 l 806 742 q 769 883 806 823 q 659 977 731 943 q 484 1010 587 1010 l 121 1010 l 121 0 l 491 0 m 244 460 l 497 460 l 497 460 q 620 437 569 460 q 696 373 670 414 q 723 277 723 332 l 723 277 q 664 153 723 197 q 490 110 606 110 l 244 110 l 244 460 m 244 901 l 487 901 l 487 901 q 634 856 583 901 q 685 736 685 810 l 685 736 q 661 646 685 684 q 592 588 637 608 q 486 567 547 567 l 244 567 l 244 901 m 420 236 l 420 334 l 2 334 l 2 236 l 420 236 "},"Ɓ":{"ha":1081,"x_min":33,"x_max":1021,"o":"m 146 722 l 146 827 l 146 827 q 165 883 146 866 q 229 901 184 901 l 295 901 l 295 1010 l 229 1010 l 229 1010 q 81 966 130 1010 q 33 830 33 921 l 33 722 l 146 722 m 665 0 l 665 0 q 865 35 786 0 q 983 133 944 70 q 1021 280 1021 197 l 1021 280 q 993 405 1021 355 q 918 485 965 456 q 817 522 871 514 l 817 525 l 817 525 q 903 569 866 541 q 960 640 940 597 q 981 742 981 683 l 981 742 q 943 883 981 823 q 833 977 905 943 q 659 1010 761 1010 l 295 1010 l 295 0 l 665 0 m 418 460 l 671 460 l 671 460 q 794 437 743 460 q 871 373 844 414 q 897 277 897 332 l 897 277 q 839 153 897 197 q 665 110 780 110 l 418 110 l 418 460 m 418 901 l 661 901 l 661 901 q 808 856 757 901 q 859 736 859 810 l 859 736 q 835 646 859 684 q 766 588 811 608 q 661 567 722 567 l 418 567 l 418 901 "},"В":{"ha":891,"x_min":105,"x_max":831,"o":"m 475 0 l 475 0 q 675 35 596 0 q 793 133 754 70 q 831 280 831 197 l 831 280 q 803 405 831 355 q 728 485 775 456 q 627 522 682 514 l 627 525 l 627 525 q 713 569 676 541 q 770 640 750 597 q 791 742 791 683 l 791 742 q 753 883 791 823 q 643 977 715 943 q 469 1010 571 1010 l 105 1010 l 105 0 l 475 0 m 229 460 l 481 460 l 481 460 q 604 437 553 460 q 681 373 654 414 q 707 277 707 332 l 707 277 q 649 153 707 197 q 475 110 590 110 l 229 110 l 229 460 m 229 901 l 471 901 l 471 901 q 618 856 567 901 q 669 736 669 810 l 669 736 q 645 646 669 684 q 576 588 621 608 q 471 567 532 567 l 229 567 l 229 901 "},"Β":{"ha":891,"x_min":105,"x_max":831,"o":"m 475 0 l 475 0 q 675 35 596 0 q 793 133 754 70 q 831 280 831 197 l 831 280 q 803 405 831 355 q 728 485 775 456 q 627 522 682 514 l 627 525 l 627 525 q 713 569 676 541 q 770 640 750 597 q 791 742 791 683 l 791 742 q 753 883 791 823 q 643 977 715 943 q 469 1010 571 1010 l 105 1010 l 105 0 l 475 0 m 229 460 l 481 460 l 481 460 q 604 437 553 460 q 681 373 654 414 q 707 277 707 332 l 707 277 q 649 153 707 197 q 475 110 590 110 l 229 110 l 229 460 m 229 901 l 471 901 l 471 901 q 618 856 567 901 q 669 736 669 810 l 669 736 q 645 646 669 684 q 576 588 621 608 q 471 567 532 567 l 229 567 l 229 901 "},"C":{"ha":1006,"x_min":66,"x_max":943,"o":"m 529 -16 q 677 8 608 -16 q 801 76 746 31 q 893 183 857 120 q 943 324 930 245 l 818 324 l 818 324 q 779 228 806 270 q 715 157 753 186 q 630 114 677 129 q 529 100 583 100 l 529 100 q 350 150 426 100 q 231 292 273 201 q 189 505 189 382 l 189 505 q 231 719 189 627 q 350 860 273 810 q 529 911 426 911 l 529 911 q 630 896 583 911 q 715 853 677 882 q 779 782 753 824 q 818 686 806 740 l 943 686 l 943 686 q 892 827 929 764 q 801 935 856 890 q 677 1003 746 979 q 529 1026 608 1026 l 529 1026 q 287 960 391 1026 q 124 777 182 895 q 66 505 66 659 l 66 505 q 124 233 66 351 q 287 50 183 116 q 529 -16 391 -16 l 529 -16 "},"Ƈ":{"ha":1006,"x_min":66,"x_max":1092,"o":"m 943 686 l 943 968 l 943 968 q 963 1021 943 1004 q 1030 1037 983 1037 l 1030 1037 q 1060 1037 1040 1037 q 1092 1036 1081 1036 l 1092 1137 l 1092 1137 q 1062 1138 1078 1137 q 1023 1138 1046 1138 l 1023 1138 q 879 1095 928 1138 q 829 968 829 1052 l 829 686 l 943 686 m 529 -16 q 677 8 608 -16 q 801 76 746 31 q 893 183 857 120 q 943 324 930 245 l 818 324 l 818 324 q 779 228 806 270 q 715 157 753 186 q 630 114 677 129 q 529 100 583 100 l 529 100 q 350 150 426 100 q 231 292 273 201 q 189 505 189 382 l 189 505 q 231 719 189 627 q 350 860 273 810 q 529 911 426 911 l 529 911 q 630 896 583 911 q 715 853 677 882 q 779 782 753 824 q 818 686 806 740 l 943 686 l 943 686 q 892 827 929 764 q 801 935 856 890 q 677 1003 746 979 q 529 1026 608 1026 l 529 1026 q 287 960 391 1026 q 124 777 182 895 q 66 505 66 659 l 66 505 q 124 233 66 351 q 287 50 183 116 q 529 -16 391 -16 l 529 -16 "},"Ç":{"ha":1006,"x_min":66,"x_max":943,"o":"m 529 -16 q 677 8 608 -16 q 801 76 746 31 q 893 183 857 120 q 943 324 930 245 l 818 324 l 818 324 q 779 228 806 270 q 715 157 753 186 q 630 114 677 129 q 529 100 583 100 l 529 100 q 350 150 426 100 q 231 292 273 201 q 189 505 189 382 l 189 505 q 231 719 189 627 q 350 860 273 810 q 529 911 426 911 l 529 911 q 630 896 583 911 q 715 853 677 882 q 779 782 753 824 q 818 686 806 740 l 943 686 l 943 686 q 892 827 929 764 q 801 935 856 890 q 677 1003 746 979 q 529 1026 608 1026 l 529 1026 q 287 960 391 1026 q 124 777 182 895 q 66 505 66 659 l 66 505 q 124 233 66 351 q 287 50 183 116 q 529 -16 391 -16 l 529 -16 m 522 -285 l 522 -285 q 636 -257 595 -285 q 678 -170 678 -229 l 678 -170 q 644 -91 678 -120 q 551 -60 610 -62 l 551 -1 l 551 31 l 487 31 l 467 -125 l 522 -125 l 522 -125 q 573 -136 557 -125 q 589 -170 589 -146 l 589 -170 q 573 -203 589 -193 q 522 -214 557 -214 l 442 -214 l 442 -285 l 522 -285 "},"Ć":{"ha":1006,"x_min":66,"x_max":943,"o":"m 529 -16 q 677 8 608 -16 q 801 76 746 31 q 893 183 857 120 q 943 324 930 245 l 818 324 l 818 324 q 779 228 806 270 q 715 157 753 186 q 630 114 677 129 q 529 100 583 100 l 529 100 q 350 150 426 100 q 231 292 273 201 q 189 505 189 382 l 189 505 q 231 719 189 627 q 350 860 273 810 q 529 911 426 911 l 529 911 q 630 896 583 911 q 715 853 677 882 q 779 782 753 824 q 818 686 806 740 l 943 686 l 943 686 q 892 827 929 764 q 801 935 856 890 q 677 1003 746 979 q 529 1026 608 1026 l 529 1026 q 287 960 391 1026 q 124 777 182 895 q 66 505 66 659 l 66 505 q 124 233 66 351 q 287 50 183 116 q 529 -16 391 -16 l 529 -16 m 564 1104 l 694 1305 l 562 1305 l 467 1104 l 564 1104 "},"Ĉ":{"ha":1006,"x_min":66,"x_max":943,"o":"m 529 -16 q 677 8 608 -16 q 801 76 746 31 q 893 183 857 120 q 943 324 930 245 l 818 324 l 818 324 q 779 228 806 270 q 715 157 753 186 q 630 114 677 129 q 529 100 583 100 l 529 100 q 350 150 426 100 q 231 292 273 201 q 189 505 189 382 l 189 505 q 231 719 189 627 q 350 860 273 810 q 529 911 426 911 l 529 911 q 630 896 583 911 q 715 853 677 882 q 779 782 753 824 q 818 686 806 740 l 943 686 l 943 686 q 892 827 929 764 q 801 935 856 890 q 677 1003 746 979 q 529 1026 608 1026 l 529 1026 q 287 960 391 1026 q 124 777 182 895 q 66 505 66 659 l 66 505 q 124 233 66 351 q 287 50 183 116 q 529 -16 391 -16 l 529 -16 m 517 1238 l 614 1120 l 732 1120 l 732 1121 l 574 1305 l 460 1305 l 304 1121 l 304 1120 l 420 1120 l 517 1238 "},"Ċ":{"ha":1006,"x_min":66,"x_max":943,"o":"m 529 -16 q 677 8 608 -16 q 801 76 746 31 q 893 183 857 120 q 943 324 930 245 l 818 324 l 818 324 q 779 228 806 270 q 715 157 753 186 q 630 114 677 129 q 529 100 583 100 l 529 100 q 350 150 426 100 q 231 292 273 201 q 189 505 189 382 l 189 505 q 231 719 189 627 q 350 860 273 810 q 529 911 426 911 l 529 911 q 630 896 583 911 q 715 853 677 882 q 779 782 753 824 q 818 686 806 740 l 943 686 l 943 686 q 892 827 929 764 q 801 935 856 890 q 677 1003 746 979 q 529 1026 608 1026 l 529 1026 q 287 960 391 1026 q 124 777 182 895 q 66 505 66 659 l 66 505 q 124 233 66 351 q 287 50 183 116 q 529 -16 391 -16 l 529 -16 m 518 1147 q 575 1170 551 1147 q 598 1225 598 1193 l 598 1225 q 575 1282 598 1259 q 517 1305 551 1305 l 517 1305 q 461 1282 485 1305 q 438 1225 438 1259 l 438 1225 q 461 1170 438 1193 q 518 1147 485 1147 l 518 1147 "},"Č":{"ha":1006,"x_min":66,"x_max":943,"o":"m 529 -16 q 677 8 608 -16 q 801 76 746 31 q 893 183 857 120 q 943 324 930 245 l 818 324 l 818 324 q 779 228 806 270 q 715 157 753 186 q 630 114 677 129 q 529 100 583 100 l 529 100 q 350 150 426 100 q 231 292 273 201 q 189 505 189 382 l 189 505 q 231 719 189 627 q 350 860 273 810 q 529 911 426 911 l 529 911 q 630 896 583 911 q 715 853 677 882 q 779 782 753 824 q 818 686 806 740 l 943 686 l 943 686 q 892 827 929 764 q 801 935 856 890 q 677 1003 746 979 q 529 1026 608 1026 l 529 1026 q 287 960 391 1026 q 124 777 182 895 q 66 505 66 659 l 66 505 q 124 233 66 351 q 287 50 183 116 q 529 -16 391 -16 l 529 -16 m 304 1305 l 304 1303 l 460 1120 l 574 1120 l 732 1303 l 732 1305 l 614 1305 l 517 1186 l 420 1305 l 304 1305 "},"Ḉ":{"ha":1006,"x_min":66,"x_max":943,"o":"m 529 -16 q 677 8 608 -16 q 801 76 746 31 q 893 183 857 120 q 943 324 930 245 l 818 324 l 818 324 q 779 228 806 270 q 715 157 753 186 q 630 114 677 129 q 529 100 583 100 l 529 100 q 350 150 426 100 q 231 292 273 201 q 189 505 189 382 l 189 505 q 231 719 189 627 q 350 860 273 810 q 529 911 426 911 l 529 911 q 630 896 583 911 q 715 853 677 882 q 779 782 753 824 q 818 686 806 740 l 943 686 l 943 686 q 892 827 929 764 q 801 935 856 890 q 677 1003 746 979 q 529 1026 608 1026 l 529 1026 q 287 960 391 1026 q 124 777 182 895 q 66 505 66 659 l 66 505 q 124 233 66 351 q 287 50 183 116 q 529 -16 391 -16 l 529 -16 m 522 -285 l 522 -285 q 636 -257 595 -285 q 678 -170 678 -229 l 678 -170 q 644 -91 678 -120 q 551 -60 610 -62 l 551 -1 l 551 31 l 487 31 l 467 -125 l 522 -125 l 522 -125 q 573 -136 557 -125 q 589 -170 589 -146 l 589 -170 q 573 -203 589 -193 q 522 -214 557 -214 l 442 -214 l 442 -285 l 522 -285 m 564 1104 l 694 1305 l 562 1305 l 467 1104 l 564 1104 "},"Ȼ":{"ha":1006,"x_min":66,"x_max":943,"o":"m 325 -129 l 774 1138 l 661 1138 l 212 -129 l 325 -129 m 529 -16 q 677 8 608 -16 q 801 76 746 31 q 893 183 857 120 q 943 324 930 245 l 818 324 l 818 324 q 779 228 806 270 q 715 157 753 186 q 630 114 677 129 q 529 100 583 100 l 529 100 q 350 150 426 100 q 231 292 273 201 q 189 505 189 382 l 189 505 q 231 719 189 627 q 350 860 273 810 q 529 911 426 911 l 529 911 q 630 896 583 911 q 715 853 677 882 q 779 782 753 824 q 818 686 806 740 l 943 686 l 943 686 q 892 827 929 764 q 801 935 856 890 q 677 1003 746 979 q 529 1026 608 1026 l 529 1026 q 287 960 391 1026 q 124 777 182 895 q 66 505 66 659 l 66 505 q 124 233 66 351 q 287 50 183 116 q 529 -16 391 -16 l 529 -16 "},"Ɔ":{"ha":1006,"x_min":62,"x_max":940,"o":"m 477 1026 q 329 1003 398 1026 q 204 935 259 979 q 113 828 149 890 q 62 686 76 765 l 187 686 l 187 686 q 227 783 200 741 q 291 853 253 825 q 376 896 329 882 q 477 911 423 911 l 477 911 q 656 861 580 911 q 775 719 732 810 q 817 506 817 628 l 817 506 q 775 292 817 383 q 656 150 732 201 q 477 100 580 100 l 477 100 q 376 114 423 100 q 290 158 328 129 q 226 229 252 186 q 188 325 200 271 l 62 325 l 62 325 q 113 183 77 246 q 204 76 149 121 q 329 8 260 31 q 477 -16 398 -16 l 477 -16 q 719 50 614 -16 q 882 234 823 116 q 940 506 940 352 l 940 506 q 881 777 940 660 q 719 960 823 895 q 477 1026 614 1026 l 477 1026 "},"Ϲ":{"ha":1006,"x_min":66,"x_max":943,"o":"m 529 -16 q 677 8 608 -16 q 801 76 746 31 q 893 183 857 120 q 943 324 930 245 l 818 324 l 818 324 q 779 228 806 270 q 715 157 753 186 q 630 114 677 129 q 529 100 583 100 l 529 100 q 350 150 426 100 q 231 292 273 201 q 189 505 189 382 l 189 505 q 231 719 189 627 q 350 860 273 810 q 529 911 426 911 l 529 911 q 630 896 583 911 q 715 853 677 882 q 779 782 753 824 q 818 686 806 740 l 943 686 l 943 686 q 892 827 929 764 q 801 935 856 890 q 677 1003 746 979 q 529 1026 608 1026 l 529 1026 q 287 960 391 1026 q 124 777 182 895 q 66 505 66 659 l 66 505 q 124 233 66 351 q 287 50 183 116 q 529 -16 391 -16 l 529 -16 "},"D":{"ha":968,"x_min":105,"x_max":902,"o":"m 418 0 q 680 61 572 0 q 845 236 788 122 q 902 507 902 349 l 902 507 q 846 777 902 664 q 684 950 789 890 q 431 1010 578 1010 l 170 1010 l 170 901 l 423 901 l 423 901 q 621 853 541 901 q 740 718 700 806 q 779 507 779 629 l 779 507 q 739 295 779 384 q 616 158 699 205 q 410 110 534 110 l 175 110 l 175 0 l 418 0 l 418 0 m 105 1010 l 105 0 l 229 0 l 229 1010 l 105 1010 "},"Ɗ":{"ha":1158,"x_min":33,"x_max":1092,"o":"m 146 722 l 146 827 l 146 827 q 165 883 146 866 q 229 901 184 901 l 295 901 l 295 1010 l 229 1010 l 229 1010 q 81 966 130 1010 q 33 830 33 921 l 33 722 l 146 722 m 608 0 q 870 61 762 0 q 1035 236 978 122 q 1092 507 1092 349 l 1092 507 q 1036 777 1092 664 q 874 950 979 890 q 621 1010 768 1010 l 359 1010 l 359 901 l 613 901 l 613 901 q 810 853 731 901 q 929 718 890 806 q 969 507 969 629 l 969 507 q 929 295 969 384 q 807 158 888 205 q 600 110 725 110 l 365 110 l 365 0 l 608 0 l 608 0 m 295 1010 l 295 0 l 418 0 l 418 1010 l 295 1010 "},"Ď":{"ha":968,"x_min":105,"x_max":902,"o":"m 418 0 q 680 61 572 0 q 845 236 788 122 q 902 507 902 349 l 902 507 q 846 777 902 664 q 684 950 789 890 q 431 1010 578 1010 l 170 1010 l 170 901 l 423 901 l 423 901 q 621 853 541 901 q 740 718 700 806 q 779 507 779 629 l 779 507 q 739 295 779 384 q 616 158 699 205 q 410 110 534 110 l 175 110 l 175 0 l 418 0 l 418 0 m 105 1010 l 105 0 l 229 0 l 229 1010 l 105 1010 m 188 1305 l 188 1303 l 345 1120 l 458 1120 l 616 1303 l 616 1305 l 498 1305 l 401 1186 l 304 1305 l 188 1305 "},"Ḋ":{"ha":968,"x_min":105,"x_max":902,"o":"m 418 0 q 680 61 572 0 q 845 236 788 122 q 902 507 902 349 l 902 507 q 846 777 902 664 q 684 950 789 890 q 431 1010 578 1010 l 170 1010 l 170 901 l 423 901 l 423 901 q 621 853 541 901 q 740 718 700 806 q 779 507 779 629 l 779 507 q 739 295 779 384 q 616 158 699 205 q 410 110 534 110 l 175 110 l 175 0 l 418 0 l 418 0 m 105 1010 l 105 0 l 229 0 l 229 1010 l 105 1010 m 401 1147 q 458 1170 435 1147 q 481 1225 481 1193 l 481 1225 q 458 1282 481 1259 q 401 1305 435 1305 l 401 1305 q 345 1282 368 1305 q 321 1225 321 1259 l 321 1225 q 345 1170 321 1193 q 401 1147 368 1147 l 401 1147 "},"Ḍ":{"ha":968,"x_min":105,"x_max":902,"o":"m 418 0 q 680 61 572 0 q 845 236 788 122 q 902 507 902 349 l 902 507 q 846 777 902 664 q 684 950 789 890 q 431 1010 578 1010 l 170 1010 l 170 901 l 423 901 l 423 901 q 621 853 541 901 q 740 718 700 806 q 779 507 779 629 l 779 507 q 739 295 779 384 q 616 158 699 205 q 410 110 534 110 l 175 110 l 175 0 l 418 0 l 418 0 m 105 1010 l 105 0 l 229 0 l 229 1010 l 105 1010 m 406 -294 q 463 -271 439 -294 q 486 -216 486 -248 l 486 -216 q 463 -159 486 -182 q 406 -136 439 -136 l 406 -136 q 350 -159 373 -136 q 326 -216 326 -182 l 326 -216 q 350 -271 326 -248 q 406 -294 373 -294 l 406 -294 "},"Ḏ":{"ha":968,"x_min":105,"x_max":902,"o":"m 418 0 q 680 61 572 0 q 845 236 788 122 q 902 507 902 349 l 902 507 q 846 777 902 664 q 684 950 789 890 q 431 1010 578 1010 l 170 1010 l 170 901 l 423 901 l 423 901 q 621 853 541 901 q 740 718 700 806 q 779 507 779 629 l 779 507 q 739 295 779 384 q 616 158 699 205 q 410 110 534 110 l 175 110 l 175 0 l 418 0 l 418 0 m 105 1010 l 105 0 l 229 0 l 229 1010 l 105 1010 m 218 -151 l 218 -246 l 593 -246 l 593 -151 l 218 -151 "},"Ḑ":{"ha":968,"x_min":105,"x_max":902,"o":"m 418 0 q 680 61 572 0 q 845 236 788 122 q 902 507 902 349 l 902 507 q 846 777 902 664 q 684 950 789 890 q 431 1010 578 1010 l 170 1010 l 170 901 l 423 901 l 423 901 q 621 853 541 901 q 740 718 700 806 q 779 507 779 629 l 779 507 q 739 295 779 384 q 616 158 699 205 q 410 110 534 110 l 175 110 l 175 0 l 418 0 l 418 0 m 105 1010 l 105 0 l 229 0 l 229 1010 l 105 1010 m 380 -335 l 465 -80 l 344 -80 l 290 -335 l 380 -335 "},"Ḓ":{"ha":968,"x_min":105,"x_max":902,"o":"m 418 0 q 680 61 572 0 q 845 236 788 122 q 902 507 902 349 l 902 507 q 846 777 902 664 q 684 950 789 890 q 431 1010 578 1010 l 170 1010 l 170 901 l 423 901 l 423 901 q 621 853 541 901 q 740 718 700 806 q 779 507 779 629 l 779 507 q 739 295 779 384 q 616 158 699 205 q 410 110 534 110 l 175 110 l 175 0 l 418 0 l 418 0 m 105 1010 l 105 0 l 229 0 l 229 1010 l 105 1010 m 407 -190 l 503 -309 l 621 -309 l 621 -307 l 463 -123 l 350 -123 l 193 -307 l 193 -309 l 309 -309 l 407 -190 "},"Ɖ":{"ha":1008,"x_min":15,"x_max":942,"o":"m 458 0 q 721 61 613 0 q 886 236 829 122 q 943 507 943 349 l 943 507 q 886 777 943 664 q 725 950 830 890 q 472 1010 619 1010 l 210 1010 l 210 901 l 464 901 l 464 901 q 661 853 582 901 q 780 718 741 806 q 820 507 820 629 l 820 507 q 780 295 820 384 q 657 158 739 205 q 450 110 575 110 l 216 110 l 216 0 l 458 0 l 458 0 m 146 1010 l 146 0 l 269 0 l 269 1010 l 146 1010 m 532 452 l 532 559 l 15 559 l 15 452 l 532 452 "},"ǲ":{"ha":1655,"x_min":105,"x_max":1586,"o":"m 418 0 q 680 61 572 0 q 845 236 788 122 q 902 507 902 349 l 902 507 q 846 777 902 664 q 684 950 789 890 q 431 1010 578 1010 l 170 1010 l 170 901 l 423 901 l 423 901 q 621 853 541 901 q 740 718 700 806 q 779 507 779 629 l 779 507 q 739 295 779 384 q 616 158 699 205 q 410 110 534 110 l 175 110 l 175 0 l 418 0 l 418 0 m 105 1010 l 105 0 l 229 0 l 229 1010 l 105 1010 m 1586 0 l 1586 105 l 1188 105 l 1188 109 l 1581 632 l 1581 726 l 1040 726 l 1040 620 l 1436 620 l 1436 616 l 1036 89 l 1036 0 l 1586 0 "},"ǅ":{"ha":1655,"x_min":105,"x_max":1586,"o":"m 418 0 q 680 61 572 0 q 845 236 788 122 q 902 507 902 349 l 902 507 q 846 777 902 664 q 684 950 789 890 q 431 1010 578 1010 l 170 1010 l 170 901 l 423 901 l 423 901 q 621 853 541 901 q 740 718 700 806 q 779 507 779 629 l 779 507 q 739 295 779 384 q 616 158 699 205 q 410 110 534 110 l 175 110 l 175 0 l 418 0 l 418 0 m 105 1010 l 105 0 l 229 0 l 229 1010 l 105 1010 m 1586 0 l 1586 105 l 1188 105 l 1188 109 l 1581 632 l 1581 726 l 1040 726 l 1040 620 l 1436 620 l 1436 616 l 1036 89 l 1036 0 l 1586 0 m 1095 1021 l 1095 1019 l 1251 835 l 1364 835 l 1522 1019 l 1522 1021 l 1404 1021 l 1308 901 l 1211 1021 l 1095 1021 "},"E":{"ha":812,"x_min":105,"x_max":755,"o":"m 755 0 l 755 110 l 229 110 l 229 461 l 715 461 l 715 570 l 229 570 l 229 901 l 753 901 l 753 1010 l 105 1010 l 105 0 l 755 0 "},"È":{"ha":812,"x_min":105,"x_max":755,"o":"m 755 0 l 755 110 l 229 110 l 229 461 l 715 461 l 715 570 l 229 570 l 229 901 l 753 901 l 753 1010 l 105 1010 l 105 0 l 755 0 m 480 1104 l 385 1305 l 253 1305 l 383 1104 l 480 1104 "},"É":{"ha":812,"x_min":105,"x_max":755,"o":"m 755 0 l 755 110 l 229 110 l 229 461 l 715 461 l 715 570 l 229 570 l 229 901 l 753 901 l 753 1010 l 105 1010 l 105 0 l 755 0 m 475 1104 l 606 1305 l 473 1305 l 378 1104 l 475 1104 "},"Ê":{"ha":812,"x_min":105,"x_max":755,"o":"m 755 0 l 755 110 l 229 110 l 229 461 l 715 461 l 715 570 l 229 570 l 229 901 l 753 901 l 753 1010 l 105 1010 l 105 0 l 755 0 m 429 1238 l 526 1120 l 644 1120 l 644 1121 l 486 1305 l 372 1305 l 216 1121 l 216 1120 l 332 1120 l 429 1238 "},"Ë":{"ha":812,"x_min":105,"x_max":755,"o":"m 755 0 l 755 110 l 229 110 l 229 461 l 715 461 l 715 570 l 229 570 l 229 901 l 753 901 l 753 1010 l 105 1010 l 105 0 l 755 0 m 572 1147 q 628 1170 605 1147 q 651 1225 651 1193 l 651 1225 q 628 1282 651 1259 q 572 1305 605 1305 l 572 1305 q 516 1282 539 1305 q 493 1225 493 1259 l 493 1225 q 516 1170 493 1193 q 572 1147 539 1147 l 572 1147 m 288 1147 q 344 1170 321 1147 q 367 1225 367 1193 l 367 1225 q 344 1282 367 1259 q 288 1305 321 1305 l 288 1305 q 232 1282 256 1305 q 209 1225 209 1259 l 209 1225 q 232 1170 209 1193 q 288 1147 256 1147 l 288 1147 "},"Ē":{"ha":812,"x_min":105,"x_max":755,"o":"m 755 0 l 755 110 l 229 110 l 229 461 l 715 461 l 715 570 l 229 570 l 229 901 l 753 901 l 753 1010 l 105 1010 l 105 0 l 755 0 m 242 1257 l 242 1161 l 616 1161 l 616 1257 l 242 1257 "},"Ĕ":{"ha":812,"x_min":105,"x_max":755,"o":"m 755 0 l 755 110 l 229 110 l 229 461 l 715 461 l 715 570 l 229 570 l 229 901 l 753 901 l 753 1010 l 105 1010 l 105 0 l 755 0 m 429 1115 q 528 1141 484 1115 q 598 1210 572 1166 q 624 1305 624 1253 l 536 1305 l 536 1305 q 506 1229 536 1259 q 430 1200 476 1200 l 430 1200 q 353 1229 383 1200 q 323 1305 323 1259 l 235 1305 l 235 1305 q 261 1209 235 1253 q 331 1140 288 1166 q 429 1115 375 1115 l 429 1115 "},"Ė":{"ha":812,"x_min":105,"x_max":755,"o":"m 755 0 l 755 110 l 229 110 l 229 461 l 715 461 l 715 570 l 229 570 l 229 901 l 753 901 l 753 1010 l 105 1010 l 105 0 l 755 0 m 430 1147 q 487 1170 463 1147 q 510 1225 510 1193 l 510 1225 q 487 1282 510 1259 q 429 1305 463 1305 l 429 1305 q 373 1282 397 1305 q 350 1225 350 1259 l 350 1225 q 373 1170 350 1193 q 430 1147 397 1147 l 430 1147 "},"Ę":{"ha":812,"x_min":105,"x_max":764,"o":"m 755 0 l 755 110 l 229 110 l 229 461 l 715 461 l 715 570 l 229 570 l 229 901 l 753 901 l 753 1010 l 105 1010 l 105 0 l 755 0 m 675 -286 q 722 -284 700 -286 q 765 -279 745 -281 l 755 -182 l 755 -182 q 733 -185 746 -184 q 709 -186 721 -186 l 709 -186 q 664 -174 678 -186 q 650 -138 650 -161 l 650 -138 q 675 -78 650 -108 q 755 0 700 -48 l 677 33 l 677 33 q 568 -58 601 -12 q 534 -158 534 -103 l 534 -158 q 573 -254 534 -221 q 675 -286 612 -286 l 675 -286 "},"Ě":{"ha":812,"x_min":105,"x_max":755,"o":"m 755 0 l 755 110 l 229 110 l 229 461 l 715 461 l 715 570 l 229 570 l 229 901 l 753 901 l 753 1010 l 105 1010 l 105 0 l 755 0 m 216 1305 l 216 1303 l 372 1120 l 486 1120 l 644 1303 l 644 1305 l 526 1305 l 429 1186 l 332 1305 l 216 1305 "},"Ȅ":{"ha":812,"x_min":105,"x_max":755,"o":"m 755 0 l 755 110 l 229 110 l 229 461 l 715 461 l 715 570 l 229 570 l 229 901 l 753 901 l 753 1010 l 105 1010 l 105 0 l 755 0 m 580 1104 l 499 1305 l 367 1305 l 483 1104 l 580 1104 m 380 1104 l 266 1305 l 134 1305 l 281 1104 l 380 1104 "},"Ȇ":{"ha":812,"x_min":105,"x_max":755,"o":"m 755 0 l 755 110 l 229 110 l 229 461 l 715 461 l 715 570 l 229 570 l 229 901 l 753 901 l 753 1010 l 105 1010 l 105 0 l 755 0 m 429 1308 q 328 1283 372 1308 q 258 1215 283 1258 q 233 1120 233 1173 l 321 1120 l 321 1120 q 352 1194 321 1165 q 429 1223 382 1223 l 429 1223 q 507 1194 476 1223 q 538 1120 538 1165 l 626 1120 l 626 1120 q 601 1215 626 1173 q 532 1283 576 1258 q 429 1308 488 1308 l 429 1308 "},"Ȩ":{"ha":812,"x_min":105,"x_max":755,"o":"m 755 0 l 755 110 l 229 110 l 229 461 l 715 461 l 715 570 l 229 570 l 229 901 l 753 901 l 753 1010 l 105 1010 l 105 0 l 755 0 m 440 -283 l 440 -283 q 554 -256 513 -283 q 596 -168 596 -228 l 596 -168 q 562 -90 596 -119 q 469 -58 528 -61 l 469 0 l 469 33 l 405 33 l 385 -123 l 440 -123 l 440 -123 q 491 -134 475 -123 q 507 -168 507 -145 l 507 -168 q 491 -202 507 -191 q 440 -213 475 -213 l 360 -213 l 360 -283 l 440 -283 "},"Ḕ":{"ha":812,"x_min":105,"x_max":755,"o":"m 755 0 l 755 110 l 229 110 l 229 461 l 715 461 l 715 570 l 229 570 l 229 901 l 753 901 l 753 1010 l 105 1010 l 105 0 l 755 0 m 243 1242 l 243 1147 l 617 1147 l 617 1242 l 243 1242 m 481 1330 l 387 1516 l 254 1516 l 385 1330 l 481 1330 "},"Ḗ":{"ha":812,"x_min":105,"x_max":755,"o":"m 755 0 l 755 110 l 229 110 l 229 461 l 715 461 l 715 570 l 229 570 l 229 901 l 753 901 l 753 1010 l 105 1010 l 105 0 l 755 0 m 243 1242 l 243 1147 l 617 1147 l 617 1242 l 243 1242 m 478 1330 l 608 1516 l 476 1516 l 381 1330 l 478 1330 "},"Ḙ":{"ha":812,"x_min":105,"x_max":755,"o":"m 755 0 l 755 110 l 229 110 l 229 461 l 715 461 l 715 570 l 229 570 l 229 901 l 753 901 l 753 1010 l 105 1010 l 105 0 l 755 0 m 431 -190 l 527 -309 l 645 -309 l 645 -307 l 487 -123 l 374 -123 l 217 -307 l 217 -309 l 333 -309 l 431 -190 "},"Ḛ":{"ha":812,"x_min":105,"x_max":755,"o":"m 755 0 l 755 110 l 229 110 l 229 461 l 715 461 l 715 570 l 229 570 l 229 901 l 753 901 l 753 1010 l 105 1010 l 105 0 l 755 0 m 519 -286 q 596 -248 568 -286 q 625 -147 623 -210 l 544 -147 l 544 -147 q 532 -189 541 -176 q 507 -201 524 -201 l 507 -201 q 472 -193 490 -201 q 434 -173 454 -184 q 392 -153 414 -161 q 344 -144 370 -144 l 344 -144 q 264 -184 290 -144 q 236 -283 238 -223 l 320 -283 l 320 -283 q 330 -248 321 -264 q 355 -231 338 -231 l 355 -231 q 386 -239 368 -231 q 425 -258 404 -247 q 471 -277 447 -269 q 519 -286 494 -286 l 519 -286 "},"Ḝ":{"ha":812,"x_min":105,"x_max":755,"o":"m 755 0 l 755 110 l 229 110 l 229 461 l 715 461 l 715 570 l 229 570 l 229 901 l 753 901 l 753 1010 l 105 1010 l 105 0 l 755 0 m 440 -283 l 440 -283 q 554 -256 513 -283 q 596 -168 596 -228 l 596 -168 q 562 -90 596 -119 q 469 -58 528 -61 l 469 0 l 469 33 l 405 33 l 385 -123 l 440 -123 l 440 -123 q 491 -134 475 -123 q 507 -168 507 -145 l 507 -168 q 491 -202 507 -191 q 440 -213 475 -213 l 360 -213 l 360 -283 l 440 -283 m 429 1115 q 528 1141 484 1115 q 598 1210 572 1166 q 624 1305 624 1253 l 536 1305 l 536 1305 q 506 1229 536 1259 q 430 1200 476 1200 l 430 1200 q 353 1229 383 1200 q 323 1305 323 1259 l 235 1305 l 235 1305 q 261 1209 235 1253 q 331 1140 288 1166 q 429 1115 375 1115 l 429 1115 "},"Ẹ":{"ha":812,"x_min":105,"x_max":755,"o":"m 755 0 l 755 110 l 229 110 l 229 461 l 715 461 l 715 570 l 229 570 l 229 901 l 753 901 l 753 1010 l 105 1010 l 105 0 l 755 0 m 430 -294 q 487 -271 463 -294 q 510 -216 510 -248 l 510 -216 q 487 -159 510 -182 q 429 -136 463 -136 l 429 -136 q 373 -159 397 -136 q 350 -216 350 -182 l 350 -216 q 373 -271 350 -248 q 430 -294 397 -294 l 430 -294 "},"Ẻ":{"ha":812,"x_min":105,"x_max":755,"o":"m 755 0 l 755 110 l 229 110 l 229 461 l 715 461 l 715 570 l 229 570 l 229 901 l 753 901 l 753 1010 l 105 1010 l 105 0 l 755 0 m 509 1166 l 509 1166 q 530 1220 528 1195 q 521 1265 533 1246 q 482 1295 509 1284 q 415 1305 455 1305 l 321 1305 l 321 1227 l 415 1227 l 415 1227 q 434 1220 430 1227 q 430 1200 437 1213 l 381 1104 l 471 1104 l 509 1166 "},"Ẽ":{"ha":812,"x_min":105,"x_max":755,"o":"m 755 0 l 755 110 l 229 110 l 229 461 l 715 461 l 715 570 l 229 570 l 229 901 l 753 901 l 753 1010 l 105 1010 l 105 0 l 755 0 m 518 1147 q 595 1185 568 1147 q 625 1285 623 1223 l 543 1285 l 543 1285 q 531 1244 540 1257 q 506 1231 523 1231 l 506 1231 q 471 1239 489 1231 q 433 1259 453 1248 q 391 1279 414 1271 q 343 1288 369 1288 l 343 1288 q 263 1249 290 1288 q 235 1149 237 1209 l 319 1149 l 319 1149 q 329 1185 321 1168 q 354 1202 337 1202 l 354 1202 q 385 1194 367 1202 q 425 1174 403 1185 q 470 1155 446 1163 q 518 1147 494 1147 l 518 1147 "},"Ế":{"ha":812,"x_min":105,"x_max":755,"o":"m 755 0 l 755 110 l 229 110 l 229 461 l 715 461 l 715 570 l 229 570 l 229 901 l 753 901 l 753 1010 l 105 1010 l 105 0 l 755 0 m 431 1221 l 527 1101 l 645 1101 l 645 1103 l 487 1288 l 374 1288 l 217 1103 l 217 1101 l 333 1101 l 431 1221 m 616 1314 l 746 1500 l 614 1500 l 519 1314 l 616 1314 "},"Ề":{"ha":812,"x_min":105,"x_max":755,"o":"m 755 0 l 755 110 l 229 110 l 229 461 l 715 461 l 715 570 l 229 570 l 229 901 l 753 901 l 753 1010 l 105 1010 l 105 0 l 755 0 m 431 1221 l 527 1101 l 645 1101 l 645 1103 l 487 1288 l 374 1288 l 217 1103 l 217 1101 l 333 1101 l 431 1221 m 655 1314 l 560 1500 l 428 1500 l 558 1314 l 655 1314 "},"Ể":{"ha":812,"x_min":105,"x_max":755,"o":"m 755 0 l 755 110 l 229 110 l 229 461 l 715 461 l 715 570 l 229 570 l 229 901 l 753 901 l 753 1010 l 105 1010 l 105 0 l 755 0 m 431 1221 l 527 1101 l 645 1101 l 645 1103 l 487 1288 l 374 1288 l 217 1103 l 217 1101 l 333 1101 l 431 1221 m 640 1360 l 640 1360 q 663 1431 666 1399 q 629 1481 659 1463 q 545 1500 600 1500 l 452 1500 l 452 1422 l 545 1422 l 545 1422 q 564 1415 560 1422 q 561 1394 568 1408 l 518 1314 l 608 1314 l 640 1360 "},"Ễ":{"ha":812,"x_min":105,"x_max":755,"o":"m 755 0 l 755 110 l 229 110 l 229 461 l 715 461 l 715 570 l 229 570 l 229 901 l 753 901 l 753 1010 l 105 1010 l 105 0 l 755 0 m 431 1221 l 527 1101 l 645 1101 l 645 1103 l 487 1288 l 374 1288 l 217 1103 l 217 1101 l 333 1101 l 431 1221 m 519 1339 q 595 1377 568 1339 q 625 1478 623 1415 l 544 1478 l 544 1478 q 532 1436 541 1449 q 507 1423 524 1423 l 507 1423 q 472 1432 490 1423 q 434 1452 454 1440 q 392 1472 414 1463 q 343 1480 370 1480 l 343 1480 q 263 1441 290 1480 q 236 1341 237 1402 l 319 1341 l 319 1341 q 329 1378 321 1361 q 355 1395 338 1395 l 355 1395 q 386 1387 368 1395 q 425 1367 404 1378 q 470 1348 446 1356 q 519 1339 494 1339 l 519 1339 "},"Ệ":{"ha":812,"x_min":105,"x_max":755,"o":"m 755 0 l 755 110 l 229 110 l 229 461 l 715 461 l 715 570 l 229 570 l 229 901 l 753 901 l 753 1010 l 105 1010 l 105 0 l 755 0 m 429 1238 l 526 1120 l 644 1120 l 644 1121 l 486 1305 l 372 1305 l 216 1121 l 216 1120 l 332 1120 l 429 1238 m 430 -294 q 487 -271 463 -294 q 510 -216 510 -248 l 510 -216 q 487 -159 510 -182 q 429 -136 463 -136 l 429 -136 q 373 -159 397 -136 q 350 -216 350 -182 l 350 -216 q 373 -271 350 -248 q 430 -294 397 -294 l 430 -294 "},"Ɇ":{"ha":812,"x_min":105,"x_max":755,"o":"m 314 -129 l 679 1138 l 568 1138 l 201 -129 l 314 -129 m 755 0 l 755 110 l 229 110 l 229 461 l 715 461 l 715 570 l 229 570 l 229 901 l 753 901 l 753 1010 l 105 1010 l 105 0 l 755 0 "},"Ǝ":{"ha":812,"x_min":57,"x_max":707,"o":"m 57 1010 l 57 901 l 583 901 l 583 549 l 96 549 l 96 440 l 583 440 l 583 110 l 58 110 l 58 0 l 707 0 l 707 1010 l 57 1010 "},"Ε":{"ha":812,"x_min":105,"x_max":755,"o":"m 755 0 l 755 110 l 229 110 l 229 461 l 715 461 l 715 570 l 229 570 l 229 901 l 753 901 l 753 1010 l 105 1010 l 105 0 l 755 0 "},"Έ":{"ha":969,"x_min":41,"x_max":912,"o":"m 912 0 l 912 110 l 386 110 l 386 461 l 873 461 l 873 570 l 386 570 l 386 901 l 911 901 l 911 1010 l 262 1010 l 262 0 l 912 0 m 123 809 l 186 1010 l 67 1010 l 41 809 l 123 809 "},"Ἐ":{"ha":1008,"x_min":41,"x_max":951,"o":"m 951 0 l 951 110 l 425 110 l 425 461 l 911 461 l 911 570 l 425 570 l 425 901 l 949 901 l 949 1010 l 301 1010 l 301 0 l 951 0 m 62 810 q 181 840 138 810 q 223 918 223 869 l 223 918 q 181 995 223 967 q 62 1022 138 1022 l 41 1022 l 41 945 l 62 945 l 62 945 q 114 936 96 945 q 132 907 132 926 l 132 907 q 114 874 132 886 q 62 863 96 863 l 55 863 l 55 810 l 62 810 l 62 810 "},"Ἑ":{"ha":1021,"x_min":41,"x_max":964,"o":"m 965 0 l 965 110 l 439 110 l 439 461 l 926 461 l 926 570 l 439 570 l 439 901 l 964 901 l 964 1010 l 315 1010 l 315 0 l 965 0 m 210 801 l 210 854 l 202 854 l 202 854 q 151 865 169 854 q 133 899 133 877 l 133 899 q 151 927 133 917 q 202 937 169 937 l 223 937 l 223 1013 l 202 1013 l 202 1013 q 84 986 127 1013 q 41 909 41 958 l 41 909 q 84 831 41 861 q 202 801 127 801 l 210 801 "},"Ἒ":{"ha":1192,"x_min":41,"x_max":1135,"o":"m 1135 0 l 1135 110 l 609 110 l 609 461 l 1096 461 l 1096 570 l 609 570 l 609 901 l 1134 901 l 1134 1010 l 486 1010 l 486 0 l 1135 0 m 62 801 q 181 831 138 801 q 223 909 223 861 l 223 909 q 181 986 223 958 q 62 1013 138 1013 l 41 1013 l 41 937 l 62 937 l 62 937 q 114 927 96 937 q 132 899 132 917 l 132 899 q 114 865 132 877 q 62 854 96 854 l 55 854 l 55 801 l 62 801 l 62 801 m 361 1010 l 245 1010 l 306 803 l 387 803 l 361 1010 "},"Ἓ":{"ha":1200,"x_min":41,"x_max":1142,"o":"m 1143 0 l 1143 110 l 616 110 l 616 461 l 1103 461 l 1103 570 l 616 570 l 616 901 l 1141 901 l 1141 1010 l 493 1010 l 493 0 l 1143 0 m 210 801 l 210 854 l 202 854 l 202 854 q 151 865 169 854 q 133 899 133 877 l 133 899 q 151 927 133 917 q 202 937 169 937 l 223 937 l 223 1013 l 202 1013 l 202 1013 q 84 986 127 1013 q 41 909 41 958 l 41 909 q 84 831 41 861 q 202 801 127 801 l 210 801 m 380 1010 l 264 1010 l 326 803 l 406 803 l 380 1010 "},"Ἔ":{"ha":1200,"x_min":41,"x_max":1143,"o":"m 1144 0 l 1144 110 l 618 110 l 618 461 l 1105 461 l 1105 570 l 618 570 l 618 901 l 1143 901 l 1143 1010 l 494 1010 l 494 0 l 1144 0 m 62 801 q 181 831 138 801 q 223 909 223 861 l 223 909 q 181 986 223 958 q 62 1013 138 1013 l 41 1013 l 41 937 l 62 937 l 62 937 q 114 927 96 937 q 132 899 132 917 l 132 899 q 114 865 132 877 q 62 854 96 854 l 55 854 l 55 801 l 62 801 l 62 801 m 366 803 l 427 1010 l 311 1010 l 285 803 l 366 803 "},"Ἕ":{"ha":1206,"x_min":41,"x_max":1149,"o":"m 1149 0 l 1149 110 l 623 110 l 623 461 l 1110 461 l 1110 570 l 623 570 l 623 901 l 1148 901 l 1148 1010 l 500 1010 l 500 0 l 1149 0 m 210 801 l 210 854 l 202 854 l 202 854 q 151 865 169 854 q 133 899 133 877 l 133 899 q 151 927 133 917 q 202 937 169 937 l 223 937 l 223 1013 l 202 1013 l 202 1013 q 84 986 127 1013 q 41 909 41 958 l 41 909 q 84 831 41 861 q 202 801 127 801 l 210 801 m 365 803 l 425 1010 l 309 1010 l 284 803 l 365 803 "},"Ὲ":{"ha":1008,"x_min":-27,"x_max":950,"o":"m 951 0 l 951 110 l 425 110 l 425 461 l 911 461 l 911 570 l 425 570 l 425 901 l 949 901 l 949 1010 l 301 1010 l 301 0 l 951 0 m 92 1021 l -27 1021 l 35 819 l 117 819 l 92 1021 "},"Έ":{"ha":969,"x_min":41,"x_max":912,"o":"m 912 0 l 912 110 l 386 110 l 386 461 l 873 461 l 873 570 l 386 570 l 386 901 l 911 901 l 911 1010 l 262 1010 l 262 0 l 912 0 m 123 809 l 186 1010 l 67 1010 l 41 809 l 123 809 "},"Е":{"ha":812,"x_min":105,"x_max":755,"o":"m 755 0 l 755 110 l 229 110 l 229 461 l 715 461 l 715 570 l 229 570 l 229 901 l 753 901 l 753 1010 l 105 1010 l 105 0 l 755 0 "},"Ѐ":{"ha":812,"x_min":105,"x_max":755,"o":"m 755 0 l 755 110 l 229 110 l 229 461 l 715 461 l 715 570 l 229 570 l 229 901 l 753 901 l 753 1010 l 105 1010 l 105 0 l 755 0 m 480 1104 l 385 1305 l 253 1305 l 383 1104 l 480 1104 "},"Ё":{"ha":812,"x_min":105,"x_max":755,"o":"m 755 0 l 755 110 l 229 110 l 229 461 l 715 461 l 715 570 l 229 570 l 229 901 l 753 901 l 753 1010 l 105 1010 l 105 0 l 755 0 m 572 1147 q 628 1170 605 1147 q 651 1225 651 1193 l 651 1225 q 628 1282 651 1259 q 572 1305 605 1305 l 572 1305 q 516 1282 539 1305 q 493 1225 493 1259 l 493 1225 q 516 1170 493 1193 q 572 1147 539 1147 l 572 1147 m 288 1147 q 344 1170 321 1147 q 367 1225 367 1193 l 367 1225 q 344 1282 367 1259 q 288 1305 321 1305 l 288 1305 q 232 1282 256 1305 q 209 1225 209 1259 l 209 1225 q 232 1170 209 1193 q 288 1147 256 1147 l 288 1147 "},"Ӗ":{"ha":812,"x_min":105,"x_max":755,"o":"m 755 0 l 755 110 l 229 110 l 229 461 l 715 461 l 715 570 l 229 570 l 229 901 l 753 901 l 753 1010 l 105 1010 l 105 0 l 755 0 m 429 1115 q 528 1141 484 1115 q 598 1210 572 1166 q 624 1305 624 1253 l 536 1305 l 536 1305 q 506 1229 536 1259 q 430 1200 476 1200 l 430 1200 q 353 1229 383 1200 q 323 1305 323 1259 l 235 1305 l 235 1305 q 261 1209 235 1253 q 331 1140 288 1166 q 429 1115 375 1115 l 429 1115 "},"F":{"ha":781,"x_min":105,"x_max":735,"o":"m 229 0 l 229 457 l 693 457 l 693 567 l 229 567 l 229 901 l 735 901 l 735 1010 l 105 1010 l 105 0 l 229 0 "},"Ƒ":{"ha":781,"x_min":-39,"x_max":735,"o":"m -39 -283 q -6 -284 -25 -284 q 35 -285 12 -285 l 35 -285 q 179 -241 130 -285 q 229 -115 229 -198 l 229 87 l 105 87 l 105 -110 l 105 -110 q 87 -162 105 -146 q 23 -178 69 -178 l 23 -178 q -7 -178 14 -178 q -39 -177 -28 -178 l -39 -283 l -39 -283 m 229 0 l 229 457 l 693 457 l 693 567 l 229 567 l 229 901 l 735 901 l 735 1010 l 105 1010 l 105 0 l 229 0 "},"Ḟ":{"ha":781,"x_min":105,"x_max":735,"o":"m 229 0 l 229 457 l 693 457 l 693 567 l 229 567 l 229 901 l 735 901 l 735 1010 l 105 1010 l 105 0 l 229 0 m 420 1147 q 477 1170 454 1147 q 500 1225 500 1193 l 500 1225 q 477 1282 500 1259 q 420 1305 454 1305 l 420 1305 q 364 1282 387 1305 q 340 1225 340 1259 l 340 1225 q 364 1170 340 1193 q 420 1147 387 1147 l 420 1147 "},"Ⅎ":{"ha":781,"x_min":45,"x_max":675,"o":"m 552 1010 l 552 553 l 87 553 l 87 444 l 552 444 l 552 110 l 45 110 l 45 0 l 675 0 l 675 1010 l 552 1010 "},"G":{"ha":1019,"x_min":66,"x_max":949,"o":"m 526 -16 q 742 38 646 -16 q 893 184 838 91 q 949 396 949 277 l 949 506 l 564 506 l 564 397 l 867 397 l 827 399 l 827 399 q 787 242 827 310 q 679 137 747 175 q 526 100 610 100 l 526 100 q 350 150 427 100 q 231 292 274 201 q 189 505 189 382 l 189 505 q 231 719 189 627 q 350 860 274 810 q 524 911 426 911 l 524 911 q 627 895 579 911 q 713 849 675 879 q 779 778 752 819 q 817 686 805 736 l 943 686 l 943 686 q 893 823 930 761 q 800 931 856 886 q 674 1001 745 977 q 524 1026 604 1026 l 524 1026 q 287 960 391 1026 q 125 777 184 895 q 66 505 66 659 l 66 505 q 125 234 66 351 q 288 50 184 116 q 526 -16 391 -16 l 526 -16 "},"Ǥ":{"ha":1019,"x_min":66,"x_max":998,"o":"m 526 -16 q 742 38 646 -16 q 893 184 838 91 q 949 396 949 277 l 949 506 l 564 506 l 564 397 l 867 397 l 827 399 l 827 399 q 787 242 827 310 q 679 137 747 175 q 526 100 610 100 l 526 100 q 350 150 427 100 q 231 292 274 201 q 189 505 189 382 l 189 505 q 231 719 189 627 q 350 860 274 810 q 524 911 426 911 l 524 911 q 627 895 579 911 q 713 849 675 879 q 779 778 752 819 q 817 686 805 736 l 943 686 l 943 686 q 893 823 930 761 q 800 931 856 886 q 674 1001 745 977 q 524 1026 604 1026 l 524 1026 q 287 960 391 1026 q 125 777 184 895 q 66 505 66 659 l 66 505 q 125 234 66 351 q 288 50 184 116 q 526 -16 391 -16 l 526 -16 m 998 218 l 998 315 l 564 315 l 564 218 l 998 218 "},"Ɠ":{"ha":1019,"x_min":66,"x_max":1091,"o":"m 943 686 l 943 968 l 943 968 q 963 1020 943 1004 q 1029 1036 983 1036 l 1029 1036 q 1060 1036 1040 1036 q 1091 1036 1080 1036 l 1091 1137 l 1091 1137 q 1062 1138 1078 1137 q 1023 1138 1046 1138 l 1023 1138 q 879 1095 928 1138 q 829 968 829 1052 l 829 686 l 943 686 m 526 -16 q 742 38 646 -16 q 893 184 838 91 q 949 396 949 277 l 949 506 l 564 506 l 564 397 l 867 397 l 827 399 l 827 399 q 787 242 827 310 q 679 137 747 175 q 526 100 610 100 l 526 100 q 350 150 427 100 q 231 292 274 201 q 189 505 189 382 l 189 505 q 231 719 189 627 q 350 860 274 810 q 524 911 426 911 l 524 911 q 627 895 579 911 q 713 849 675 879 q 779 778 752 819 q 817 686 805 736 l 943 686 l 943 686 q 893 823 930 761 q 800 931 856 886 q 674 1001 745 977 q 524 1026 604 1026 l 524 1026 q 287 960 391 1026 q 125 777 184 895 q 66 505 66 659 l 66 505 q 125 234 66 351 q 288 50 184 116 q 526 -16 391 -16 l 526 -16 "},"Ĝ":{"ha":1019,"x_min":66,"x_max":949,"o":"m 526 -16 q 742 38 646 -16 q 893 184 838 91 q 949 396 949 277 l 949 506 l 564 506 l 564 397 l 867 397 l 827 399 l 827 399 q 787 242 827 310 q 679 137 747 175 q 526 100 610 100 l 526 100 q 350 150 427 100 q 231 292 274 201 q 189 505 189 382 l 189 505 q 231 719 189 627 q 350 860 274 810 q 524 911 426 911 l 524 911 q 627 895 579 911 q 713 849 675 879 q 779 778 752 819 q 817 686 805 736 l 943 686 l 943 686 q 893 823 930 761 q 800 931 856 886 q 674 1001 745 977 q 524 1026 604 1026 l 524 1026 q 287 960 391 1026 q 125 777 184 895 q 66 505 66 659 l 66 505 q 125 234 66 351 q 288 50 184 116 q 526 -16 391 -16 l 526 -16 m 517 1238 l 613 1120 l 731 1120 l 731 1121 l 573 1305 l 460 1305 l 303 1121 l 303 1120 l 419 1120 l 517 1238 "},"Ğ":{"ha":1019,"x_min":66,"x_max":949,"o":"m 526 -16 q 742 38 646 -16 q 893 184 838 91 q 949 396 949 277 l 949 506 l 564 506 l 564 397 l 867 397 l 827 399 l 827 399 q 787 242 827 310 q 679 137 747 175 q 526 100 610 100 l 526 100 q 350 150 427 100 q 231 292 274 201 q 189 505 189 382 l 189 505 q 231 719 189 627 q 350 860 274 810 q 524 911 426 911 l 524 911 q 627 895 579 911 q 713 849 675 879 q 779 778 752 819 q 817 686 805 736 l 943 686 l 943 686 q 893 823 930 761 q 800 931 856 886 q 674 1001 745 977 q 524 1026 604 1026 l 524 1026 q 287 960 391 1026 q 125 777 184 895 q 66 505 66 659 l 66 505 q 125 234 66 351 q 288 50 184 116 q 526 -16 391 -16 l 526 -16 m 517 1115 q 616 1141 572 1115 q 686 1210 660 1166 q 711 1305 711 1253 l 624 1305 l 624 1305 q 594 1229 624 1259 q 517 1200 564 1200 l 517 1200 q 440 1229 471 1200 q 410 1305 410 1259 l 323 1305 l 323 1305 q 349 1209 323 1253 q 419 1140 375 1166 q 517 1115 463 1115 l 517 1115 "},"Ġ":{"ha":1019,"x_min":66,"x_max":949,"o":"m 526 -16 q 742 38 646 -16 q 893 184 838 91 q 949 396 949 277 l 949 506 l 564 506 l 564 397 l 867 397 l 827 399 l 827 399 q 787 242 827 310 q 679 137 747 175 q 526 100 610 100 l 526 100 q 350 150 427 100 q 231 292 274 201 q 189 505 189 382 l 189 505 q 231 719 189 627 q 350 860 274 810 q 524 911 426 911 l 524 911 q 627 895 579 911 q 713 849 675 879 q 779 778 752 819 q 817 686 805 736 l 943 686 l 943 686 q 893 823 930 761 q 800 931 856 886 q 674 1001 745 977 q 524 1026 604 1026 l 524 1026 q 287 960 391 1026 q 125 777 184 895 q 66 505 66 659 l 66 505 q 125 234 66 351 q 288 50 184 116 q 526 -16 391 -16 l 526 -16 m 517 1147 q 573 1170 550 1147 q 597 1225 597 1193 l 597 1225 q 573 1282 597 1259 q 516 1305 550 1305 l 516 1305 q 460 1282 484 1305 q 437 1225 437 1259 l 437 1225 q 460 1170 437 1193 q 517 1147 484 1147 l 517 1147 "},"Ģ":{"ha":1019,"x_min":66,"x_max":949,"o":"m 526 -16 q 742 38 646 -16 q 893 184 838 91 q 949 396 949 277 l 949 506 l 564 506 l 564 397 l 867 397 l 827 399 l 827 399 q 787 242 827 310 q 679 137 747 175 q 526 100 610 100 l 526 100 q 350 150 427 100 q 231 292 274 201 q 189 505 189 382 l 189 505 q 231 719 189 627 q 350 860 274 810 q 524 911 426 911 l 524 911 q 627 895 579 911 q 713 849 675 879 q 779 778 752 819 q 817 686 805 736 l 943 686 l 943 686 q 893 823 930 761 q 800 931 856 886 q 674 1001 745 977 q 524 1026 604 1026 l 524 1026 q 287 960 391 1026 q 125 777 184 895 q 66 505 66 659 l 66 505 q 125 234 66 351 q 288 50 184 116 q 526 -16 391 -16 l 526 -16 m 490 -335 l 575 -80 l 454 -80 l 400 -335 l 490 -335 "},"Ǧ":{"ha":1019,"x_min":66,"x_max":949,"o":"m 526 -16 q 742 38 646 -16 q 893 184 838 91 q 949 396 949 277 l 949 506 l 564 506 l 564 397 l 867 397 l 827 399 l 827 399 q 787 242 827 310 q 679 137 747 175 q 526 100 610 100 l 526 100 q 350 150 427 100 q 231 292 274 201 q 189 505 189 382 l 189 505 q 231 719 189 627 q 350 860 274 810 q 524 911 426 911 l 524 911 q 627 895 579 911 q 713 849 675 879 q 779 778 752 819 q 817 686 805 736 l 943 686 l 943 686 q 893 823 930 761 q 800 931 856 886 q 674 1001 745 977 q 524 1026 604 1026 l 524 1026 q 287 960 391 1026 q 125 777 184 895 q 66 505 66 659 l 66 505 q 125 234 66 351 q 288 50 184 116 q 526 -16 391 -16 l 526 -16 m 303 1305 l 303 1303 l 460 1120 l 573 1120 l 731 1303 l 731 1305 l 613 1305 l 517 1186 l 419 1305 l 303 1305 "},"Ǵ":{"ha":1019,"x_min":66,"x_max":949,"o":"m 526 -16 q 742 38 646 -16 q 893 184 838 91 q 949 396 949 277 l 949 506 l 564 506 l 564 397 l 867 397 l 827 399 l 827 399 q 787 242 827 310 q 679 137 747 175 q 526 100 610 100 l 526 100 q 350 150 427 100 q 231 292 274 201 q 189 505 189 382 l 189 505 q 231 719 189 627 q 350 860 274 810 q 524 911 426 911 l 524 911 q 627 895 579 911 q 713 849 675 879 q 779 778 752 819 q 817 686 805 736 l 943 686 l 943 686 q 893 823 930 761 q 800 931 856 886 q 674 1001 745 977 q 524 1026 604 1026 l 524 1026 q 287 960 391 1026 q 125 777 184 895 q 66 505 66 659 l 66 505 q 125 234 66 351 q 288 50 184 116 q 526 -16 391 -16 l 526 -16 m 563 1104 l 693 1305 l 561 1305 l 466 1104 l 563 1104 "},"Ḡ":{"ha":1019,"x_min":66,"x_max":949,"o":"m 526 -16 q 742 38 646 -16 q 893 184 838 91 q 949 396 949 277 l 949 506 l 564 506 l 564 397 l 867 397 l 827 399 l 827 399 q 787 242 827 310 q 679 137 747 175 q 526 100 610 100 l 526 100 q 350 150 427 100 q 231 292 274 201 q 189 505 189 382 l 189 505 q 231 719 189 627 q 350 860 274 810 q 524 911 426 911 l 524 911 q 627 895 579 911 q 713 849 675 879 q 779 778 752 819 q 817 686 805 736 l 943 686 l 943 686 q 893 823 930 761 q 800 931 856 886 q 674 1001 745 977 q 524 1026 604 1026 l 524 1026 q 287 960 391 1026 q 125 777 184 895 q 66 505 66 659 l 66 505 q 125 234 66 351 q 288 50 184 116 q 526 -16 391 -16 l 526 -16 m 330 1257 l 330 1161 l 704 1161 l 704 1257 l 330 1257 "},"":{"ha":1036,"x_min":66,"x_max":950,"o":"m 523 -16 q 682 14 614 -16 q 796 94 750 44 q 865 206 842 144 q 888 334 888 269 l 888 414 l 831 414 l 831 414 q 790 246 831 317 q 681 138 749 176 q 526 100 612 100 l 526 100 q 350 150 427 100 q 231 292 274 201 q 189 505 189 382 l 189 505 q 231 719 189 627 q 350 860 274 810 q 524 911 426 911 l 524 911 q 627 895 579 911 q 713 849 675 879 q 779 778 752 819 q 817 686 805 736 l 943 686 l 943 686 q 893 823 930 761 q 800 931 856 886 q 674 1001 745 977 q 524 1026 604 1026 l 524 1026 q 287 960 391 1026 q 125 777 184 895 q 66 505 66 659 l 66 505 q 125 234 66 351 q 287 50 184 116 q 523 -16 390 -16 l 523 -16 m 950 0 l 950 506 l 564 506 l 564 397 l 831 397 l 831 203 l 852 0 l 950 0 "},"":{"ha":1036,"x_min":66,"x_max":998,"o":"m 523 -16 q 682 14 614 -16 q 796 94 750 44 q 865 206 842 144 q 888 334 888 269 l 888 414 l 831 414 l 831 414 q 790 246 831 317 q 681 138 749 176 q 526 100 612 100 l 526 100 q 350 150 427 100 q 231 292 274 201 q 189 505 189 382 l 189 505 q 231 719 189 627 q 350 860 274 810 q 524 911 426 911 l 524 911 q 627 895 579 911 q 713 849 675 879 q 779 778 752 819 q 817 686 805 736 l 943 686 l 943 686 q 893 823 930 761 q 800 931 856 886 q 674 1001 745 977 q 524 1026 604 1026 l 524 1026 q 287 960 391 1026 q 125 777 184 895 q 66 505 66 659 l 66 505 q 125 234 66 351 q 287 50 184 116 q 523 -16 390 -16 l 523 -16 m 950 0 l 950 506 l 564 506 l 564 397 l 831 397 l 831 203 l 852 0 l 950 0 m 998 218 l 998 315 l 564 315 l 564 218 l 998 218 "},"":{"ha":1036,"x_min":66,"x_max":1091,"o":"m 943 686 l 943 968 l 943 968 q 963 1020 943 1004 q 1029 1036 983 1036 l 1029 1036 q 1060 1036 1040 1036 q 1091 1036 1080 1036 l 1091 1137 l 1091 1137 q 1062 1138 1078 1137 q 1023 1138 1046 1138 l 1023 1138 q 879 1095 928 1138 q 829 968 829 1052 l 829 686 l 943 686 m 523 -16 q 682 14 614 -16 q 796 94 750 44 q 865 206 842 144 q 888 334 888 269 l 888 414 l 831 414 l 831 414 q 790 246 831 317 q 681 138 749 176 q 526 100 612 100 l 526 100 q 350 150 427 100 q 231 292 274 201 q 189 505 189 382 l 189 505 q 231 719 189 627 q 350 860 274 810 q 524 911 426 911 l 524 911 q 627 895 579 911 q 713 849 675 879 q 779 778 752 819 q 817 686 805 736 l 943 686 l 943 686 q 893 823 930 761 q 800 931 856 886 q 674 1001 745 977 q 524 1026 604 1026 l 524 1026 q 287 960 391 1026 q 125 777 184 895 q 66 505 66 659 l 66 505 q 125 234 66 351 q 287 50 184 116 q 523 -16 390 -16 l 523 -16 m 950 0 l 950 506 l 564 506 l 564 397 l 831 397 l 831 203 l 852 0 l 950 0 "},"":{"ha":1036,"x_min":66,"x_max":950,"o":"m 523 -16 q 682 14 614 -16 q 796 94 750 44 q 865 206 842 144 q 888 334 888 269 l 888 414 l 831 414 l 831 414 q 790 246 831 317 q 681 138 749 176 q 526 100 612 100 l 526 100 q 350 150 427 100 q 231 292 274 201 q 189 505 189 382 l 189 505 q 231 719 189 627 q 350 860 274 810 q 524 911 426 911 l 524 911 q 627 895 579 911 q 713 849 675 879 q 779 778 752 819 q 817 686 805 736 l 943 686 l 943 686 q 893 823 930 761 q 800 931 856 886 q 674 1001 745 977 q 524 1026 604 1026 l 524 1026 q 287 960 391 1026 q 125 777 184 895 q 66 505 66 659 l 66 505 q 125 234 66 351 q 287 50 184 116 q 523 -16 390 -16 l 523 -16 m 950 0 l 950 506 l 564 506 l 564 397 l 831 397 l 831 203 l 852 0 l 950 0 m 518 1238 l 614 1120 l 732 1120 l 732 1121 l 574 1305 l 461 1305 l 304 1121 l 304 1120 l 420 1120 l 518 1238 "},"":{"ha":1036,"x_min":66,"x_max":950,"o":"m 523 -16 q 682 14 614 -16 q 796 94 750 44 q 865 206 842 144 q 888 334 888 269 l 888 414 l 831 414 l 831 414 q 790 246 831 317 q 681 138 749 176 q 526 100 612 100 l 526 100 q 350 150 427 100 q 231 292 274 201 q 189 505 189 382 l 189 505 q 231 719 189 627 q 350 860 274 810 q 524 911 426 911 l 524 911 q 627 895 579 911 q 713 849 675 879 q 779 778 752 819 q 817 686 805 736 l 943 686 l 943 686 q 893 823 930 761 q 800 931 856 886 q 674 1001 745 977 q 524 1026 604 1026 l 524 1026 q 287 960 391 1026 q 125 777 184 895 q 66 505 66 659 l 66 505 q 125 234 66 351 q 287 50 184 116 q 523 -16 390 -16 l 523 -16 m 950 0 l 950 506 l 564 506 l 564 397 l 831 397 l 831 203 l 852 0 l 950 0 m 517 1115 q 616 1141 572 1115 q 686 1210 661 1166 q 712 1305 712 1253 l 625 1305 l 625 1305 q 594 1229 625 1259 q 518 1200 564 1200 l 518 1200 q 441 1229 471 1200 q 411 1305 411 1259 l 323 1305 l 323 1305 q 350 1209 323 1253 q 419 1140 376 1166 q 517 1115 463 1115 l 517 1115 "},"":{"ha":1036,"x_min":66,"x_max":950,"o":"m 523 -16 q 682 14 614 -16 q 796 94 750 44 q 865 206 842 144 q 888 334 888 269 l 888 414 l 831 414 l 831 414 q 790 246 831 317 q 681 138 749 176 q 526 100 612 100 l 526 100 q 350 150 427 100 q 231 292 274 201 q 189 505 189 382 l 189 505 q 231 719 189 627 q 350 860 274 810 q 524 911 426 911 l 524 911 q 627 895 579 911 q 713 849 675 879 q 779 778 752 819 q 817 686 805 736 l 943 686 l 943 686 q 893 823 930 761 q 800 931 856 886 q 674 1001 745 977 q 524 1026 604 1026 l 524 1026 q 287 960 391 1026 q 125 777 184 895 q 66 505 66 659 l 66 505 q 125 234 66 351 q 287 50 184 116 q 523 -16 390 -16 l 523 -16 m 950 0 l 950 506 l 564 506 l 564 397 l 831 397 l 831 203 l 852 0 l 950 0 m 518 1147 q 575 1170 551 1147 q 598 1225 598 1193 l 598 1225 q 575 1282 598 1259 q 517 1305 551 1305 l 517 1305 q 461 1282 485 1305 q 438 1225 438 1259 l 438 1225 q 461 1170 438 1193 q 518 1147 485 1147 l 518 1147 "},"":{"ha":1036,"x_min":66,"x_max":950,"o":"m 523 -16 q 682 14 614 -16 q 796 94 750 44 q 865 206 842 144 q 888 334 888 269 l 888 414 l 831 414 l 831 414 q 790 246 831 317 q 681 138 749 176 q 526 100 612 100 l 526 100 q 350 150 427 100 q 231 292 274 201 q 189 505 189 382 l 189 505 q 231 719 189 627 q 350 860 274 810 q 524 911 426 911 l 524 911 q 627 895 579 911 q 713 849 675 879 q 779 778 752 819 q 817 686 805 736 l 943 686 l 943 686 q 893 823 930 761 q 800 931 856 886 q 674 1001 745 977 q 524 1026 604 1026 l 524 1026 q 287 960 391 1026 q 125 777 184 895 q 66 505 66 659 l 66 505 q 125 234 66 351 q 287 50 184 116 q 523 -16 390 -16 l 523 -16 m 950 0 l 950 506 l 564 506 l 564 397 l 831 397 l 831 203 l 852 0 l 950 0 m 492 -335 l 576 -80 l 456 -80 l 401 -335 l 492 -335 "},"":{"ha":1036,"x_min":66,"x_max":950,"o":"m 523 -16 q 682 14 614 -16 q 796 94 750 44 q 865 206 842 144 q 888 334 888 269 l 888 414 l 831 414 l 831 414 q 790 246 831 317 q 681 138 749 176 q 526 100 612 100 l 526 100 q 350 150 427 100 q 231 292 274 201 q 189 505 189 382 l 189 505 q 231 719 189 627 q 350 860 274 810 q 524 911 426 911 l 524 911 q 627 895 579 911 q 713 849 675 879 q 779 778 752 819 q 817 686 805 736 l 943 686 l 943 686 q 893 823 930 761 q 800 931 856 886 q 674 1001 745 977 q 524 1026 604 1026 l 524 1026 q 287 960 391 1026 q 125 777 184 895 q 66 505 66 659 l 66 505 q 125 234 66 351 q 287 50 184 116 q 523 -16 390 -16 l 523 -16 m 950 0 l 950 506 l 564 506 l 564 397 l 831 397 l 831 203 l 852 0 l 950 0 m 304 1305 l 304 1303 l 461 1120 l 574 1120 l 732 1303 l 732 1305 l 614 1305 l 518 1186 l 420 1305 l 304 1305 "},"":{"ha":1036,"x_min":66,"x_max":950,"o":"m 523 -16 q 682 14 614 -16 q 796 94 750 44 q 865 206 842 144 q 888 334 888 269 l 888 414 l 831 414 l 831 414 q 790 246 831 317 q 681 138 749 176 q 526 100 612 100 l 526 100 q 350 150 427 100 q 231 292 274 201 q 189 505 189 382 l 189 505 q 231 719 189 627 q 350 860 274 810 q 524 911 426 911 l 524 911 q 627 895 579 911 q 713 849 675 879 q 779 778 752 819 q 817 686 805 736 l 943 686 l 943 686 q 893 823 930 761 q 800 931 856 886 q 674 1001 745 977 q 524 1026 604 1026 l 524 1026 q 287 960 391 1026 q 125 777 184 895 q 66 505 66 659 l 66 505 q 125 234 66 351 q 287 50 184 116 q 523 -16 390 -16 l 523 -16 m 950 0 l 950 506 l 564 506 l 564 397 l 831 397 l 831 203 l 852 0 l 950 0 m 564 1104 l 694 1305 l 562 1305 l 467 1104 l 564 1104 "},"":{"ha":1036,"x_min":66,"x_max":950,"o":"m 523 -16 q 682 14 614 -16 q 796 94 750 44 q 865 206 842 144 q 888 334 888 269 l 888 414 l 831 414 l 831 414 q 790 246 831 317 q 681 138 749 176 q 526 100 612 100 l 526 100 q 350 150 427 100 q 231 292 274 201 q 189 505 189 382 l 189 505 q 231 719 189 627 q 350 860 274 810 q 524 911 426 911 l 524 911 q 627 895 579 911 q 713 849 675 879 q 779 778 752 819 q 817 686 805 736 l 943 686 l 943 686 q 893 823 930 761 q 800 931 856 886 q 674 1001 745 977 q 524 1026 604 1026 l 524 1026 q 287 960 391 1026 q 125 777 184 895 q 66 505 66 659 l 66 505 q 125 234 66 351 q 287 50 184 116 q 523 -16 390 -16 l 523 -16 m 950 0 l 950 506 l 564 506 l 564 397 l 831 397 l 831 203 l 852 0 l 950 0 m 331 1257 l 331 1161 l 705 1161 l 705 1257 l 331 1257 "},"H":{"ha":994,"x_min":105,"x_max":889,"o":"m 229 0 l 229 463 l 766 463 l 766 0 l 889 0 l 889 1010 l 766 1010 l 766 572 l 229 572 l 229 1010 l 105 1010 l 105 0 l 229 0 "},"Ḩ":{"ha":994,"x_min":92,"x_max":889,"o":"m 229 0 l 229 463 l 766 463 l 766 0 l 889 0 l 889 1010 l 766 1010 l 766 572 l 229 572 l 229 1010 l 105 1010 l 105 0 l 229 0 m 172 -283 l 172 -283 q 286 -256 244 -283 q 328 -168 328 -228 l 328 -168 q 294 -90 328 -119 q 200 -58 260 -61 l 200 0 l 200 33 l 136 33 l 116 -123 l 172 -123 l 172 -123 q 222 -134 206 -123 q 238 -168 238 -145 l 238 -168 q 222 -202 238 -191 q 172 -213 206 -213 l 92 -213 l 92 -283 l 172 -283 "},"Ĥ":{"ha":994,"x_min":105,"x_max":889,"o":"m 229 0 l 229 463 l 766 463 l 766 0 l 889 0 l 889 1010 l 766 1010 l 766 572 l 229 572 l 229 1010 l 105 1010 l 105 0 l 229 0 m 497 1238 l 593 1120 l 711 1120 l 711 1121 l 553 1305 l 440 1305 l 283 1121 l 283 1120 l 399 1120 l 497 1238 "},"Ȟ":{"ha":994,"x_min":105,"x_max":889,"o":"m 229 0 l 229 463 l 766 463 l 766 0 l 889 0 l 889 1010 l 766 1010 l 766 572 l 229 572 l 229 1010 l 105 1010 l 105 0 l 229 0 m 283 1305 l 283 1303 l 440 1120 l 553 1120 l 711 1303 l 711 1305 l 593 1305 l 497 1186 l 399 1305 l 283 1305 "},"Ḣ":{"ha":994,"x_min":105,"x_max":889,"o":"m 229 0 l 229 463 l 766 463 l 766 0 l 889 0 l 889 1010 l 766 1010 l 766 572 l 229 572 l 229 1010 l 105 1010 l 105 0 l 229 0 m 497 1147 q 554 1170 530 1147 q 577 1225 577 1193 l 577 1225 q 554 1282 577 1259 q 496 1305 530 1305 l 496 1305 q 440 1282 464 1305 q 417 1225 417 1259 l 417 1225 q 440 1170 417 1193 q 497 1147 464 1147 l 497 1147 "},"Ḥ":{"ha":994,"x_min":105,"x_max":889,"o":"m 229 0 l 229 463 l 766 463 l 766 0 l 889 0 l 889 1010 l 766 1010 l 766 572 l 229 572 l 229 1010 l 105 1010 l 105 0 l 229 0 m 498 -294 q 554 -271 531 -294 q 578 -216 578 -248 l 578 -216 q 554 -159 578 -182 q 497 -136 531 -136 l 497 -136 q 441 -159 465 -136 q 418 -216 418 -182 l 418 -216 q 441 -271 418 -248 q 498 -294 465 -294 l 498 -294 "},"Ḧ":{"ha":994,"x_min":105,"x_max":889,"o":"m 229 0 l 229 463 l 766 463 l 766 0 l 889 0 l 889 1010 l 766 1010 l 766 572 l 229 572 l 229 1010 l 105 1010 l 105 0 l 229 0 m 640 1147 q 695 1170 672 1147 q 718 1225 718 1193 l 718 1225 q 695 1282 718 1259 q 640 1305 672 1305 l 640 1305 q 583 1282 606 1305 q 560 1225 560 1259 l 560 1225 q 583 1170 560 1193 q 640 1147 606 1147 l 640 1147 m 355 1147 q 411 1170 388 1147 q 434 1225 434 1193 l 434 1225 q 411 1282 434 1259 q 355 1305 388 1305 l 355 1305 q 299 1282 323 1305 q 276 1225 276 1259 l 276 1225 q 299 1170 276 1193 q 355 1147 323 1147 l 355 1147 "},"Ḫ":{"ha":994,"x_min":105,"x_max":889,"o":"m 229 0 l 229 463 l 766 463 l 766 0 l 889 0 l 889 1010 l 766 1010 l 766 572 l 229 572 l 229 1010 l 105 1010 l 105 0 l 229 0 m 497 -311 q 596 -286 552 -311 q 666 -217 640 -260 q 692 -121 692 -174 l 604 -121 l 604 -121 q 574 -197 604 -168 q 498 -227 544 -227 l 498 -227 q 421 -197 451 -227 q 391 -121 391 -168 l 303 -121 l 303 -121 q 329 -217 303 -174 q 399 -286 355 -260 q 497 -311 443 -311 l 497 -311 "},"Ħ":{"ha":1027,"x_min":41,"x_max":987,"o":"m 41 798 l 41 694 l 987 694 l 987 798 l 41 798 m 246 0 l 246 463 l 783 463 l 783 0 l 906 0 l 906 1010 l 783 1010 l 783 572 l 246 572 l 246 1010 l 123 1010 l 123 0 l 246 0 "},"Ӈ":{"ha":994,"x_min":105,"x_max":889,"o":"m 622 -283 q 654 -284 635 -284 q 695 -285 673 -285 l 695 -285 q 840 -241 790 -285 q 889 -115 889 -198 l 889 87 l 766 87 l 766 -110 l 766 -110 q 748 -162 766 -146 q 684 -178 730 -178 l 684 -178 q 653 -178 673 -178 q 622 -177 633 -178 l 622 -283 l 622 -283 m 229 0 l 229 463 l 766 463 l 766 0 l 889 0 l 889 1010 l 766 1010 l 766 572 l 229 572 l 229 1010 l 105 1010 l 105 0 l 229 0 "},"Ң":{"ha":1009,"x_min":105,"x_max":983,"o":"m 229 0 l 229 463 l 766 463 l 766 0 l 889 0 l 889 1010 l 766 1010 l 766 572 l 229 572 l 229 1010 l 105 1010 l 105 0 l 229 0 m 982 -217 l 983 109 l 815 109 l 815 0 l 865 0 l 865 -217 l 982 -217 "},"Ӊ":{"ha":994,"x_min":105,"x_max":1021,"o":"m 229 0 l 229 463 l 766 463 l 766 0 l 889 0 l 889 1010 l 766 1010 l 766 572 l 229 572 l 229 1010 l 105 1010 l 105 0 l 229 0 m 923 -217 l 1020 109 l 827 109 l 827 0 l 871 0 l 806 -217 l 923 -217 "},"Ҥ":{"ha":1326,"x_min":105,"x_max":1285,"o":"m 768 1010 l 855 902 l 1285 902 l 1285 1010 l 768 1010 m 229 0 l 229 463 l 766 463 l 766 0 l 889 0 l 889 1010 l 766 1010 l 766 572 l 229 572 l 229 1010 l 105 1010 l 105 0 l 229 0 "},"Ƕ":{"ha":1464,"x_min":105,"x_max":1374,"o":"m 1071 -14 q 1231 22 1163 -14 q 1337 123 1299 57 q 1374 282 1374 190 l 1374 725 l 1256 725 l 1256 287 l 1256 287 q 1234 182 1256 224 q 1171 117 1213 139 q 1071 95 1130 95 l 1071 95 q 971 117 1012 95 q 910 182 930 139 q 889 287 889 224 l 889 1010 l 766 1010 l 766 570 l 229 570 l 229 1010 l 105 1010 l 105 0 l 229 0 l 229 460 l 766 460 l 766 282 l 766 282 q 803 123 766 190 q 909 22 841 57 q 1071 -14 978 -14 l 1071 -14 "},"Η":{"ha":994,"x_min":105,"x_max":889,"o":"m 229 0 l 229 463 l 766 463 l 766 0 l 889 0 l 889 1010 l 766 1010 l 766 572 l 229 572 l 229 1010 l 105 1010 l 105 0 l 229 0 "},"Ή":{"ha":1152,"x_min":41,"x_max":1046,"o":"m 386 0 l 386 463 l 923 463 l 923 0 l 1046 0 l 1046 1010 l 923 1010 l 923 572 l 386 572 l 386 1010 l 262 1010 l 262 0 l 386 0 m 123 809 l 186 1010 l 67 1010 l 41 809 l 123 809 "},"Ἠ":{"ha":1190,"x_min":41,"x_max":1085,"o":"m 425 0 l 425 463 l 962 463 l 962 0 l 1085 0 l 1085 1010 l 962 1010 l 962 572 l 425 572 l 425 1010 l 301 1010 l 301 0 l 425 0 m 62 810 q 181 840 138 810 q 223 918 223 869 l 223 918 q 181 995 223 967 q 62 1022 138 1022 l 41 1022 l 41 945 l 62 945 l 62 945 q 114 936 96 945 q 132 907 132 926 l 132 907 q 114 874 132 886 q 62 863 96 863 l 55 863 l 55 810 l 62 810 l 62 810 "},"Ἡ":{"ha":1204,"x_min":41,"x_max":1099,"o":"m 439 0 l 439 463 l 976 463 l 976 0 l 1099 0 l 1099 1010 l 976 1010 l 976 572 l 439 572 l 439 1010 l 315 1010 l 315 0 l 439 0 m 210 801 l 210 854 l 202 854 l 202 854 q 151 865 169 854 q 133 899 133 877 l 133 899 q 151 927 133 917 q 202 937 169 937 l 223 937 l 223 1013 l 202 1013 l 202 1013 q 84 986 127 1013 q 41 909 41 958 l 41 909 q 84 831 41 861 q 202 801 127 801 l 210 801 "},"Ἢ":{"ha":1375,"x_min":41,"x_max":1270,"o":"m 609 0 l 609 463 l 1146 463 l 1146 0 l 1270 0 l 1270 1010 l 1146 1010 l 1146 572 l 609 572 l 609 1010 l 486 1010 l 486 0 l 609 0 m 62 801 q 181 831 138 801 q 223 909 223 861 l 223 909 q 181 986 223 958 q 62 1013 138 1013 l 41 1013 l 41 937 l 62 937 l 62 937 q 114 927 96 937 q 132 899 132 917 l 132 899 q 114 865 132 877 q 62 854 96 854 l 55 854 l 55 801 l 62 801 l 62 801 m 361 1010 l 245 1010 l 306 803 l 387 803 l 361 1010 "},"Ἣ":{"ha":1382,"x_min":41,"x_max":1277,"o":"m 616 0 l 616 463 l 1154 463 l 1154 0 l 1277 0 l 1277 1010 l 1154 1010 l 1154 572 l 616 572 l 616 1010 l 493 1010 l 493 0 l 616 0 m 210 801 l 210 854 l 202 854 l 202 854 q 151 865 169 854 q 133 899 133 877 l 133 899 q 151 927 133 917 q 202 937 169 937 l 223 937 l 223 1013 l 202 1013 l 202 1013 q 84 986 127 1013 q 41 909 41 958 l 41 909 q 84 831 41 861 q 202 801 127 801 l 210 801 m 380 1010 l 264 1010 l 326 803 l 406 803 l 380 1010 "},"Ἤ":{"ha":1383,"x_min":41,"x_max":1278,"o":"m 618 0 l 618 463 l 1155 463 l 1155 0 l 1278 0 l 1278 1010 l 1155 1010 l 1155 572 l 618 572 l 618 1010 l 494 1010 l 494 0 l 618 0 m 62 801 q 181 831 138 801 q 223 909 223 861 l 223 909 q 181 986 223 958 q 62 1013 138 1013 l 41 1013 l 41 937 l 62 937 l 62 937 q 114 927 96 937 q 132 899 132 917 l 132 899 q 114 865 132 877 q 62 854 96 854 l 55 854 l 55 801 l 62 801 l 62 801 m 366 803 l 427 1010 l 311 1010 l 285 803 l 366 803 "},"Ἥ":{"ha":1389,"x_min":41,"x_max":1284,"o":"m 623 0 l 623 463 l 1160 463 l 1160 0 l 1284 0 l 1284 1010 l 1160 1010 l 1160 572 l 623 572 l 623 1010 l 500 1010 l 500 0 l 623 0 m 210 801 l 210 854 l 202 854 l 202 854 q 151 865 169 854 q 133 899 133 877 l 133 899 q 151 927 133 917 q 202 937 169 937 l 223 937 l 223 1013 l 202 1013 l 202 1013 q 84 986 127 1013 q 41 909 41 958 l 41 909 q 84 831 41 861 q 202 801 127 801 l 210 801 m 365 803 l 425 1010 l 309 1010 l 284 803 l 365 803 "},"Ἦ":{"ha":1301,"x_min":41,"x_max":1196,"o":"m 535 0 l 535 463 l 1072 463 l 1072 0 l 1196 0 l 1196 1010 l 1072 1010 l 1072 572 l 535 572 l 535 1010 l 412 1010 l 412 0 l 535 0 m 166 806 q 284 836 242 806 q 327 915 327 866 l 327 915 q 284 991 327 964 q 166 1019 242 1019 l 145 1019 l 145 942 l 166 942 l 166 942 q 217 932 199 942 q 235 903 235 922 l 235 903 q 217 871 235 882 q 166 859 199 859 l 159 859 l 159 806 l 166 806 l 166 806 m 324 1071 q 401 1109 374 1071 q 431 1209 429 1147 l 349 1209 l 349 1209 q 337 1167 346 1180 q 312 1155 329 1155 l 312 1155 q 277 1163 295 1155 q 239 1183 259 1172 q 197 1203 220 1195 q 149 1212 175 1212 l 149 1212 q 70 1173 96 1212 q 41 1073 43 1133 l 125 1073 l 125 1073 q 135 1109 127 1092 q 161 1126 143 1126 l 161 1126 q 191 1118 173 1126 q 231 1098 209 1109 q 276 1079 252 1087 q 324 1071 300 1071 l 324 1071 "},"Ἧ":{"ha":1310,"x_min":41,"x_max":1204,"o":"m 544 0 l 544 463 l 1081 463 l 1081 0 l 1204 0 l 1204 1010 l 1081 1010 l 1081 572 l 544 572 l 544 1010 l 420 1010 l 420 0 l 544 0 m 313 800 l 313 852 l 306 852 l 306 852 q 255 864 273 852 q 237 897 237 876 l 237 897 q 255 925 237 916 q 306 935 273 935 l 327 935 l 327 1012 l 306 1012 l 306 1012 q 188 984 231 1012 q 145 908 145 957 l 145 908 q 188 829 145 859 q 306 800 231 800 l 313 800 m 324 1064 q 401 1102 374 1064 q 431 1202 429 1140 l 349 1202 l 349 1202 q 337 1161 346 1173 q 312 1148 329 1148 l 312 1148 q 277 1157 295 1148 q 239 1177 259 1165 q 197 1197 220 1188 q 149 1205 175 1205 l 149 1205 q 70 1166 96 1205 q 41 1066 43 1126 l 125 1066 l 125 1066 q 135 1102 127 1085 q 161 1119 143 1119 l 161 1119 q 191 1111 173 1119 q 231 1092 209 1103 q 276 1072 252 1080 q 324 1064 300 1064 l 324 1064 "},"Ὴ":{"ha":1190,"x_min":-27,"x_max":1085,"o":"m 425 0 l 425 463 l 962 463 l 962 0 l 1085 0 l 1085 1010 l 962 1010 l 962 572 l 425 572 l 425 1010 l 301 1010 l 301 0 l 425 0 m 92 1021 l -27 1021 l 35 819 l 117 819 l 92 1021 "},"Ή":{"ha":1152,"x_min":41,"x_max":1046,"o":"m 386 0 l 386 463 l 923 463 l 923 0 l 1046 0 l 1046 1010 l 923 1010 l 923 572 l 386 572 l 386 1010 l 262 1010 l 262 0 l 386 0 m 123 809 l 186 1010 l 67 1010 l 41 809 l 123 809 "},"Н":{"ha":994,"x_min":105,"x_max":889,"o":"m 229 0 l 229 463 l 766 463 l 766 0 l 889 0 l 889 1010 l 766 1010 l 766 572 l 229 572 l 229 1010 l 105 1010 l 105 0 l 229 0 "},"ᾘ":{"ha":1190,"x_min":41,"x_max":1085,"o":"m 425 0 l 425 463 l 962 463 l 962 0 l 1085 0 l 1085 1010 l 962 1010 l 962 572 l 425 572 l 425 1010 l 301 1010 l 301 0 l 425 0 m 762 -335 q 792 -335 777 -335 q 821 -333 806 -334 l 821 -247 l 821 -247 q 804 -248 812 -248 q 787 -248 795 -248 l 787 -248 q 756 -236 766 -248 q 747 -199 747 -225 l 747 -80 l 638 -80 l 638 -209 l 638 -209 q 672 -300 638 -266 q 762 -335 707 -335 l 762 -335 m 62 810 q 181 840 138 810 q 223 918 223 869 l 223 918 q 181 995 223 967 q 62 1022 138 1022 l 41 1022 l 41 945 l 62 945 l 62 945 q 114 936 96 945 q 132 907 132 926 l 132 907 q 114 874 132 886 q 62 863 96 863 l 55 863 l 55 810 l 62 810 l 62 810 "},"ᾙ":{"ha":1204,"x_min":41,"x_max":1099,"o":"m 439 0 l 439 463 l 976 463 l 976 0 l 1099 0 l 1099 1010 l 976 1010 l 976 572 l 439 572 l 439 1010 l 315 1010 l 315 0 l 439 0 m 776 -335 q 805 -335 791 -335 q 834 -333 820 -334 l 834 -247 l 834 -247 q 817 -248 825 -248 q 800 -248 809 -248 l 800 -248 q 770 -236 779 -248 q 761 -199 761 -225 l 761 -80 l 652 -80 l 652 -209 l 652 -209 q 686 -300 652 -266 q 776 -335 720 -335 l 776 -335 m 210 801 l 210 854 l 202 854 l 202 854 q 151 865 169 854 q 133 899 133 877 l 133 899 q 151 927 133 917 q 202 937 169 937 l 223 937 l 223 1013 l 202 1013 l 202 1013 q 84 986 127 1013 q 41 909 41 958 l 41 909 q 84 831 41 861 q 202 801 127 801 l 210 801 "},"ᾚ":{"ha":1375,"x_min":41,"x_max":1270,"o":"m 609 0 l 609 463 l 1146 463 l 1146 0 l 1270 0 l 1270 1010 l 1146 1010 l 1146 572 l 609 572 l 609 1010 l 486 1010 l 486 0 l 609 0 m 947 -335 q 976 -335 962 -335 q 1005 -333 991 -334 l 1005 -247 l 1005 -247 q 988 -248 996 -248 q 971 -248 980 -248 l 971 -248 q 941 -236 950 -248 q 932 -199 932 -225 l 932 -80 l 823 -80 l 823 -209 l 823 -209 q 857 -300 823 -266 q 947 -335 891 -335 l 947 -335 m 62 801 q 181 831 138 801 q 223 909 223 861 l 223 909 q 181 986 223 958 q 62 1013 138 1013 l 41 1013 l 41 937 l 62 937 l 62 937 q 114 927 96 937 q 132 899 132 917 l 132 899 q 114 865 132 877 q 62 854 96 854 l 55 854 l 55 801 l 62 801 l 62 801 m 361 1010 l 245 1010 l 306 803 l 387 803 l 361 1010 "},"ᾛ":{"ha":1382,"x_min":41,"x_max":1277,"o":"m 616 0 l 616 463 l 1154 463 l 1154 0 l 1277 0 l 1277 1010 l 1154 1010 l 1154 572 l 616 572 l 616 1010 l 493 1010 l 493 0 l 616 0 m 954 -335 q 983 -335 968 -335 q 1012 -333 998 -334 l 1012 -247 l 1012 -247 q 995 -248 1003 -248 q 978 -248 987 -248 l 978 -248 q 948 -236 957 -248 q 939 -199 939 -225 l 939 -80 l 829 -80 l 829 -209 l 829 -209 q 864 -300 829 -266 q 954 -335 898 -335 l 954 -335 m 210 801 l 210 854 l 202 854 l 202 854 q 151 865 169 854 q 133 899 133 877 l 133 899 q 151 927 133 917 q 202 937 169 937 l 223 937 l 223 1013 l 202 1013 l 202 1013 q 84 986 127 1013 q 41 909 41 958 l 41 909 q 84 831 41 861 q 202 801 127 801 l 210 801 m 380 1010 l 264 1010 l 326 803 l 406 803 l 380 1010 "},"ᾜ":{"ha":1383,"x_min":41,"x_max":1278,"o":"m 618 0 l 618 463 l 1155 463 l 1155 0 l 1278 0 l 1278 1010 l 1155 1010 l 1155 572 l 618 572 l 618 1010 l 494 1010 l 494 0 l 618 0 m 955 -335 q 984 -335 970 -335 q 1013 -333 999 -334 l 1013 -247 l 1013 -247 q 996 -248 1004 -248 q 979 -248 988 -248 l 979 -248 q 949 -236 958 -248 q 940 -199 940 -225 l 940 -80 l 831 -80 l 831 -209 l 831 -209 q 865 -300 831 -266 q 955 -335 899 -335 l 955 -335 m 62 801 q 181 831 138 801 q 223 909 223 861 l 223 909 q 181 986 223 958 q 62 1013 138 1013 l 41 1013 l 41 937 l 62 937 l 62 937 q 114 927 96 937 q 132 899 132 917 l 132 899 q 114 865 132 877 q 62 854 96 854 l 55 854 l 55 801 l 62 801 l 62 801 m 366 803 l 427 1010 l 311 1010 l 285 803 l 366 803 "},"ᾝ":{"ha":1389,"x_min":41,"x_max":1284,"o":"m 623 0 l 623 463 l 1160 463 l 1160 0 l 1284 0 l 1284 1010 l 1160 1010 l 1160 572 l 623 572 l 623 1010 l 500 1010 l 500 0 l 623 0 m 960 -335 q 990 -335 975 -335 q 1019 -333 1004 -334 l 1019 -247 l 1019 -247 q 1002 -248 1010 -248 q 985 -248 994 -248 l 985 -248 q 955 -236 964 -248 q 945 -199 945 -225 l 945 -80 l 836 -80 l 836 -209 l 836 -209 q 870 -300 836 -266 q 960 -335 905 -335 l 960 -335 m 210 801 l 210 854 l 202 854 l 202 854 q 151 865 169 854 q 133 899 133 877 l 133 899 q 151 927 133 917 q 202 937 169 937 l 223 937 l 223 1013 l 202 1013 l 202 1013 q 84 986 127 1013 q 41 909 41 958 l 41 909 q 84 831 41 861 q 202 801 127 801 l 210 801 m 365 803 l 425 1010 l 309 1010 l 284 803 l 365 803 "},"ᾞ":{"ha":1301,"x_min":41,"x_max":1196,"o":"m 535 0 l 535 463 l 1072 463 l 1072 0 l 1196 0 l 1196 1010 l 1072 1010 l 1072 572 l 535 572 l 535 1010 l 412 1010 l 412 0 l 535 0 m 873 -335 q 902 -335 888 -335 q 931 -333 917 -334 l 931 -247 l 931 -247 q 914 -248 922 -248 q 897 -248 906 -248 l 897 -248 q 867 -236 876 -248 q 858 -199 858 -225 l 858 -80 l 749 -80 l 749 -209 l 749 -209 q 783 -300 749 -266 q 873 -335 817 -335 l 873 -335 m 166 806 q 284 836 242 806 q 327 915 327 866 l 327 915 q 284 991 327 964 q 166 1019 242 1019 l 145 1019 l 145 942 l 166 942 l 166 942 q 217 932 199 942 q 235 903 235 922 l 235 903 q 217 871 235 882 q 166 859 199 859 l 159 859 l 159 806 l 166 806 l 166 806 m 324 1071 q 401 1109 374 1071 q 431 1209 429 1147 l 349 1209 l 349 1209 q 337 1167 346 1180 q 312 1155 329 1155 l 312 1155 q 277 1163 295 1155 q 239 1183 259 1172 q 197 1203 220 1195 q 149 1212 175 1212 l 149 1212 q 70 1173 96 1212 q 41 1073 43 1133 l 125 1073 l 125 1073 q 135 1109 127 1092 q 161 1126 143 1126 l 161 1126 q 191 1118 173 1126 q 231 1098 209 1109 q 276 1079 252 1087 q 324 1071 300 1071 l 324 1071 "},"ᾟ":{"ha":1310,"x_min":41,"x_max":1204,"o":"m 544 0 l 544 463 l 1081 463 l 1081 0 l 1204 0 l 1204 1010 l 1081 1010 l 1081 572 l 544 572 l 544 1010 l 420 1010 l 420 0 l 544 0 m 881 -335 q 910 -335 896 -335 q 939 -333 925 -334 l 939 -247 l 939 -247 q 922 -248 930 -248 q 905 -248 914 -248 l 905 -248 q 875 -236 884 -248 q 866 -199 866 -225 l 866 -80 l 757 -80 l 757 -209 l 757 -209 q 791 -300 757 -266 q 881 -335 825 -335 l 881 -335 m 313 800 l 313 852 l 306 852 l 306 852 q 255 864 273 852 q 237 897 237 876 l 237 897 q 255 925 237 916 q 306 935 273 935 l 327 935 l 327 1012 l 306 1012 l 306 1012 q 188 984 231 1012 q 145 908 145 957 l 145 908 q 188 829 145 859 q 306 800 231 800 l 313 800 m 324 1064 q 401 1102 374 1064 q 431 1202 429 1140 l 349 1202 l 349 1202 q 337 1161 346 1173 q 312 1148 329 1148 l 312 1148 q 277 1157 295 1148 q 239 1177 259 1165 q 197 1197 220 1188 q 149 1205 175 1205 l 149 1205 q 70 1166 96 1205 q 41 1066 43 1126 l 125 1066 l 125 1066 q 135 1102 127 1085 q 161 1119 143 1119 l 161 1119 q 191 1111 173 1119 q 231 1092 209 1103 q 276 1072 252 1080 q 324 1064 300 1064 l 324 1064 "},"ῌ":{"ha":994,"x_min":105,"x_max":889,"o":"m 229 0 l 229 463 l 766 463 l 766 0 l 889 0 l 889 1010 l 766 1010 l 766 572 l 229 572 l 229 1010 l 105 1010 l 105 0 l 229 0 m 566 -335 q 595 -335 581 -335 q 624 -333 610 -334 l 624 -247 l 624 -247 q 607 -248 615 -248 q 590 -248 599 -248 l 590 -248 q 560 -236 569 -248 q 551 -199 551 -225 l 551 -80 l 441 -80 l 441 -209 l 441 -209 q 476 -300 441 -266 q 566 -335 510 -335 l 566 -335 "},"I":{"ha":334,"x_min":105,"x_max":229,"o":"m 105 1010 l 105 0 l 229 0 l 229 1010 l 105 1010 "},"":{"ha":668,"x_min":105,"x_max":563,"o":"m 105 1010 l 105 0 l 229 0 l 229 1010 l 105 1010 m 439 1010 l 439 0 l 562 0 l 562 1010 l 439 1010 "},"Ï":{"ha":334,"x_min":-54,"x_max":388,"o":"m 105 1010 l 105 0 l 229 0 l 229 1010 l 105 1010 m 309 1147 q 365 1170 342 1147 q 388 1225 388 1193 l 388 1225 q 365 1282 388 1259 q 309 1305 342 1305 l 309 1305 q 253 1282 276 1305 q 230 1225 230 1259 l 230 1225 q 253 1170 230 1193 q 309 1147 276 1147 l 309 1147 m 25 1147 q 81 1170 58 1147 q 104 1225 104 1193 l 104 1225 q 81 1282 104 1259 q 25 1305 58 1305 l 25 1305 q -31 1282 -7 1305 q -54 1225 -54 1259 l -54 1225 q -31 1170 -54 1193 q 25 1147 -7 1147 l 25 1147 "},"Ḯ":{"ha":334,"x_min":-58,"x_max":385,"o":"m 105 1010 l 105 0 l 229 0 l 229 1010 l 105 1010 m 306 1116 q 361 1139 338 1116 q 385 1195 385 1162 l 385 1195 q 361 1251 385 1228 q 306 1274 338 1274 l 306 1274 q 250 1251 273 1274 q 227 1195 227 1227 l 227 1195 q 250 1139 227 1162 q 306 1116 273 1116 l 306 1116 m 22 1116 q 77 1139 54 1116 q 100 1195 100 1162 l 100 1195 q 77 1251 100 1228 q 22 1274 54 1274 l 22 1274 q -34 1251 -11 1274 q -58 1195 -58 1227 l -58 1195 q -34 1139 -58 1162 q 22 1116 -11 1116 l 22 1116 m 214 1330 l 344 1516 l 212 1516 l 117 1330 l 214 1330 "},"Ɨ":{"ha":439,"x_min":11,"x_max":429,"o":"m 158 1010 l 158 0 l 281 0 l 281 1010 l 158 1010 m 429 472 l 429 570 l 11 570 l 11 472 l 429 472 "},"Ḭ":{"ha":334,"x_min":-27,"x_max":362,"o":"m 105 1010 l 105 0 l 229 0 l 229 1010 l 105 1010 m 256 -286 q 333 -248 305 -286 q 362 -147 360 -210 l 281 -147 l 281 -147 q 269 -189 277 -176 q 243 -201 260 -201 l 243 -201 q 209 -193 227 -201 q 171 -173 191 -184 q 129 -153 151 -161 q 81 -144 106 -144 l 81 -144 q 1 -184 27 -144 q -27 -283 -25 -223 l 57 -283 l 57 -283 q 66 -248 58 -264 q 92 -231 75 -231 l 92 -231 q 122 -239 104 -231 q 162 -258 140 -247 q 208 -277 184 -269 q 256 -286 231 -286 l 256 -286 "},"Ì":{"ha":334,"x_min":-10,"x_max":229,"o":"m 105 1010 l 105 0 l 229 0 l 229 1010 l 105 1010 m 218 1104 l 123 1305 l -9 1305 l 121 1104 l 218 1104 "},"Í":{"ha":334,"x_min":105,"x_max":343,"o":"m 105 1010 l 105 0 l 229 0 l 229 1010 l 105 1010 m 213 1104 l 343 1305 l 211 1305 l 116 1104 l 213 1104 "},"Î":{"ha":334,"x_min":-47,"x_max":381,"o":"m 105 1010 l 105 0 l 229 0 l 229 1010 l 105 1010 m 167 1238 l 263 1120 l 381 1120 l 381 1121 l 223 1305 l 110 1305 l -47 1121 l -47 1120 l 69 1120 l 167 1238 "},"Ĩ":{"ha":334,"x_min":-27,"x_max":362,"o":"m 105 1010 l 105 0 l 229 0 l 229 1010 l 105 1010 m 256 1147 q 333 1185 305 1147 q 362 1285 360 1223 l 281 1285 l 281 1285 q 269 1244 277 1257 q 243 1231 260 1231 l 243 1231 q 209 1239 227 1231 q 171 1259 191 1248 q 129 1279 151 1271 q 81 1288 106 1288 l 81 1288 q 1 1249 27 1288 q -27 1149 -25 1209 l 57 1149 l 57 1149 q 66 1185 58 1168 q 92 1202 75 1202 l 92 1202 q 122 1194 104 1202 q 162 1174 140 1185 q 208 1155 184 1163 q 256 1147 231 1147 l 256 1147 "},"Ī":{"ha":334,"x_min":-20,"x_max":354,"o":"m 105 1010 l 105 0 l 229 0 l 229 1010 l 105 1010 m -20 1257 l -20 1161 l 354 1161 l 354 1257 l -20 1257 "},"Ĭ":{"ha":334,"x_min":-27,"x_max":361,"o":"m 105 1010 l 105 0 l 229 0 l 229 1010 l 105 1010 m 167 1115 q 266 1141 222 1115 q 336 1210 310 1166 q 361 1305 361 1253 l 274 1305 l 274 1305 q 244 1229 274 1259 q 168 1200 214 1200 l 168 1200 q 91 1229 121 1200 q 60 1305 60 1259 l -27 1305 l -27 1305 q -1 1209 -27 1253 q 69 1140 25 1166 q 167 1115 113 1115 l 167 1115 "},"Į":{"ha":334,"x_min":8,"x_max":239,"o":"m 105 1010 l 105 0 l 229 0 l 229 1010 l 105 1010 m 150 -286 q 197 -284 174 -286 q 239 -279 219 -281 l 230 -182 l 230 -182 q 208 -185 220 -184 q 184 -186 195 -186 l 184 -186 q 139 -174 153 -186 q 125 -138 125 -161 l 125 -138 q 150 -78 125 -108 q 229 0 174 -48 l 151 33 l 151 33 q 42 -58 75 -12 q 9 -158 9 -103 l 9 -158 q 47 -254 9 -221 q 150 -286 86 -286 l 150 -286 "},"İ":{"ha":334,"x_min":87,"x_max":247,"o":"m 105 1010 l 105 0 l 229 0 l 229 1010 l 105 1010 m 167 1147 q 223 1170 200 1147 q 247 1225 247 1193 l 247 1225 q 223 1282 247 1259 q 166 1305 200 1305 l 166 1305 q 110 1282 134 1305 q 87 1225 87 1259 l 87 1225 q 110 1170 87 1193 q 167 1147 134 1147 l 167 1147 "},"Ǐ":{"ha":334,"x_min":-47,"x_max":381,"o":"m 105 1010 l 105 0 l 229 0 l 229 1010 l 105 1010 m -47 1305 l -47 1303 l 110 1120 l 223 1120 l 381 1303 l 381 1305 l 263 1305 l 167 1186 l 69 1305 l -47 1305 "},"Ȉ":{"ha":334,"x_min":-130,"x_max":317,"o":"m 105 1010 l 105 0 l 229 0 l 229 1010 l 105 1010 m 317 1104 l 236 1305 l 104 1305 l 220 1104 l 317 1104 m 117 1104 l 3 1305 l -130 1305 l 18 1104 l 117 1104 "},"Ȋ":{"ha":334,"x_min":-29,"x_max":363,"o":"m 105 1010 l 105 0 l 229 0 l 229 1010 l 105 1010 m 167 1308 q 65 1283 110 1308 q -4 1215 21 1258 q -29 1120 -29 1173 l 58 1120 l 58 1120 q 89 1194 58 1165 q 167 1223 120 1223 l 167 1223 q 245 1194 214 1223 q 276 1120 276 1165 l 363 1120 l 363 1120 q 338 1215 363 1173 q 269 1283 313 1258 q 167 1308 225 1308 l 167 1308 "},"Ỉ":{"ha":334,"x_min":59,"x_max":271,"o":"m 105 1010 l 105 0 l 229 0 l 229 1010 l 105 1010 m 247 1166 l 247 1166 q 268 1220 265 1195 q 258 1265 271 1246 q 219 1295 246 1284 q 153 1305 193 1305 l 59 1305 l 59 1227 l 153 1227 l 153 1227 q 171 1220 168 1227 q 168 1200 175 1213 l 119 1104 l 209 1104 l 247 1166 "},"Ị":{"ha":334,"x_min":87,"x_max":248,"o":"m 105 1010 l 105 0 l 229 0 l 229 1010 l 105 1010 m 168 -294 q 224 -271 201 -294 q 248 -216 248 -248 l 248 -216 q 224 -159 248 -182 q 167 -136 201 -136 l 167 -136 q 111 -159 134 -136 q 87 -216 87 -182 l 87 -216 q 111 -271 87 -248 q 168 -294 134 -294 l 168 -294 "},"Ɩ":{"ha":333,"x_min":90,"x_max":316,"o":"m 271 -1 q 294 -1 282 -1 q 316 1 306 0 l 311 101 l 311 101 q 296 100 304 100 q 278 100 287 100 l 278 100 q 221 116 235 100 q 207 179 207 132 l 207 1010 l 90 1010 l 90 163 l 90 163 q 132 38 90 77 q 271 -1 174 -1 l 271 -1 "},"Ι":{"ha":334,"x_min":105,"x_max":229,"o":"m 105 1010 l 105 0 l 229 0 l 229 1010 l 105 1010 "},"Ί":{"ha":491,"x_min":41,"x_max":386,"o":"m 262 1010 l 262 0 l 386 0 l 386 1010 l 262 1010 m 123 809 l 186 1010 l 67 1010 l 41 809 l 123 809 "},"Ϊ":{"ha":334,"x_min":-54,"x_max":388,"o":"m 105 1010 l 105 0 l 229 0 l 229 1010 l 105 1010 m 309 1147 q 365 1170 342 1147 q 388 1225 388 1193 l 388 1225 q 365 1282 388 1259 q 309 1305 342 1305 l 309 1305 q 253 1282 276 1305 q 230 1225 230 1259 l 230 1225 q 253 1170 230 1193 q 309 1147 276 1147 l 309 1147 m 25 1147 q 81 1170 58 1147 q 104 1225 104 1193 l 104 1225 q 81 1282 104 1259 q 25 1305 58 1305 l 25 1305 q -31 1282 -7 1305 q -54 1225 -54 1259 l -54 1225 q -31 1170 -54 1193 q 25 1147 -7 1147 l 25 1147 "},"Ἰ":{"ha":530,"x_min":41,"x_max":425,"o":"m 301 1010 l 301 0 l 425 0 l 425 1010 l 301 1010 m 62 810 q 181 840 138 810 q 223 918 223 869 l 223 918 q 181 995 223 967 q 62 1022 138 1022 l 41 1022 l 41 945 l 62 945 l 62 945 q 114 936 96 945 q 132 907 132 926 l 132 907 q 114 874 132 886 q 62 863 96 863 l 55 863 l 55 810 l 62 810 l 62 810 "},"Ἱ":{"ha":544,"x_min":41,"x_max":439,"o":"m 315 1010 l 315 0 l 439 0 l 439 1010 l 315 1010 m 210 801 l 210 854 l 202 854 l 202 854 q 151 865 169 854 q 133 899 133 877 l 133 899 q 151 927 133 917 q 202 937 169 937 l 223 937 l 223 1013 l 202 1013 l 202 1013 q 84 986 127 1013 q 41 909 41 958 l 41 909 q 84 831 41 861 q 202 801 127 801 l 210 801 "},"Ἲ":{"ha":715,"x_min":41,"x_max":609,"o":"m 486 1010 l 486 0 l 609 0 l 609 1010 l 486 1010 m 62 801 q 181 831 138 801 q 223 909 223 861 l 223 909 q 181 986 223 958 q 62 1013 138 1013 l 41 1013 l 41 937 l 62 937 l 62 937 q 114 927 96 937 q 132 899 132 917 l 132 899 q 114 865 132 877 q 62 854 96 854 l 55 854 l 55 801 l 62 801 l 62 801 m 361 1010 l 245 1010 l 306 803 l 387 803 l 361 1010 "},"Ἳ":{"ha":722,"x_min":41,"x_max":616,"o":"m 493 1010 l 493 0 l 616 0 l 616 1010 l 493 1010 m 210 801 l 210 854 l 202 854 l 202 854 q 151 865 169 854 q 133 899 133 877 l 133 899 q 151 927 133 917 q 202 937 169 937 l 223 937 l 223 1013 l 202 1013 l 202 1013 q 84 986 127 1013 q 41 909 41 958 l 41 909 q 84 831 41 861 q 202 801 127 801 l 210 801 m 380 1010 l 264 1010 l 326 803 l 406 803 l 380 1010 "},"Ἴ":{"ha":723,"x_min":41,"x_max":618,"o":"m 494 1010 l 494 0 l 618 0 l 618 1010 l 494 1010 m 62 801 q 181 831 138 801 q 223 909 223 861 l 223 909 q 181 986 223 958 q 62 1013 138 1013 l 41 1013 l 41 937 l 62 937 l 62 937 q 114 927 96 937 q 132 899 132 917 l 132 899 q 114 865 132 877 q 62 854 96 854 l 55 854 l 55 801 l 62 801 l 62 801 m 366 803 l 427 1010 l 311 1010 l 285 803 l 366 803 "},"Ἵ":{"ha":728,"x_min":41,"x_max":623,"o":"m 500 1010 l 500 0 l 623 0 l 623 1010 l 500 1010 m 210 801 l 210 854 l 202 854 l 202 854 q 151 865 169 854 q 133 899 133 877 l 133 899 q 151 927 133 917 q 202 937 169 937 l 223 937 l 223 1013 l 202 1013 l 202 1013 q 84 986 127 1013 q 41 909 41 958 l 41 909 q 84 831 41 861 q 202 801 127 801 l 210 801 m 365 803 l 425 1010 l 309 1010 l 284 803 l 365 803 "},"Ἶ":{"ha":641,"x_min":41,"x_max":536,"o":"m 412 1010 l 412 0 l 535 0 l 535 1010 l 412 1010 m 166 806 q 284 836 242 806 q 327 915 327 866 l 327 915 q 284 991 327 964 q 166 1019 242 1019 l 145 1019 l 145 942 l 166 942 l 166 942 q 217 932 199 942 q 235 903 235 922 l 235 903 q 217 871 235 882 q 166 859 199 859 l 159 859 l 159 806 l 166 806 l 166 806 m 324 1071 q 401 1109 374 1071 q 431 1209 429 1147 l 349 1209 l 349 1209 q 337 1167 346 1180 q 312 1155 329 1155 l 312 1155 q 277 1163 295 1155 q 239 1183 259 1172 q 197 1203 220 1195 q 149 1212 175 1212 l 149 1212 q 70 1173 96 1212 q 41 1073 43 1133 l 125 1073 l 125 1073 q 135 1109 127 1092 q 161 1126 143 1126 l 161 1126 q 191 1118 173 1126 q 231 1098 209 1109 q 276 1079 252 1087 q 324 1071 300 1071 l 324 1071 "},"Ἷ":{"ha":649,"x_min":41,"x_max":544,"o":"m 420 1010 l 420 0 l 544 0 l 544 1010 l 420 1010 m 313 800 l 313 852 l 306 852 l 306 852 q 255 864 273 852 q 237 897 237 876 l 237 897 q 255 925 237 916 q 306 935 273 935 l 327 935 l 327 1012 l 306 1012 l 306 1012 q 188 984 231 1012 q 145 908 145 957 l 145 908 q 188 829 145 859 q 306 800 231 800 l 313 800 m 324 1064 q 401 1102 374 1064 q 431 1202 429 1140 l 349 1202 l 349 1202 q 337 1161 346 1173 q 312 1148 329 1148 l 312 1148 q 277 1157 295 1148 q 239 1177 259 1165 q 197 1197 220 1188 q 149 1205 175 1205 l 149 1205 q 70 1166 96 1205 q 41 1066 43 1126 l 125 1066 l 125 1066 q 135 1102 127 1085 q 161 1119 143 1119 l 161 1119 q 191 1111 173 1119 q 231 1092 209 1103 q 276 1072 252 1080 q 324 1064 300 1064 l 324 1064 "},"Ῐ":{"ha":334,"x_min":-27,"x_max":361,"o":"m 105 1010 l 105 0 l 229 0 l 229 1010 l 105 1010 m 167 1115 q 266 1141 222 1115 q 336 1210 310 1166 q 361 1305 361 1253 l 274 1305 l 274 1305 q 244 1229 274 1259 q 168 1200 214 1200 l 168 1200 q 91 1229 121 1200 q 60 1305 60 1259 l -27 1305 l -27 1305 q -1 1209 -27 1253 q 69 1140 25 1166 q 167 1115 113 1115 l 167 1115 "},"Ῑ":{"ha":334,"x_min":-20,"x_max":354,"o":"m 105 1010 l 105 0 l 229 0 l 229 1010 l 105 1010 m -20 1257 l -20 1161 l 354 1161 l 354 1257 l -20 1257 "},"Ὶ":{"ha":530,"x_min":-27,"x_max":425,"o":"m 301 1010 l 301 0 l 425 0 l 425 1010 l 301 1010 m 92 1021 l -27 1021 l 35 819 l 117 819 l 92 1021 "},"Ί":{"ha":491,"x_min":41,"x_max":386,"o":"m 262 1010 l 262 0 l 386 0 l 386 1010 l 262 1010 m 123 809 l 186 1010 l 67 1010 l 41 809 l 123 809 "},"І":{"ha":334,"x_min":105,"x_max":229,"o":"m 105 1010 l 105 0 l 229 0 l 229 1010 l 105 1010 "},"Ї":{"ha":334,"x_min":-54,"x_max":388,"o":"m 105 1010 l 105 0 l 229 0 l 229 1010 l 105 1010 m 309 1147 q 365 1170 342 1147 q 388 1225 388 1193 l 388 1225 q 365 1282 388 1259 q 309 1305 342 1305 l 309 1305 q 253 1282 276 1305 q 230 1225 230 1259 l 230 1225 q 253 1170 230 1193 q 309 1147 276 1147 l 309 1147 m 25 1147 q 81 1170 58 1147 q 104 1225 104 1193 l 104 1225 q 81 1282 104 1259 q 25 1305 58 1305 l 25 1305 q -31 1282 -7 1305 q -54 1225 -54 1259 l -54 1225 q -31 1170 -54 1193 q 25 1147 -7 1147 l 25 1147 "},"":{"ha":502,"x_min":56,"x_max":446,"o":"m 446 0 l 446 110 l 313 110 l 313 901 l 446 901 l 446 1010 l 56 1010 l 56 901 l 189 901 l 189 110 l 56 110 l 56 0 l 446 0 "},"":{"ha":502,"x_min":30,"x_max":472,"o":"m 446 0 l 446 110 l 313 110 l 313 901 l 446 901 l 446 1010 l 56 1010 l 56 901 l 189 901 l 189 110 l 56 110 l 56 0 l 446 0 m 393 1147 q 449 1170 426 1147 q 472 1225 472 1193 l 472 1225 q 449 1282 472 1259 q 393 1305 426 1305 l 393 1305 q 337 1282 360 1305 q 314 1225 314 1259 l 314 1225 q 337 1170 314 1193 q 393 1147 360 1147 l 393 1147 m 109 1147 q 165 1170 142 1147 q 188 1225 188 1193 l 188 1225 q 165 1282 188 1259 q 109 1305 142 1305 l 109 1305 q 53 1282 77 1305 q 30 1225 30 1259 l 30 1225 q 53 1170 30 1193 q 109 1147 77 1147 l 109 1147 "},"":{"ha":502,"x_min":26,"x_max":469,"o":"m 446 0 l 446 110 l 313 110 l 313 901 l 446 901 l 446 1010 l 56 1010 l 56 901 l 189 901 l 189 110 l 56 110 l 56 0 l 446 0 m 390 1116 q 446 1139 422 1116 q 469 1195 469 1162 l 469 1195 q 446 1251 469 1228 q 390 1274 422 1274 l 390 1274 q 334 1251 357 1274 q 311 1195 311 1227 l 311 1195 q 334 1139 311 1162 q 390 1116 357 1116 l 390 1116 m 106 1116 q 161 1139 138 1116 q 184 1195 184 1162 l 184 1195 q 161 1251 184 1228 q 106 1274 138 1274 l 106 1274 q 50 1251 73 1274 q 26 1195 26 1227 l 26 1195 q 50 1139 26 1162 q 106 1116 73 1116 l 106 1116 m 298 1330 l 428 1516 l 296 1516 l 201 1330 l 298 1330 "},"":{"ha":502,"x_min":42,"x_max":460,"o":"m 446 0 l 446 110 l 313 110 l 313 901 l 446 901 l 446 1010 l 56 1010 l 56 901 l 189 901 l 189 110 l 56 110 l 56 0 l 446 0 m 460 472 l 460 570 l 42 570 l 42 472 l 460 472 "},"":{"ha":502,"x_min":56,"x_max":447,"o":"m 446 0 l 446 110 l 313 110 l 313 901 l 446 901 l 446 1010 l 56 1010 l 56 901 l 189 901 l 189 110 l 56 110 l 56 0 l 446 0 m 340 -286 q 417 -248 389 -286 q 446 -147 444 -210 l 365 -147 l 365 -147 q 353 -189 361 -176 q 328 -201 345 -201 l 328 -201 q 293 -193 311 -201 q 255 -173 275 -184 q 213 -153 235 -161 q 165 -144 191 -144 l 165 -144 q 85 -184 111 -144 q 57 -283 59 -223 l 141 -283 l 141 -283 q 151 -248 142 -264 q 176 -231 159 -231 l 176 -231 q 207 -239 189 -231 q 246 -258 224 -247 q 292 -277 268 -269 q 340 -286 315 -286 l 340 -286 "},"":{"ha":502,"x_min":56,"x_max":446,"o":"m 446 0 l 446 110 l 313 110 l 313 901 l 446 901 l 446 1010 l 56 1010 l 56 901 l 189 901 l 189 110 l 56 110 l 56 0 l 446 0 m 302 1104 l 207 1305 l 75 1305 l 205 1104 l 302 1104 "},"":{"ha":502,"x_min":56,"x_max":446,"o":"m 446 0 l 446 110 l 313 110 l 313 901 l 446 901 l 446 1010 l 56 1010 l 56 901 l 189 901 l 189 110 l 56 110 l 56 0 l 446 0 m 297 1104 l 427 1305 l 295 1305 l 200 1104 l 297 1104 "},"":{"ha":502,"x_min":37,"x_max":465,"o":"m 446 0 l 446 110 l 313 110 l 313 901 l 446 901 l 446 1010 l 56 1010 l 56 901 l 189 901 l 189 110 l 56 110 l 56 0 l 446 0 m 251 1238 l 347 1120 l 465 1120 l 465 1121 l 307 1305 l 194 1305 l 37 1121 l 37 1120 l 153 1120 l 251 1238 "},"":{"ha":502,"x_min":56,"x_max":446,"o":"m 446 0 l 446 110 l 313 110 l 313 901 l 446 901 l 446 1010 l 56 1010 l 56 901 l 189 901 l 189 110 l 56 110 l 56 0 l 446 0 m 340 1147 q 417 1185 389 1147 q 446 1285 444 1223 l 365 1285 l 365 1285 q 353 1244 361 1257 q 328 1231 345 1231 l 328 1231 q 293 1239 311 1231 q 255 1259 275 1248 q 213 1279 235 1271 q 165 1288 191 1288 l 165 1288 q 85 1249 111 1288 q 57 1149 59 1209 l 141 1149 l 141 1149 q 151 1185 142 1168 q 176 1202 159 1202 l 176 1202 q 207 1194 189 1202 q 246 1174 224 1185 q 292 1155 268 1163 q 340 1147 315 1147 l 340 1147 "},"":{"ha":502,"x_min":56,"x_max":446,"o":"m 446 0 l 446 110 l 313 110 l 313 901 l 446 901 l 446 1010 l 56 1010 l 56 901 l 189 901 l 189 110 l 56 110 l 56 0 l 446 0 m 64 1257 l 64 1161 l 438 1161 l 438 1257 l 64 1257 "},"":{"ha":502,"x_min":56,"x_max":446,"o":"m 446 0 l 446 110 l 313 110 l 313 901 l 446 901 l 446 1010 l 56 1010 l 56 901 l 189 901 l 189 110 l 56 110 l 56 0 l 446 0 m 251 1115 q 350 1141 306 1115 q 420 1210 394 1166 q 446 1305 446 1253 l 358 1305 l 358 1305 q 328 1229 358 1259 q 252 1200 298 1200 l 252 1200 q 175 1229 205 1200 q 144 1305 144 1259 l 57 1305 l 57 1305 q 83 1209 57 1253 q 153 1140 109 1166 q 251 1115 197 1115 l 251 1115 "},"":{"ha":502,"x_min":56,"x_max":456,"o":"m 446 0 l 446 110 l 313 110 l 313 901 l 446 901 l 446 1010 l 56 1010 l 56 901 l 189 901 l 189 110 l 56 110 l 56 0 l 446 0 m 367 -286 q 414 -284 391 -286 q 456 -279 436 -281 l 447 -182 l 447 -182 q 425 -185 437 -184 q 401 -186 412 -186 l 401 -186 q 356 -174 370 -186 q 342 -138 342 -161 l 342 -138 q 367 -78 342 -108 q 446 0 391 -48 l 368 33 l 368 33 q 259 -58 292 -12 q 226 -158 226 -103 l 226 -158 q 264 -254 226 -221 q 367 -286 303 -286 l 367 -286 "},"":{"ha":502,"x_min":56,"x_max":446,"o":"m 446 0 l 446 110 l 313 110 l 313 901 l 446 901 l 446 1010 l 56 1010 l 56 901 l 189 901 l 189 110 l 56 110 l 56 0 l 446 0 m 252 1147 q 308 1170 285 1147 q 332 1225 332 1193 l 332 1225 q 308 1282 332 1259 q 251 1305 285 1305 l 251 1305 q 195 1282 218 1305 q 172 1225 172 1259 l 172 1225 q 195 1170 172 1193 q 252 1147 218 1147 l 252 1147 "},"":{"ha":502,"x_min":37,"x_max":465,"o":"m 446 0 l 446 110 l 313 110 l 313 901 l 446 901 l 446 1010 l 56 1010 l 56 901 l 189 901 l 189 110 l 56 110 l 56 0 l 446 0 m 37 1305 l 37 1303 l 194 1120 l 307 1120 l 465 1303 l 465 1305 l 347 1305 l 251 1186 l 153 1305 l 37 1305 "},"":{"ha":502,"x_min":-45,"x_max":446,"o":"m 446 0 l 446 110 l 313 110 l 313 901 l 446 901 l 446 1010 l 56 1010 l 56 901 l 189 901 l 189 110 l 56 110 l 56 0 l 446 0 m 401 1104 l 321 1305 l 189 1305 l 304 1104 l 401 1104 m 201 1104 l 87 1305 l -45 1305 l 102 1104 l 201 1104 "},"":{"ha":502,"x_min":55,"x_max":448,"o":"m 446 0 l 446 110 l 313 110 l 313 901 l 446 901 l 446 1010 l 56 1010 l 56 901 l 189 901 l 189 110 l 56 110 l 56 0 l 446 0 m 251 1308 q 150 1283 194 1308 q 80 1215 105 1258 q 55 1120 55 1173 l 142 1120 l 142 1120 q 173 1194 142 1165 q 251 1223 204 1223 l 251 1223 q 329 1194 298 1223 q 360 1120 360 1165 l 448 1120 l 448 1120 q 422 1215 448 1173 q 353 1283 397 1258 q 251 1308 309 1308 l 251 1308 "},"":{"ha":502,"x_min":56,"x_max":446,"o":"m 446 0 l 446 110 l 313 110 l 313 901 l 446 901 l 446 1010 l 56 1010 l 56 901 l 189 901 l 189 110 l 56 110 l 56 0 l 446 0 m 331 1166 l 331 1166 q 352 1220 349 1195 q 342 1265 355 1246 q 303 1295 330 1284 q 237 1305 277 1305 l 143 1305 l 143 1227 l 237 1227 l 237 1227 q 255 1220 252 1227 q 252 1200 259 1213 l 203 1104 l 293 1104 l 331 1166 "},"":{"ha":502,"x_min":56,"x_max":446,"o":"m 446 0 l 446 110 l 313 110 l 313 901 l 446 901 l 446 1010 l 56 1010 l 56 901 l 189 901 l 189 110 l 56 110 l 56 0 l 446 0 m 252 -294 q 308 -271 285 -294 q 332 -216 332 -248 l 332 -216 q 308 -159 332 -182 q 251 -136 285 -136 l 251 -136 q 195 -159 218 -136 q 172 -216 172 -182 l 172 -216 q 195 -271 172 -248 q 252 -294 218 -294 l 252 -294 "},"":{"ha":736,"x_min":41,"x_max":680,"o":"m 681 0 l 681 110 l 547 110 l 547 901 l 681 901 l 681 1010 l 291 1010 l 291 901 l 424 901 l 424 110 l 291 110 l 291 0 l 681 0 m 62 810 q 181 840 138 810 q 223 918 223 869 l 223 918 q 181 995 223 967 q 62 1022 138 1022 l 41 1022 l 41 945 l 62 945 l 62 945 q 114 936 96 945 q 132 907 132 926 l 132 907 q 114 874 132 886 q 62 863 96 863 l 55 863 l 55 810 l 62 810 l 62 810 "},"":{"ha":751,"x_min":41,"x_max":694,"o":"m 694 0 l 694 110 l 561 110 l 561 901 l 694 901 l 694 1010 l 304 1010 l 304 901 l 437 901 l 437 110 l 304 110 l 304 0 l 694 0 m 210 801 l 210 854 l 202 854 l 202 854 q 151 865 169 854 q 133 899 133 877 l 133 899 q 151 927 133 917 q 202 937 169 937 l 223 937 l 223 1013 l 202 1013 l 202 1013 q 84 986 127 1013 q 41 909 41 958 l 41 909 q 84 831 41 861 q 202 801 127 801 l 210 801 "},"":{"ha":963,"x_min":41,"x_max":865,"o":"m 865 0 l 865 110 l 732 110 l 732 901 l 865 901 l 865 1010 l 475 1010 l 475 901 l 608 901 l 608 110 l 475 110 l 475 0 l 865 0 m 62 801 q 181 831 138 801 q 223 909 223 861 l 223 909 q 181 986 223 958 q 62 1013 138 1013 l 41 1013 l 41 937 l 62 937 l 62 937 q 114 927 96 937 q 132 899 132 917 l 132 899 q 114 865 132 877 q 62 854 96 854 l 55 854 l 55 801 l 62 801 l 62 801 m 361 1010 l 245 1010 l 306 803 l 387 803 l 361 1010 "},"":{"ha":928,"x_min":41,"x_max":872,"o":"m 872 0 l 872 110 l 739 110 l 739 901 l 872 901 l 872 1010 l 482 1010 l 482 901 l 615 901 l 615 110 l 482 110 l 482 0 l 872 0 m 210 801 l 210 854 l 202 854 l 202 854 q 151 865 169 854 q 133 899 133 877 l 133 899 q 151 927 133 917 q 202 937 169 937 l 223 937 l 223 1013 l 202 1013 l 202 1013 q 84 986 127 1013 q 41 909 41 958 l 41 909 q 84 831 41 861 q 202 801 127 801 l 210 801 m 380 1010 l 264 1010 l 326 803 l 406 803 l 380 1010 "},"":{"ha":930,"x_min":41,"x_max":873,"o":"m 873 0 l 873 110 l 740 110 l 740 901 l 873 901 l 873 1010 l 484 1010 l 484 901 l 616 901 l 616 110 l 484 110 l 484 0 l 873 0 m 62 801 q 181 831 138 801 q 223 909 223 861 l 223 909 q 181 986 223 958 q 62 1013 138 1013 l 41 1013 l 41 937 l 62 937 l 62 937 q 114 927 96 937 q 132 899 132 917 l 132 899 q 114 865 132 877 q 62 854 96 854 l 55 854 l 55 801 l 62 801 l 62 801 m 366 803 l 427 1010 l 311 1010 l 285 803 l 366 803 "},"":{"ha":935,"x_min":41,"x_max":879,"o":"m 879 0 l 879 110 l 745 110 l 745 901 l 879 901 l 879 1010 l 489 1010 l 489 901 l 622 901 l 622 110 l 489 110 l 489 0 l 879 0 m 210 801 l 210 854 l 202 854 l 202 854 q 151 865 169 854 q 133 899 133 877 l 133 899 q 151 927 133 917 q 202 937 169 937 l 223 937 l 223 1013 l 202 1013 l 202 1013 q 84 986 127 1013 q 41 909 41 958 l 41 909 q 84 831 41 861 q 202 801 127 801 l 210 801 m 365 803 l 425 1010 l 309 1010 l 284 803 l 365 803 "},"":{"ha":847,"x_min":41,"x_max":791,"o":"m 791 0 l 791 110 l 658 110 l 658 901 l 791 901 l 791 1010 l 401 1010 l 401 901 l 534 901 l 534 110 l 401 110 l 401 0 l 791 0 m 166 806 q 284 836 242 806 q 327 915 327 866 l 327 915 q 284 991 327 964 q 166 1019 242 1019 l 145 1019 l 145 942 l 166 942 l 166 942 q 217 932 199 942 q 235 903 235 922 l 235 903 q 217 871 235 882 q 166 859 199 859 l 159 859 l 159 806 l 166 806 l 166 806 m 324 1071 q 401 1109 374 1071 q 431 1209 429 1147 l 349 1209 l 349 1209 q 337 1167 346 1180 q 312 1155 329 1155 l 312 1155 q 277 1163 295 1155 q 239 1183 259 1172 q 197 1203 220 1195 q 149 1212 175 1212 l 149 1212 q 70 1173 96 1212 q 41 1073 43 1133 l 125 1073 l 125 1073 q 135 1109 127 1092 q 161 1126 143 1126 l 161 1126 q 191 1118 173 1126 q 231 1098 209 1109 q 276 1079 252 1087 q 324 1071 300 1071 l 324 1071 "},"":{"ha":856,"x_min":41,"x_max":800,"o":"m 800 0 l 800 110 l 666 110 l 666 901 l 800 901 l 800 1010 l 410 1010 l 410 901 l 543 901 l 543 110 l 410 110 l 410 0 l 800 0 m 313 800 l 313 852 l 306 852 l 306 852 q 255 864 273 852 q 237 897 237 876 l 237 897 q 255 925 237 916 q 306 935 273 935 l 327 935 l 327 1012 l 306 1012 l 306 1012 q 188 984 231 1012 q 145 908 145 957 l 145 908 q 188 829 145 859 q 306 800 231 800 l 313 800 m 324 1064 q 401 1102 374 1064 q 431 1202 429 1140 l 349 1202 l 349 1202 q 337 1161 346 1173 q 312 1148 329 1148 l 312 1148 q 277 1157 295 1148 q 239 1177 259 1165 q 197 1197 220 1188 q 149 1205 175 1205 l 149 1205 q 70 1166 96 1205 q 41 1066 43 1126 l 125 1066 l 125 1066 q 135 1102 127 1085 q 161 1119 143 1119 l 161 1119 q 191 1111 173 1119 q 231 1092 209 1103 q 276 1072 252 1080 q 324 1064 300 1064 l 324 1064 "},"":{"ha":502,"x_min":56,"x_max":446,"o":"m 446 0 l 446 110 l 313 110 l 313 901 l 446 901 l 446 1010 l 56 1010 l 56 901 l 189 901 l 189 110 l 56 110 l 56 0 l 446 0 m 251 1115 q 350 1141 306 1115 q 420 1210 394 1166 q 446 1305 446 1253 l 358 1305 l 358 1305 q 328 1229 358 1259 q 252 1200 298 1200 l 252 1200 q 175 1229 205 1200 q 144 1305 144 1259 l 57 1305 l 57 1305 q 83 1209 57 1253 q 153 1140 109 1166 q 251 1115 197 1115 l 251 1115 "},"":{"ha":502,"x_min":56,"x_max":446,"o":"m 446 0 l 446 110 l 313 110 l 313 901 l 446 901 l 446 1010 l 56 1010 l 56 901 l 189 901 l 189 110 l 56 110 l 56 0 l 446 0 m 64 1257 l 64 1161 l 438 1161 l 438 1257 l 64 1257 "},"":{"ha":698,"x_min":-65,"x_max":642,"o":"m 642 0 l 642 110 l 509 110 l 509 901 l 642 901 l 642 1010 l 252 1010 l 252 901 l 385 901 l 385 110 l 252 110 l 252 0 l 642 0 m 54 1021 l -65 1021 l -3 819 l 79 819 l 54 1021 "},"":{"ha":698,"x_min":41,"x_max":642,"o":"m 642 0 l 642 110 l 508 110 l 508 901 l 642 901 l 642 1010 l 252 1010 l 252 901 l 385 901 l 385 110 l 252 110 l 252 0 l 642 0 m 123 809 l 186 1010 l 67 1010 l 41 809 l 123 809 "},"":{"ha":502,"x_min":56,"x_max":446,"o":"m 446 0 l 446 110 l 313 110 l 313 901 l 446 901 l 446 1010 l 56 1010 l 56 901 l 189 901 l 189 110 l 56 110 l 56 0 l 446 0 "},"":{"ha":502,"x_min":30,"x_max":472,"o":"m 446 0 l 446 110 l 313 110 l 313 901 l 446 901 l 446 1010 l 56 1010 l 56 901 l 189 901 l 189 110 l 56 110 l 56 0 l 446 0 m 393 1147 q 449 1170 426 1147 q 472 1225 472 1193 l 472 1225 q 449 1282 472 1259 q 393 1305 426 1305 l 393 1305 q 337 1282 360 1305 q 314 1225 314 1259 l 314 1225 q 337 1170 314 1193 q 393 1147 360 1147 l 393 1147 m 109 1147 q 165 1170 142 1147 q 188 1225 188 1193 l 188 1225 q 165 1282 188 1259 q 109 1305 142 1305 l 109 1305 q 53 1282 77 1305 q 30 1225 30 1259 l 30 1225 q 53 1170 30 1193 q 109 1147 77 1147 l 109 1147 "},"J":{"ha":753,"x_min":55,"x_max":653,"o":"m 354 -14 q 569 64 486 -14 q 653 288 653 142 l 653 1010 l 529 1010 l 529 288 l 529 288 q 481 145 529 194 q 354 96 433 96 l 354 96 q 227 145 275 96 q 178 288 178 194 l 178 342 l 55 342 l 55 288 l 55 288 q 138 64 55 142 q 354 -14 222 -14 l 354 -14 "},"Ĵ":{"ha":753,"x_min":55,"x_max":805,"o":"m 354 -14 q 569 64 486 -14 q 653 288 653 142 l 653 1010 l 529 1010 l 529 288 l 529 288 q 481 145 529 194 q 354 96 433 96 l 354 96 q 227 145 275 96 q 178 288 178 194 l 178 342 l 55 342 l 55 288 l 55 288 q 138 64 55 142 q 354 -14 222 -14 l 354 -14 m 591 1238 l 687 1120 l 805 1120 l 805 1121 l 647 1305 l 534 1305 l 377 1121 l 377 1120 l 493 1120 l 591 1238 "},"Ɉ":{"ha":806,"x_min":55,"x_max":800,"o":"m 354 -14 q 569 64 486 -14 q 653 288 653 142 l 653 1010 l 529 1010 l 529 288 l 529 288 q 481 145 529 194 q 354 96 433 96 l 354 96 q 227 145 275 96 q 178 288 178 194 l 178 342 l 55 342 l 55 288 l 55 288 q 138 64 55 142 q 354 -14 222 -14 l 354 -14 m 800 551 l 800 648 l 382 648 l 382 551 l 800 551 "},"Ϳ":{"ha":753,"x_min":55,"x_max":653,"o":"m 354 -14 q 569 64 486 -14 q 653 288 653 142 l 653 1010 l 529 1010 l 529 288 l 529 288 q 481 145 529 194 q 354 96 433 96 l 354 96 q 227 145 275 96 q 178 288 178 194 l 178 342 l 55 342 l 55 288 l 55 288 q 138 64 55 142 q 354 -14 222 -14 l 354 -14 "},"Ј":{"ha":753,"x_min":55,"x_max":653,"o":"m 354 -14 q 569 64 486 -14 q 653 288 653 142 l 653 1010 l 529 1010 l 529 288 l 529 288 q 481 145 529 194 q 354 96 433 96 l 354 96 q 227 145 275 96 q 178 288 178 194 l 178 342 l 55 342 l 55 288 l 55 288 q 138 64 55 142 q 354 -14 222 -14 l 354 -14 "},"K":{"ha":892,"x_min":105,"x_max":871,"o":"m 433 550 l 439 550 l 871 1010 l 707 1010 l 402 682 l 402 682 q 330 603 366 642 q 259 525 294 564 q 189 444 224 485 l 189 289 l 433 550 m 229 0 l 229 385 l 229 445 l 229 660 l 229 1010 l 105 1010 l 105 0 l 229 0 m 871 0 l 431 615 l 355 517 l 724 0 l 871 0 "},"Ķ":{"ha":892,"x_min":105,"x_max":871,"o":"m 433 550 l 439 550 l 871 1010 l 707 1010 l 402 682 l 402 682 q 330 603 366 642 q 259 525 294 564 q 189 444 224 485 l 189 289 l 433 550 m 229 0 l 229 385 l 229 445 l 229 660 l 229 1010 l 105 1010 l 105 0 l 229 0 m 871 0 l 431 615 l 355 517 l 724 0 l 871 0 m 431 -335 l 515 -80 l 395 -80 l 340 -335 l 431 -335 "},"Ǩ":{"ha":892,"x_min":105,"x_max":871,"o":"m 433 550 l 439 550 l 871 1010 l 707 1010 l 402 682 l 402 682 q 330 603 366 642 q 259 525 294 564 q 189 444 224 485 l 189 289 l 433 550 m 229 0 l 229 385 l 229 445 l 229 660 l 229 1010 l 105 1010 l 105 0 l 229 0 m 871 0 l 431 615 l 355 517 l 724 0 l 871 0 m 243 1305 l 243 1303 l 399 1120 l 513 1120 l 671 1303 l 671 1305 l 553 1305 l 456 1186 l 359 1305 l 243 1305 "},"Ḱ":{"ha":892,"x_min":105,"x_max":871,"o":"m 433 550 l 439 550 l 871 1010 l 707 1010 l 402 682 l 402 682 q 330 603 366 642 q 259 525 294 564 q 189 444 224 485 l 189 289 l 433 550 m 229 0 l 229 385 l 229 445 l 229 660 l 229 1010 l 105 1010 l 105 0 l 229 0 m 871 0 l 431 615 l 355 517 l 724 0 l 871 0 m 502 1104 l 632 1305 l 500 1305 l 405 1104 l 502 1104 "},"Ḳ":{"ha":892,"x_min":105,"x_max":871,"o":"m 433 550 l 439 550 l 871 1010 l 707 1010 l 402 682 l 402 682 q 330 603 366 642 q 259 525 294 564 q 189 444 224 485 l 189 289 l 433 550 m 229 0 l 229 385 l 229 445 l 229 660 l 229 1010 l 105 1010 l 105 0 l 229 0 m 871 0 l 431 615 l 355 517 l 724 0 l 871 0 m 457 -294 q 514 -271 490 -294 q 537 -216 537 -248 l 537 -216 q 514 -159 537 -182 q 456 -136 490 -136 l 456 -136 q 400 -159 424 -136 q 377 -216 377 -182 l 377 -216 q 400 -271 377 -248 q 457 -294 424 -294 l 457 -294 "},"Ḵ":{"ha":892,"x_min":105,"x_max":871,"o":"m 433 550 l 439 550 l 871 1010 l 707 1010 l 402 682 l 402 682 q 330 603 366 642 q 259 525 294 564 q 189 444 224 485 l 189 289 l 433 550 m 229 0 l 229 385 l 229 445 l 229 660 l 229 1010 l 105 1010 l 105 0 l 229 0 m 871 0 l 431 615 l 355 517 l 724 0 l 871 0 m 269 -151 l 269 -246 l 644 -246 l 644 -151 l 269 -151 "},"Ҡ":{"ha":1120,"x_min":41,"x_max":1099,"o":"m 41 1010 l 41 902 l 394 902 l 394 1010 l 41 1010 m 456 0 l 456 458 l 604 458 l 949 0 l 1099 0 l 705 521 l 1082 1010 l 932 1010 l 598 570 l 456 570 l 456 1010 l 333 1010 l 333 0 l 456 0 "},"Қ":{"ha":951,"x_min":105,"x_max":924,"o":"m 229 0 l 229 458 l 376 458 l 722 0 l 871 0 l 477 521 l 854 1010 l 705 1010 l 370 570 l 229 570 l 229 1010 l 105 1010 l 105 0 l 229 0 m 924 -217 l 925 109 l 758 109 l 758 0 l 808 0 l 808 -217 l 924 -217 "},"Ƙ":{"ha":901,"x_min":105,"x_max":906,"o":"m 229 0 l 229 326 l 355 468 l 705 0 l 855 0 l 432 555 l 719 863 l 719 863 q 790 909 756 903 q 857 892 824 914 l 906 985 l 906 985 q 819 1020 865 1013 q 726 1011 772 1027 q 640 950 680 994 l 241 510 l 229 510 l 229 1010 l 105 1010 l 105 0 l 229 0 "},"Κ":{"ha":892,"x_min":105,"x_max":871,"o":"m 433 550 l 439 550 l 871 1010 l 707 1010 l 402 682 l 402 682 q 330 603 366 642 q 259 525 294 564 q 189 444 224 485 l 189 289 l 433 550 m 229 0 l 229 385 l 229 445 l 229 660 l 229 1010 l 105 1010 l 105 0 l 229 0 m 871 0 l 431 615 l 355 517 l 724 0 l 871 0 "},"L":{"ha":753,"x_min":105,"x_max":711,"o":"m 711 0 l 711 110 l 229 110 l 229 1010 l 105 1010 l 105 0 l 711 0 "},"Ĺ":{"ha":753,"x_min":105,"x_max":711,"o":"m 711 0 l 711 110 l 229 110 l 229 1010 l 105 1010 l 105 0 l 711 0 m 213 1104 l 343 1305 l 211 1305 l 116 1104 l 213 1104 "},"Ļ":{"ha":753,"x_min":105,"x_max":711,"o":"m 711 0 l 711 110 l 229 110 l 229 1010 l 105 1010 l 105 0 l 711 0 m 376 -335 l 460 -80 l 340 -80 l 286 -335 l 376 -335 "},"Ľ":{"ha":753,"x_min":105,"x_max":711,"o":"m 711 0 l 711 110 l 229 110 l 229 1010 l 105 1010 l 105 0 l 711 0 m 486 802 l 521 1058 l 401 1058 l 401 802 l 486 802 "},"Ḷ":{"ha":753,"x_min":105,"x_max":711,"o":"m 711 0 l 711 110 l 229 110 l 229 1010 l 105 1010 l 105 0 l 711 0 m 402 -294 q 459 -271 435 -294 q 482 -216 482 -248 l 482 -216 q 459 -159 482 -182 q 401 -136 435 -136 l 401 -136 q 346 -159 369 -136 q 322 -216 322 -182 l 322 -216 q 346 -271 322 -248 q 402 -294 369 -294 l 402 -294 "},"Ḹ":{"ha":753,"x_min":-20,"x_max":711,"o":"m 711 0 l 711 110 l 229 110 l 229 1010 l 105 1010 l 105 0 l 711 0 m 402 -294 q 459 -271 435 -294 q 482 -216 482 -248 l 482 -216 q 459 -159 482 -182 q 401 -136 435 -136 l 401 -136 q 346 -159 369 -136 q 322 -216 322 -182 l 322 -216 q 346 -271 322 -248 q 402 -294 369 -294 l 402 -294 m -20 1257 l -20 1161 l 354 1161 l 354 1257 l -20 1257 "},"Ḻ":{"ha":753,"x_min":105,"x_max":711,"o":"m 711 0 l 711 110 l 229 110 l 229 1010 l 105 1010 l 105 0 l 711 0 m 214 -151 l 214 -246 l 589 -246 l 589 -151 l 214 -151 "},"Ḽ":{"ha":753,"x_min":105,"x_max":711,"o":"m 711 0 l 711 110 l 229 110 l 229 1010 l 105 1010 l 105 0 l 711 0 m 402 -190 l 498 -309 l 616 -309 l 616 -307 l 458 -123 l 345 -123 l 189 -307 l 189 -309 l 304 -309 l 402 -190 "},"Ł":{"ha":793,"x_min":21,"x_max":752,"o":"m 752 0 l 752 110 l 269 110 l 269 1010 l 146 1010 l 146 0 l 752 0 m 522 612 l 522 736 l 21 448 l 21 322 l 522 612 "},"Ƚ":{"ha":793,"x_min":15,"x_max":752,"o":"m 752 0 l 752 110 l 269 110 l 269 1010 l 146 1010 l 146 0 l 752 0 m 532 452 l 532 559 l 15 559 l 15 452 l 532 452 "},"ǈ":{"ha":1050,"x_min":105,"x_max":981,"o":"m 711 0 l 711 110 l 229 110 l 229 1010 l 105 1010 l 105 0 l 711 0 m 843 -77 l 843 -77 q 822 -154 843 -129 q 755 -179 801 -179 l 720 -179 l 720 -283 l 764 -283 l 764 -283 q 871 -259 827 -283 q 938 -190 915 -234 q 960 -90 960 -146 l 960 726 l 843 726 l 843 -77 m 901 862 q 958 885 935 862 q 981 941 981 908 l 981 941 q 958 997 981 974 q 901 1020 935 1020 l 901 1020 q 845 997 868 1020 q 821 941 821 974 l 821 941 q 845 885 821 908 q 901 862 868 862 l 901 862 "},"M":{"ha":1205,"x_min":105,"x_max":1100,"o":"m 227 0 l 227 584 l 227 584 q 226 655 227 616 q 225 734 226 693 q 223 815 224 774 q 221 895 222 857 l 200 895 l 200 895 q 235 801 218 846 q 267 714 252 755 q 294 641 281 674 q 317 584 307 608 l 551 0 l 654 0 l 886 584 l 886 584 q 908 641 896 608 q 936 715 921 675 q 967 801 951 755 q 1000 895 983 847 l 984 895 l 984 895 q 982 814 983 855 q 980 732 981 773 q 979 654 979 692 q 979 584 979 616 l 979 0 l 1100 0 l 1100 1010 l 929 1010 l 678 361 l 678 361 q 658 307 670 339 q 633 239 646 275 q 609 170 621 203 q 591 116 598 138 l 618 116 l 618 116 q 600 171 611 138 q 575 239 588 203 q 551 308 563 275 q 530 361 538 340 l 275 1010 l 105 1010 l 105 0 l 227 0 "},"Ḿ":{"ha":1205,"x_min":105,"x_max":1100,"o":"m 227 0 l 227 584 l 227 584 q 226 655 227 616 q 225 734 226 693 q 223 815 224 774 q 221 895 222 857 l 200 895 l 200 895 q 235 801 218 846 q 267 714 252 755 q 294 641 281 674 q 317 584 307 608 l 551 0 l 654 0 l 886 584 l 886 584 q 908 641 896 608 q 936 715 921 675 q 967 801 951 755 q 1000 895 983 847 l 984 895 l 984 895 q 982 814 983 855 q 980 732 981 773 q 979 654 979 692 q 979 584 979 616 l 979 0 l 1100 0 l 1100 1010 l 929 1010 l 678 361 l 678 361 q 658 307 670 339 q 633 239 646 275 q 609 170 621 203 q 591 116 598 138 l 618 116 l 618 116 q 600 171 611 138 q 575 239 588 203 q 551 308 563 275 q 530 361 538 340 l 275 1010 l 105 1010 l 105 0 l 227 0 m 648 1104 l 778 1305 l 646 1305 l 551 1104 l 648 1104 "},"Ṁ":{"ha":1205,"x_min":105,"x_max":1100,"o":"m 227 0 l 227 584 l 227 584 q 226 655 227 616 q 225 734 226 693 q 223 815 224 774 q 221 895 222 857 l 200 895 l 200 895 q 235 801 218 846 q 267 714 252 755 q 294 641 281 674 q 317 584 307 608 l 551 0 l 654 0 l 886 584 l 886 584 q 908 641 896 608 q 936 715 921 675 q 967 801 951 755 q 1000 895 983 847 l 984 895 l 984 895 q 982 814 983 855 q 980 732 981 773 q 979 654 979 692 q 979 584 979 616 l 979 0 l 1100 0 l 1100 1010 l 929 1010 l 678 361 l 678 361 q 658 307 670 339 q 633 239 646 275 q 609 170 621 203 q 591 116 598 138 l 618 116 l 618 116 q 600 171 611 138 q 575 239 588 203 q 551 308 563 275 q 530 361 538 340 l 275 1010 l 105 1010 l 105 0 l 227 0 m 602 1147 q 659 1170 635 1147 q 682 1225 682 1193 l 682 1225 q 659 1282 682 1259 q 602 1305 635 1305 l 602 1305 q 546 1282 569 1305 q 522 1225 522 1259 l 522 1225 q 546 1170 522 1193 q 602 1147 569 1147 l 602 1147 "},"Ṃ":{"ha":1205,"x_min":105,"x_max":1100,"o":"m 227 0 l 227 584 l 227 584 q 226 655 227 616 q 225 734 226 693 q 223 815 224 774 q 221 895 222 857 l 200 895 l 200 895 q 235 801 218 846 q 267 714 252 755 q 294 641 281 674 q 317 584 307 608 l 551 0 l 654 0 l 886 584 l 886 584 q 908 641 896 608 q 936 715 921 675 q 967 801 951 755 q 1000 895 983 847 l 984 895 l 984 895 q 982 814 983 855 q 980 732 981 773 q 979 654 979 692 q 979 584 979 616 l 979 0 l 1100 0 l 1100 1010 l 929 1010 l 678 361 l 678 361 q 658 307 670 339 q 633 239 646 275 q 609 170 621 203 q 591 116 598 138 l 618 116 l 618 116 q 600 171 611 138 q 575 239 588 203 q 551 308 563 275 q 530 361 538 340 l 275 1010 l 105 1010 l 105 0 l 227 0 m 602 -294 q 659 -271 635 -294 q 682 -216 682 -248 l 682 -216 q 659 -159 682 -182 q 602 -136 635 -136 l 602 -136 q 546 -159 569 -136 q 522 -216 522 -182 l 522 -216 q 546 -271 522 -248 q 602 -294 569 -294 l 602 -294 "},"Ӎ":{"ha":1205,"x_min":105,"x_max":1229,"o":"m 227 0 l 227 584 l 227 584 q 226 655 227 616 q 225 734 226 693 q 223 815 224 774 q 221 895 222 857 l 200 895 l 200 895 q 235 801 218 846 q 267 714 252 755 q 294 641 281 674 q 317 584 307 608 l 551 0 l 654 0 l 886 584 l 886 584 q 908 641 896 608 q 936 715 921 675 q 967 801 951 755 q 1000 895 983 847 l 984 895 l 984 895 q 982 814 983 855 q 980 732 981 773 q 979 654 979 692 q 979 584 979 616 l 979 0 l 1100 0 l 1100 1010 l 929 1010 l 678 361 l 678 361 q 658 307 670 339 q 633 239 646 275 q 609 170 621 203 q 591 116 598 138 l 618 116 l 618 116 q 600 171 611 138 q 575 239 588 203 q 551 308 563 275 q 530 361 538 340 l 275 1010 l 105 1010 l 105 0 l 227 0 m 1131 -217 l 1228 109 l 1036 109 l 1036 0 l 1079 0 l 1015 -217 l 1131 -217 "},"Μ":{"ha":1205,"x_min":105,"x_max":1100,"o":"m 227 0 l 227 584 l 227 584 q 226 655 227 616 q 225 734 226 693 q 223 815 224 774 q 221 895 222 857 l 200 895 l 200 895 q 235 801 218 846 q 267 714 252 755 q 294 641 281 674 q 317 584 307 608 l 551 0 l 654 0 l 886 584 l 886 584 q 908 641 896 608 q 936 715 921 675 q 967 801 951 755 q 1000 895 983 847 l 984 895 l 984 895 q 982 814 983 855 q 980 732 981 773 q 979 654 979 692 q 979 584 979 616 l 979 0 l 1100 0 l 1100 1010 l 929 1010 l 678 361 l 678 361 q 658 307 670 339 q 633 239 646 275 q 609 170 621 203 q 591 116 598 138 l 618 116 l 618 116 q 600 171 611 138 q 575 239 588 203 q 551 308 563 275 q 530 361 538 340 l 275 1010 l 105 1010 l 105 0 l 227 0 "},"Ϻ":{"ha":1205,"x_min":105,"x_max":1100,"o":"m 227 0 l 227 584 l 227 584 q 226 655 227 616 q 225 734 226 693 q 223 815 224 774 q 221 895 222 857 l 200 895 l 200 895 q 235 801 218 846 q 267 714 252 755 q 294 641 281 674 q 317 584 307 608 l 551 0 l 654 0 l 886 584 l 886 584 q 908 641 896 608 q 936 715 921 675 q 967 801 951 755 q 1000 895 983 847 l 984 895 l 984 895 q 982 814 983 855 q 980 732 981 773 q 979 654 979 692 q 979 584 979 616 l 979 0 l 1100 0 l 1100 1010 l 929 1010 l 678 361 l 678 361 q 658 307 670 339 q 633 239 646 275 q 609 170 621 203 q 591 116 598 138 l 618 116 l 618 116 q 600 171 611 138 q 575 239 588 203 q 551 308 563 275 q 530 361 538 340 l 275 1010 l 105 1010 l 105 0 l 227 0 "},"М":{"ha":1205,"x_min":105,"x_max":1100,"o":"m 227 0 l 227 584 l 227 584 q 226 655 227 616 q 225 734 226 693 q 223 815 224 774 q 221 895 222 857 l 200 895 l 200 895 q 235 801 218 846 q 267 714 252 755 q 294 641 281 674 q 317 584 307 608 l 551 0 l 654 0 l 886 584 l 886 584 q 908 641 896 608 q 936 715 921 675 q 967 801 951 755 q 1000 895 983 847 l 984 895 l 984 895 q 982 814 983 855 q 980 732 981 773 q 979 654 979 692 q 979 584 979 616 l 979 0 l 1100 0 l 1100 1010 l 929 1010 l 678 361 l 678 361 q 658 307 670 339 q 633 239 646 275 q 609 170 621 203 q 591 116 598 138 l 618 116 l 618 116 q 600 171 611 138 q 575 239 588 203 q 551 308 563 275 q 530 361 538 340 l 275 1010 l 105 1010 l 105 0 l 227 0 "},"N":{"ha":1000,"x_min":105,"x_max":895,"o":"m 229 0 l 229 584 l 229 584 q 228 655 229 610 q 225 762 227 700 q 220 903 223 825 l 203 878 l 203 878 q 279 750 245 806 q 338 651 313 693 q 380 583 363 610 l 750 0 l 895 0 l 895 1010 l 770 1010 l 770 366 l 770 366 q 771 298 770 342 q 774 205 772 254 q 779 115 776 156 l 791 134 l 791 134 q 745 219 769 177 q 699 297 720 262 q 663 355 677 333 l 248 1010 l 105 1010 l 105 0 l 229 0 "},"Ñ":{"ha":1000,"x_min":105,"x_max":895,"o":"m 229 0 l 229 584 l 229 584 q 228 655 229 610 q 225 762 227 700 q 220 903 223 825 l 203 878 l 203 878 q 279 750 245 806 q 338 651 313 693 q 380 583 363 610 l 750 0 l 895 0 l 895 1010 l 770 1010 l 770 366 l 770 366 q 771 298 770 342 q 774 205 772 254 q 779 115 776 156 l 791 134 l 791 134 q 745 219 769 177 q 699 297 720 262 q 663 355 677 333 l 248 1010 l 105 1010 l 105 0 l 229 0 m 589 1147 q 666 1185 638 1147 q 695 1285 693 1223 l 614 1285 l 614 1285 q 602 1244 610 1257 q 576 1231 593 1231 l 576 1231 q 542 1239 559 1231 q 504 1259 524 1248 q 462 1279 484 1271 q 414 1288 439 1288 l 414 1288 q 334 1249 360 1288 q 306 1149 308 1209 l 390 1149 l 390 1149 q 399 1185 391 1168 q 425 1202 408 1202 l 425 1202 q 455 1194 437 1202 q 495 1174 473 1185 q 541 1155 517 1163 q 589 1147 564 1147 l 589 1147 "},"Ń":{"ha":1000,"x_min":105,"x_max":895,"o":"m 229 0 l 229 584 l 229 584 q 228 655 229 610 q 225 762 227 700 q 220 903 223 825 l 203 878 l 203 878 q 279 750 245 806 q 338 651 313 693 q 380 583 363 610 l 750 0 l 895 0 l 895 1010 l 770 1010 l 770 366 l 770 366 q 771 298 770 342 q 774 205 772 254 q 779 115 776 156 l 791 134 l 791 134 q 745 219 769 177 q 699 297 720 262 q 663 355 677 333 l 248 1010 l 105 1010 l 105 0 l 229 0 m 546 1104 l 676 1305 l 544 1305 l 449 1104 l 546 1104 "},"Ņ":{"ha":1000,"x_min":105,"x_max":895,"o":"m 229 0 l 229 584 l 229 584 q 228 655 229 610 q 225 762 227 700 q 220 903 223 825 l 203 878 l 203 878 q 279 750 245 806 q 338 651 313 693 q 380 583 363 610 l 750 0 l 895 0 l 895 1010 l 770 1010 l 770 366 l 770 366 q 771 298 770 342 q 774 205 772 254 q 779 115 776 156 l 791 134 l 791 134 q 745 219 769 177 q 699 297 720 262 q 663 355 677 333 l 248 1010 l 105 1010 l 105 0 l 229 0 m 474 -335 l 559 -80 l 438 -80 l 384 -335 l 474 -335 "},"Ň":{"ha":1000,"x_min":105,"x_max":895,"o":"m 229 0 l 229 584 l 229 584 q 228 655 229 610 q 225 762 227 700 q 220 903 223 825 l 203 878 l 203 878 q 279 750 245 806 q 338 651 313 693 q 380 583 363 610 l 750 0 l 895 0 l 895 1010 l 770 1010 l 770 366 l 770 366 q 771 298 770 342 q 774 205 772 254 q 779 115 776 156 l 791 134 l 791 134 q 745 219 769 177 q 699 297 720 262 q 663 355 677 333 l 248 1010 l 105 1010 l 105 0 l 229 0 m 286 1305 l 286 1303 l 443 1120 l 556 1120 l 714 1303 l 714 1305 l 596 1305 l 500 1186 l 402 1305 l 286 1305 "},"Ǹ":{"ha":1000,"x_min":105,"x_max":895,"o":"m 229 0 l 229 584 l 229 584 q 228 655 229 610 q 225 762 227 700 q 220 903 223 825 l 203 878 l 203 878 q 279 750 245 806 q 338 651 313 693 q 380 583 363 610 l 750 0 l 895 0 l 895 1010 l 770 1010 l 770 366 l 770 366 q 771 298 770 342 q 774 205 772 254 q 779 115 776 156 l 791 134 l 791 134 q 745 219 769 177 q 699 297 720 262 q 663 355 677 333 l 248 1010 l 105 1010 l 105 0 l 229 0 m 550 1104 l 455 1305 l 323 1305 l 453 1104 l 550 1104 "},"Ṅ":{"ha":1000,"x_min":105,"x_max":895,"o":"m 229 0 l 229 584 l 229 584 q 228 655 229 610 q 225 762 227 700 q 220 903 223 825 l 203 878 l 203 878 q 279 750 245 806 q 338 651 313 693 q 380 583 363 610 l 750 0 l 895 0 l 895 1010 l 770 1010 l 770 366 l 770 366 q 771 298 770 342 q 774 205 772 254 q 779 115 776 156 l 791 134 l 791 134 q 745 219 769 177 q 699 297 720 262 q 663 355 677 333 l 248 1010 l 105 1010 l 105 0 l 229 0 m 500 1147 q 556 1170 533 1147 q 580 1225 580 1193 l 580 1225 q 556 1282 580 1259 q 499 1305 533 1305 l 499 1305 q 443 1282 467 1305 q 420 1225 420 1259 l 420 1225 q 443 1170 420 1193 q 500 1147 467 1147 l 500 1147 "},"Ṇ":{"ha":1000,"x_min":105,"x_max":895,"o":"m 229 0 l 229 584 l 229 584 q 228 655 229 610 q 225 762 227 700 q 220 903 223 825 l 203 878 l 203 878 q 279 750 245 806 q 338 651 313 693 q 380 583 363 610 l 750 0 l 895 0 l 895 1010 l 770 1010 l 770 366 l 770 366 q 771 298 770 342 q 774 205 772 254 q 779 115 776 156 l 791 134 l 791 134 q 745 219 769 177 q 699 297 720 262 q 663 355 677 333 l 248 1010 l 105 1010 l 105 0 l 229 0 m 500 -294 q 557 -271 534 -294 q 581 -216 581 -248 l 581 -216 q 557 -159 581 -182 q 500 -136 534 -136 l 500 -136 q 444 -159 467 -136 q 420 -216 420 -182 l 420 -216 q 444 -271 420 -248 q 500 -294 467 -294 l 500 -294 "},"Ṉ":{"ha":1000,"x_min":105,"x_max":895,"o":"m 229 0 l 229 584 l 229 584 q 228 655 229 610 q 225 762 227 700 q 220 903 223 825 l 203 878 l 203 878 q 279 750 245 806 q 338 651 313 693 q 380 583 363 610 l 750 0 l 895 0 l 895 1010 l 770 1010 l 770 366 l 770 366 q 771 298 770 342 q 774 205 772 254 q 779 115 776 156 l 791 134 l 791 134 q 745 219 769 177 q 699 297 720 262 q 663 355 677 333 l 248 1010 l 105 1010 l 105 0 l 229 0 m 313 -151 l 313 -246 l 687 -246 l 687 -151 l 313 -151 "},"Ṋ":{"ha":1000,"x_min":105,"x_max":895,"o":"m 229 0 l 229 584 l 229 584 q 228 655 229 610 q 225 762 227 700 q 220 903 223 825 l 203 878 l 203 878 q 279 750 245 806 q 338 651 313 693 q 380 583 363 610 l 750 0 l 895 0 l 895 1010 l 770 1010 l 770 366 l 770 366 q 771 298 770 342 q 774 205 772 254 q 779 115 776 156 l 791 134 l 791 134 q 745 219 769 177 q 699 297 720 262 q 663 355 677 333 l 248 1010 l 105 1010 l 105 0 l 229 0 m 500 -190 l 597 -309 l 715 -309 l 715 -307 l 557 -123 l 444 -123 l 287 -307 l 287 -309 l 403 -309 l 500 -190 "},"Ɲ":{"ha":1000,"x_min":-39,"x_max":895,"o":"m -39 -283 q -6 -284 -25 -284 q 35 -285 12 -285 l 35 -285 q 179 -241 130 -285 q 229 -115 229 -198 l 229 87 l 105 87 l 105 -110 l 105 -110 q 87 -162 105 -146 q 23 -178 69 -178 l 23 -178 q -7 -178 14 -178 q -39 -177 -28 -178 l -39 -283 l -39 -283 m 229 0 l 229 584 l 229 584 q 228 655 229 610 q 225 762 227 700 q 220 903 223 825 l 203 878 l 203 878 q 279 750 245 806 q 338 651 313 693 q 380 583 363 610 l 750 0 l 895 0 l 895 1010 l 770 1010 l 770 366 l 770 366 q 771 298 770 342 q 774 205 772 254 q 779 115 776 156 l 791 134 l 791 134 q 745 219 769 177 q 699 297 720 262 q 663 355 677 333 l 248 1010 l 105 1010 l 105 0 l 229 0 "},"Ŋ":{"ha":1000,"x_min":105,"x_max":896,"o":"m 629 -283 q 661 -284 642 -284 q 703 -285 680 -285 l 703 -285 q 846 -241 797 -285 q 896 -115 896 -198 l 896 87 l 772 87 l 772 -110 l 772 -110 q 754 -162 772 -146 q 690 -178 736 -178 l 690 -178 q 660 -178 681 -178 q 629 -177 640 -178 l 629 -283 l 629 -283 m 229 0 l 229 584 l 229 584 q 228 655 229 610 q 225 762 227 700 q 220 903 223 825 l 203 878 l 203 878 q 279 750 245 806 q 338 651 313 693 q 380 583 363 610 l 750 0 l 895 0 l 895 1010 l 770 1010 l 770 366 l 770 366 q 771 298 770 342 q 774 205 772 254 q 779 115 776 156 l 791 134 l 791 134 q 745 219 769 177 q 699 297 720 262 q 663 355 677 333 l 248 1010 l 105 1010 l 105 0 l 229 0 "},"И":{"ha":1000,"x_min":105,"x_max":895,"o":"m 895 1010 l 751 1010 l 336 355 l 336 355 q 301 297 323 333 q 255 219 279 262 q 208 134 231 177 l 221 115 l 221 115 q 225 205 224 156 q 228 298 227 254 q 229 366 229 342 l 229 1010 l 105 1010 l 105 0 l 250 0 l 619 583 l 619 583 q 662 651 636 610 q 721 750 687 693 q 796 878 754 806 l 780 903 l 780 903 q 775 762 777 825 q 771 655 772 700 q 770 584 770 610 l 770 0 l 895 0 l 895 1010 "},"Ѝ":{"ha":1000,"x_min":105,"x_max":895,"o":"m 895 1010 l 751 1010 l 336 355 l 336 355 q 301 297 323 333 q 255 219 279 262 q 208 134 231 177 l 221 115 l 221 115 q 225 205 224 156 q 228 298 227 254 q 229 366 229 342 l 229 1010 l 105 1010 l 105 0 l 250 0 l 619 583 l 619 583 q 662 651 636 610 q 721 750 687 693 q 796 878 754 806 l 780 903 l 780 903 q 775 762 777 825 q 771 655 772 700 q 770 584 770 610 l 770 0 l 895 0 l 895 1010 m 555 1104 l 460 1305 l 328 1305 l 458 1104 l 555 1104 "},"Й":{"ha":1000,"x_min":105,"x_max":895,"o":"m 895 1010 l 751 1010 l 336 355 l 336 355 q 301 297 323 333 q 255 219 279 262 q 208 134 231 177 l 221 115 l 221 115 q 225 205 224 156 q 228 298 227 254 q 229 366 229 342 l 229 1010 l 105 1010 l 105 0 l 250 0 l 619 583 l 619 583 q 662 651 636 610 q 721 750 687 693 q 796 878 754 806 l 780 903 l 780 903 q 775 762 777 825 q 771 655 772 700 q 770 584 770 610 l 770 0 l 895 0 l 895 1010 m 504 1115 q 603 1141 559 1115 q 673 1210 647 1166 q 699 1305 699 1253 l 611 1305 l 611 1305 q 581 1229 611 1259 q 505 1200 551 1200 l 505 1200 q 428 1229 458 1200 q 397 1305 397 1259 l 310 1305 l 310 1305 q 336 1209 310 1253 q 406 1140 362 1166 q 504 1115 450 1115 l 504 1115 "},"Ӣ":{"ha":1000,"x_min":105,"x_max":895,"o":"m 895 1010 l 751 1010 l 336 355 l 336 355 q 301 297 323 333 q 255 219 279 262 q 208 134 231 177 l 221 115 l 221 115 q 225 205 224 156 q 228 298 227 254 q 229 366 229 342 l 229 1010 l 105 1010 l 105 0 l 250 0 l 619 583 l 619 583 q 662 651 636 610 q 721 750 687 693 q 796 878 754 806 l 780 903 l 780 903 q 775 762 777 825 q 771 655 772 700 q 770 584 770 610 l 770 0 l 895 0 l 895 1010 m 317 1257 l 317 1161 l 692 1161 l 692 1257 l 317 1257 "},"Ӥ":{"ha":1000,"x_min":105,"x_max":895,"o":"m 895 1010 l 751 1010 l 336 355 l 336 355 q 301 297 323 333 q 255 219 279 262 q 208 134 231 177 l 221 115 l 221 115 q 225 205 224 156 q 228 298 227 254 q 229 366 229 342 l 229 1010 l 105 1010 l 105 0 l 250 0 l 619 583 l 619 583 q 662 651 636 610 q 721 750 687 693 q 796 878 754 806 l 780 903 l 780 903 q 775 762 777 825 q 771 655 772 700 q 770 584 770 610 l 770 0 l 895 0 l 895 1010 m 647 1147 q 703 1170 680 1147 q 726 1225 726 1193 l 726 1225 q 703 1282 726 1259 q 647 1305 680 1305 l 647 1305 q 591 1282 614 1305 q 568 1225 568 1259 l 568 1225 q 591 1170 568 1193 q 647 1147 614 1147 l 647 1147 m 363 1147 q 418 1170 395 1147 q 441 1225 441 1193 l 441 1225 q 418 1282 441 1259 q 363 1305 395 1305 l 363 1305 q 307 1282 330 1305 q 283 1225 283 1259 l 283 1225 q 307 1170 283 1193 q 363 1147 330 1147 l 363 1147 "},"Ҋ":{"ha":1000,"x_min":105,"x_max":1036,"o":"m 895 1010 l 751 1010 l 336 355 l 336 355 q 301 297 323 333 q 255 219 279 262 q 208 134 231 177 l 221 115 l 221 115 q 225 205 224 156 q 228 298 227 254 q 229 366 229 342 l 229 1010 l 105 1010 l 105 0 l 250 0 l 619 583 l 619 583 q 662 651 636 610 q 721 750 687 693 q 796 878 754 806 l 780 903 l 780 903 q 775 762 777 825 q 771 655 772 700 q 770 584 770 610 l 770 0 l 895 0 l 895 1010 m 504 1115 q 603 1141 559 1115 q 673 1210 647 1166 q 699 1305 699 1253 l 611 1305 l 611 1305 q 581 1229 611 1259 q 505 1200 551 1200 l 505 1200 q 428 1229 458 1200 q 397 1305 397 1259 l 310 1305 l 310 1305 q 336 1209 310 1253 q 406 1140 362 1166 q 504 1115 450 1115 l 504 1115 m 938 -217 l 1035 109 l 842 109 l 842 0 l 886 0 l 821 -217 l 938 -217 "},"Ͷ":{"ha":1000,"x_min":105,"x_max":895,"o":"m 895 1010 l 751 1010 l 336 355 l 336 355 q 301 297 323 333 q 255 219 279 262 q 208 134 231 177 l 221 115 l 221 115 q 225 205 224 156 q 228 298 227 254 q 229 366 229 342 l 229 1010 l 105 1010 l 105 0 l 250 0 l 619 583 l 619 583 q 662 651 636 610 q 721 750 687 693 q 796 878 754 806 l 780 903 l 780 903 q 775 762 777 825 q 771 655 772 700 q 770 584 770 610 l 770 0 l 895 0 l 895 1010 "},"Ν":{"ha":1000,"x_min":105,"x_max":895,"o":"m 229 0 l 229 584 l 229 584 q 228 655 229 610 q 225 762 227 700 q 220 903 223 825 l 203 878 l 203 878 q 279 750 245 806 q 338 651 313 693 q 380 583 363 610 l 750 0 l 895 0 l 895 1010 l 770 1010 l 770 366 l 770 366 q 771 298 770 342 q 774 205 772 254 q 779 115 776 156 l 791 134 l 791 134 q 745 219 769 177 q 699 297 720 262 q 663 355 677 333 l 248 1010 l 105 1010 l 105 0 l 229 0 "},"ǋ":{"ha":1297,"x_min":105,"x_max":1228,"o":"m 229 0 l 229 584 l 229 584 q 228 655 229 610 q 225 762 227 700 q 220 903 223 825 l 203 878 l 203 878 q 279 750 245 806 q 338 651 313 693 q 380 583 363 610 l 750 0 l 895 0 l 895 1010 l 770 1010 l 770 366 l 770 366 q 771 298 770 342 q 774 205 772 254 q 779 115 776 156 l 791 134 l 791 134 q 745 219 769 177 q 699 297 720 262 q 663 355 677 333 l 248 1010 l 105 1010 l 105 0 l 229 0 m 1090 -77 l 1090 -77 q 1069 -154 1090 -129 q 1002 -179 1048 -179 l 966 -179 l 966 -283 l 1010 -283 l 1010 -283 q 1118 -259 1074 -283 q 1184 -190 1162 -234 q 1206 -90 1207 -146 l 1206 726 l 1090 726 l 1090 -77 m 1148 862 q 1205 885 1181 862 q 1228 941 1228 908 l 1228 941 q 1205 997 1228 974 q 1147 1020 1181 1020 l 1147 1020 q 1092 997 1115 1020 q 1068 941 1068 974 l 1068 941 q 1092 885 1068 908 q 1148 862 1115 862 l 1148 862 "},"O":{"ha":1045,"x_min":66,"x_max":979,"o":"m 523 -16 q 759 51 656 -16 q 921 234 862 117 q 979 505 979 351 l 979 505 q 921 777 979 659 q 759 960 862 894 q 523 1026 656 1026 l 523 1026 q 287 960 390 1026 q 125 777 184 894 q 66 505 66 659 l 66 505 q 125 234 66 351 q 287 51 184 117 q 523 -16 390 -16 l 523 -16 m 523 100 q 355 146 431 100 q 234 284 279 193 q 189 505 189 374 l 189 505 q 234 726 189 635 q 355 864 279 817 q 523 911 431 911 l 523 911 q 690 864 614 911 q 811 727 766 817 q 857 505 857 636 l 857 505 q 811 284 857 374 q 690 146 766 193 q 523 100 614 100 l 523 100 "},"Ö":{"ha":1045,"x_min":66,"x_max":979,"o":"m 523 -16 q 759 51 656 -16 q 921 234 862 117 q 979 505 979 351 l 979 505 q 921 777 979 659 q 759 960 862 894 q 523 1026 656 1026 l 523 1026 q 287 960 390 1026 q 125 777 184 894 q 66 505 66 659 l 66 505 q 125 234 66 351 q 287 51 184 117 q 523 -16 390 -16 l 523 -16 m 523 100 q 355 146 431 100 q 234 284 279 193 q 189 505 189 374 l 189 505 q 234 726 189 635 q 355 864 279 817 q 523 911 431 911 l 523 911 q 690 864 614 911 q 811 727 766 817 q 857 505 857 636 l 857 505 q 811 284 857 374 q 690 146 766 193 q 523 100 614 100 l 523 100 m 665 1147 q 721 1170 698 1147 q 744 1225 744 1193 l 744 1225 q 721 1282 744 1259 q 665 1305 698 1305 l 665 1305 q 609 1282 632 1305 q 586 1225 586 1259 l 586 1225 q 609 1170 586 1193 q 665 1147 632 1147 l 665 1147 m 381 1147 q 437 1170 414 1147 q 460 1225 460 1193 l 460 1225 q 437 1282 460 1259 q 381 1305 414 1305 l 381 1305 q 325 1282 349 1305 q 302 1225 302 1259 l 302 1225 q 325 1170 302 1193 q 381 1147 349 1147 l 381 1147 "},"Õ":{"ha":1045,"x_min":66,"x_max":979,"o":"m 523 -16 q 759 51 656 -16 q 921 234 862 117 q 979 505 979 351 l 979 505 q 921 777 979 659 q 759 960 862 894 q 523 1026 656 1026 l 523 1026 q 287 960 390 1026 q 125 777 184 894 q 66 505 66 659 l 66 505 q 125 234 66 351 q 287 51 184 117 q 523 -16 390 -16 l 523 -16 m 523 100 q 355 146 431 100 q 234 284 279 193 q 189 505 189 374 l 189 505 q 234 726 189 635 q 355 864 279 817 q 523 911 431 911 l 523 911 q 690 864 614 911 q 811 727 766 817 q 857 505 857 636 l 857 505 q 811 284 857 374 q 690 146 766 193 q 523 100 614 100 l 523 100 m 612 1147 q 689 1185 661 1147 q 718 1285 716 1223 l 637 1285 l 637 1285 q 625 1244 633 1257 q 600 1231 616 1231 l 600 1231 q 565 1239 583 1231 q 527 1259 547 1248 q 485 1279 507 1271 q 437 1288 463 1288 l 437 1288 q 357 1249 383 1288 q 329 1149 331 1209 l 413 1149 l 413 1149 q 422 1185 414 1168 q 448 1202 431 1202 l 448 1202 q 478 1194 460 1202 q 518 1174 496 1185 q 564 1155 540 1163 q 612 1147 587 1147 l 612 1147 "},"Ø":{"ha":1045,"x_min":66,"x_max":979,"o":"m 523 -16 q 759 51 656 -16 q 921 234 862 117 q 979 505 979 351 l 979 505 q 921 777 979 659 q 759 960 862 894 q 523 1026 656 1026 l 523 1026 q 287 960 390 1026 q 125 777 184 894 q 66 505 66 659 l 66 505 q 125 234 66 351 q 287 51 184 117 q 523 -16 390 -16 l 523 -16 m 523 100 q 355 146 431 100 q 234 284 279 193 q 189 505 189 374 l 189 505 q 234 726 189 635 q 355 864 279 817 q 523 911 431 911 l 523 911 q 690 864 614 911 q 811 727 766 817 q 857 505 857 636 l 857 505 q 811 284 857 374 q 690 146 766 193 q 523 100 614 100 l 523 100 m 974 975 l 886 1046 l 71 36 l 159 -36 l 974 975 "},"Ơ":{"ha":1044,"x_min":66,"x_max":979,"o":"m 522 929 q 667 927 613 929 q 754 922 722 925 q 811 917 787 920 q 863 915 835 915 l 863 915 q 950 944 922 915 q 979 1030 979 972 l 979 1168 l 863 1168 l 863 1023 l 863 1023 q 851 1010 863 1010 l 851 1010 q 726 1013 772 1010 q 649 1018 680 1015 q 591 1024 619 1021 q 522 1026 563 1026 l 522 929 l 522 929 m 523 -16 q 759 51 656 -16 q 921 234 862 117 q 979 505 979 351 l 979 505 q 921 777 979 659 q 759 960 862 894 q 523 1026 656 1026 l 523 1026 q 287 960 390 1026 q 125 777 184 894 q 66 505 66 659 l 66 505 q 125 234 66 351 q 287 51 184 117 q 523 -16 390 -16 l 523 -16 m 523 100 q 355 146 431 100 q 234 284 279 193 q 189 505 189 374 l 189 505 q 234 726 189 635 q 355 864 279 817 q 523 911 431 911 l 523 911 q 690 864 614 911 q 811 727 766 817 q 857 505 857 636 l 857 505 q 811 284 857 374 q 690 146 766 193 q 523 100 614 100 l 523 100 "},"Ò":{"ha":1045,"x_min":66,"x_max":979,"o":"m 523 -16 q 759 51 656 -16 q 921 234 862 117 q 979 505 979 351 l 979 505 q 921 777 979 659 q 759 960 862 894 q 523 1026 656 1026 l 523 1026 q 287 960 390 1026 q 125 777 184 894 q 66 505 66 659 l 66 505 q 125 234 66 351 q 287 51 184 117 q 523 -16 390 -16 l 523 -16 m 523 100 q 355 146 431 100 q 234 284 279 193 q 189 505 189 374 l 189 505 q 234 726 189 635 q 355 864 279 817 q 523 911 431 911 l 523 911 q 690 864 614 911 q 811 727 766 817 q 857 505 857 636 l 857 505 q 811 284 857 374 q 690 146 766 193 q 523 100 614 100 l 523 100 m 573 1104 l 478 1305 l 346 1305 l 476 1104 l 573 1104 "},"Ó":{"ha":1045,"x_min":66,"x_max":979,"o":"m 523 -16 q 759 51 656 -16 q 921 234 862 117 q 979 505 979 351 l 979 505 q 921 777 979 659 q 759 960 862 894 q 523 1026 656 1026 l 523 1026 q 287 960 390 1026 q 125 777 184 894 q 66 505 66 659 l 66 505 q 125 234 66 351 q 287 51 184 117 q 523 -16 390 -16 l 523 -16 m 523 100 q 355 146 431 100 q 234 284 279 193 q 189 505 189 374 l 189 505 q 234 726 189 635 q 355 864 279 817 q 523 911 431 911 l 523 911 q 690 864 614 911 q 811 727 766 817 q 857 505 857 636 l 857 505 q 811 284 857 374 q 690 146 766 193 q 523 100 614 100 l 523 100 m 568 1104 l 699 1305 l 566 1305 l 471 1104 l 568 1104 "},"Ô":{"ha":1045,"x_min":66,"x_max":979,"o":"m 523 -16 q 759 51 656 -16 q 921 234 862 117 q 979 505 979 351 l 979 505 q 921 777 979 659 q 759 960 862 894 q 523 1026 656 1026 l 523 1026 q 287 960 390 1026 q 125 777 184 894 q 66 505 66 659 l 66 505 q 125 234 66 351 q 287 51 184 117 q 523 -16 390 -16 l 523 -16 m 523 100 q 355 146 431 100 q 234 284 279 193 q 189 505 189 374 l 189 505 q 234 726 189 635 q 355 864 279 817 q 523 911 431 911 l 523 911 q 690 864 614 911 q 811 727 766 817 q 857 505 857 636 l 857 505 q 811 284 857 374 q 690 146 766 193 q 523 100 614 100 l 523 100 m 523 1238 l 619 1120 l 737 1120 l 737 1121 l 579 1305 l 466 1305 l 309 1121 l 309 1120 l 425 1120 l 523 1238 "},"Ō":{"ha":1045,"x_min":66,"x_max":979,"o":"m 523 -16 q 759 51 656 -16 q 921 234 862 117 q 979 505 979 351 l 979 505 q 921 777 979 659 q 759 960 862 894 q 523 1026 656 1026 l 523 1026 q 287 960 390 1026 q 125 777 184 894 q 66 505 66 659 l 66 505 q 125 234 66 351 q 287 51 184 117 q 523 -16 390 -16 l 523 -16 m 523 100 q 355 146 431 100 q 234 284 279 193 q 189 505 189 374 l 189 505 q 234 726 189 635 q 355 864 279 817 q 523 911 431 911 l 523 911 q 690 864 614 911 q 811 727 766 817 q 857 505 857 636 l 857 505 q 811 284 857 374 q 690 146 766 193 q 523 100 614 100 l 523 100 m 336 1257 l 336 1161 l 710 1161 l 710 1257 l 336 1257 "},"Ŏ":{"ha":1045,"x_min":66,"x_max":979,"o":"m 523 -16 q 759 51 656 -16 q 921 234 862 117 q 979 505 979 351 l 979 505 q 921 777 979 659 q 759 960 862 894 q 523 1026 656 1026 l 523 1026 q 287 960 390 1026 q 125 777 184 894 q 66 505 66 659 l 66 505 q 125 234 66 351 q 287 51 184 117 q 523 -16 390 -16 l 523 -16 m 523 100 q 355 146 431 100 q 234 284 279 193 q 189 505 189 374 l 189 505 q 234 726 189 635 q 355 864 279 817 q 523 911 431 911 l 523 911 q 690 864 614 911 q 811 727 766 817 q 857 505 857 636 l 857 505 q 811 284 857 374 q 690 146 766 193 q 523 100 614 100 l 523 100 m 522 1115 q 621 1141 577 1115 q 691 1210 665 1166 q 717 1305 717 1253 l 629 1305 l 629 1305 q 599 1229 629 1259 q 523 1200 569 1200 l 523 1200 q 446 1229 476 1200 q 416 1305 416 1259 l 328 1305 l 328 1305 q 354 1209 328 1253 q 424 1140 380 1166 q 522 1115 468 1115 l 522 1115 "},"Ő":{"ha":1045,"x_min":66,"x_max":979,"o":"m 523 -16 q 759 51 656 -16 q 921 234 862 117 q 979 505 979 351 l 979 505 q 921 777 979 659 q 759 960 862 894 q 523 1026 656 1026 l 523 1026 q 287 960 390 1026 q 125 777 184 894 q 66 505 66 659 l 66 505 q 125 234 66 351 q 287 51 184 117 q 523 -16 390 -16 l 523 -16 m 523 100 q 355 146 431 100 q 234 284 279 193 q 189 505 189 374 l 189 505 q 234 726 189 635 q 355 864 279 817 q 523 911 431 911 l 523 911 q 690 864 614 911 q 811 727 766 817 q 857 505 857 636 l 857 505 q 811 284 857 374 q 690 146 766 193 q 523 100 614 100 l 523 100 m 543 1305 l 410 1305 l 330 1104 l 427 1104 l 543 1305 m 776 1305 l 644 1305 l 530 1104 l 629 1104 l 776 1305 "},"Ǒ":{"ha":1045,"x_min":66,"x_max":979,"o":"m 523 -16 q 759 51 656 -16 q 921 234 862 117 q 979 505 979 351 l 979 505 q 921 777 979 659 q 759 960 862 894 q 523 1026 656 1026 l 523 1026 q 287 960 390 1026 q 125 777 184 894 q 66 505 66 659 l 66 505 q 125 234 66 351 q 287 51 184 117 q 523 -16 390 -16 l 523 -16 m 523 100 q 355 146 431 100 q 234 284 279 193 q 189 505 189 374 l 189 505 q 234 726 189 635 q 355 864 279 817 q 523 911 431 911 l 523 911 q 690 864 614 911 q 811 727 766 817 q 857 505 857 636 l 857 505 q 811 284 857 374 q 690 146 766 193 q 523 100 614 100 l 523 100 m 309 1305 l 309 1303 l 466 1120 l 579 1120 l 737 1303 l 737 1305 l 619 1305 l 523 1186 l 425 1305 l 309 1305 "},"Ǫ":{"ha":1045,"x_min":66,"x_max":979,"o":"m 523 -16 q 759 51 656 -16 q 921 234 862 117 q 979 505 979 351 l 979 505 q 921 777 979 659 q 759 960 862 894 q 523 1026 656 1026 l 523 1026 q 287 960 390 1026 q 125 777 184 894 q 66 505 66 659 l 66 505 q 125 234 66 351 q 287 51 184 117 q 523 -16 390 -16 l 523 -16 m 523 100 q 355 146 431 100 q 234 284 279 193 q 189 505 189 374 l 189 505 q 234 726 189 635 q 355 864 279 817 q 523 911 431 911 l 523 911 q 690 864 614 911 q 811 727 766 817 q 857 505 857 636 l 857 505 q 811 284 857 374 q 690 146 766 193 q 523 100 614 100 l 523 100 m 556 -286 q 603 -284 581 -286 q 646 -279 626 -281 l 637 -182 l 637 -182 q 614 -185 627 -184 q 590 -186 602 -186 l 590 -186 q 546 -174 559 -186 q 532 -138 532 -161 l 532 -138 q 556 -84 532 -107 q 620 -37 581 -60 q 708 15 660 -14 q 803 83 755 43 q 891 180 851 123 q 955 316 930 237 q 979 505 979 396 l 928 505 l 928 505 q 901 321 928 396 q 827 195 873 246 q 725 110 781 144 q 615 48 670 75 q 513 -6 559 21 q 439 -69 467 -33 q 411 -158 411 -104 l 411 -158 q 452 -254 411 -221 q 556 -286 493 -286 l 556 -286 "},"Ǭ":{"ha":1045,"x_min":66,"x_max":979,"o":"m 523 -16 q 759 51 656 -16 q 921 234 862 117 q 979 505 979 351 l 979 505 q 921 777 979 659 q 759 960 862 894 q 523 1026 656 1026 l 523 1026 q 287 960 390 1026 q 125 777 184 894 q 66 505 66 659 l 66 505 q 125 234 66 351 q 287 51 184 117 q 523 -16 390 -16 l 523 -16 m 523 100 q 355 146 431 100 q 234 284 279 193 q 189 505 189 374 l 189 505 q 234 726 189 635 q 355 864 279 817 q 523 911 431 911 l 523 911 q 690 864 614 911 q 811 727 766 817 q 857 505 857 636 l 857 505 q 811 284 857 374 q 690 146 766 193 q 523 100 614 100 l 523 100 m 556 -286 q 603 -284 581 -286 q 646 -279 626 -281 l 637 -182 l 637 -182 q 614 -185 627 -184 q 590 -186 602 -186 l 590 -186 q 546 -174 559 -186 q 532 -138 532 -161 l 532 -138 q 556 -84 532 -107 q 620 -37 581 -60 q 708 15 660 -14 q 803 83 755 43 q 891 180 851 123 q 955 316 930 237 q 979 505 979 396 l 928 505 l 928 505 q 901 321 928 396 q 827 195 873 246 q 725 110 781 144 q 615 48 670 75 q 513 -6 559 21 q 439 -69 467 -33 q 411 -158 411 -104 l 411 -158 q 452 -254 411 -221 q 556 -286 493 -286 l 556 -286 m 336 1257 l 336 1161 l 710 1161 l 710 1257 l 336 1257 "},"Ȍ":{"ha":1045,"x_min":66,"x_max":979,"o":"m 523 -16 q 759 51 656 -16 q 921 234 862 117 q 979 505 979 351 l 979 505 q 921 777 979 659 q 759 960 862 894 q 523 1026 656 1026 l 523 1026 q 287 960 390 1026 q 125 777 184 894 q 66 505 66 659 l 66 505 q 125 234 66 351 q 287 51 184 117 q 523 -16 390 -16 l 523 -16 m 523 100 q 355 146 431 100 q 234 284 279 193 q 189 505 189 374 l 189 505 q 234 726 189 635 q 355 864 279 817 q 523 911 431 911 l 523 911 q 690 864 614 911 q 811 727 766 817 q 857 505 857 636 l 857 505 q 811 284 857 374 q 690 146 766 193 q 523 100 614 100 l 523 100 m 673 1104 l 592 1305 l 460 1305 l 576 1104 l 673 1104 m 473 1104 l 359 1305 l 227 1305 l 374 1104 l 473 1104 "},"Ȏ":{"ha":1045,"x_min":66,"x_max":979,"o":"m 523 -16 q 759 51 656 -16 q 921 234 862 117 q 979 505 979 351 l 979 505 q 921 777 979 659 q 759 960 862 894 q 523 1026 656 1026 l 523 1026 q 287 960 390 1026 q 125 777 184 894 q 66 505 66 659 l 66 505 q 125 234 66 351 q 287 51 184 117 q 523 -16 390 -16 l 523 -16 m 523 100 q 355 146 431 100 q 234 284 279 193 q 189 505 189 374 l 189 505 q 234 726 189 635 q 355 864 279 817 q 523 911 431 911 l 523 911 q 690 864 614 911 q 811 727 766 817 q 857 505 857 636 l 857 505 q 811 284 857 374 q 690 146 766 193 q 523 100 614 100 l 523 100 m 522 1308 q 421 1283 465 1308 q 351 1215 376 1258 q 326 1120 326 1173 l 414 1120 l 414 1120 q 445 1194 414 1165 q 522 1223 475 1223 l 522 1223 q 600 1194 569 1223 q 631 1120 631 1165 l 719 1120 l 719 1120 q 694 1215 719 1173 q 625 1283 669 1258 q 522 1308 581 1308 l 522 1308 "},"Ȫ":{"ha":1045,"x_min":66,"x_max":979,"o":"m 523 -16 q 759 51 656 -16 q 921 234 862 117 q 979 505 979 351 l 979 505 q 921 777 979 659 q 759 960 862 894 q 523 1026 656 1026 l 523 1026 q 287 960 390 1026 q 125 777 184 894 q 66 505 66 659 l 66 505 q 125 234 66 351 q 287 51 184 117 q 523 -16 390 -16 l 523 -16 m 523 100 q 355 146 431 100 q 234 284 279 193 q 189 505 189 374 l 189 505 q 234 726 189 635 q 355 864 279 817 q 523 911 431 911 l 523 911 q 690 864 614 911 q 811 727 766 817 q 857 505 857 636 l 857 505 q 811 284 857 374 q 690 146 766 193 q 523 100 614 100 l 523 100 m 662 1116 q 718 1139 694 1116 q 741 1195 741 1162 l 741 1195 q 718 1251 741 1228 q 662 1274 694 1274 l 662 1274 q 606 1251 629 1274 q 583 1195 583 1227 l 583 1195 q 606 1139 583 1162 q 662 1116 629 1116 l 662 1116 m 378 1116 q 433 1139 410 1116 q 456 1195 456 1162 l 456 1195 q 433 1251 456 1228 q 378 1274 410 1274 l 378 1274 q 322 1251 345 1274 q 298 1195 298 1227 l 298 1195 q 322 1139 298 1162 q 378 1116 345 1116 l 378 1116 m 336 1443 l 336 1357 l 711 1357 l 711 1443 l 336 1443 "},"Ȭ":{"ha":1045,"x_min":66,"x_max":979,"o":"m 523 -16 q 759 51 656 -16 q 921 234 862 117 q 979 505 979 351 l 979 505 q 921 777 979 659 q 759 960 862 894 q 523 1026 656 1026 l 523 1026 q 287 960 390 1026 q 125 777 184 894 q 66 505 66 659 l 66 505 q 125 234 66 351 q 287 51 184 117 q 523 -16 390 -16 l 523 -16 m 523 100 q 355 146 431 100 q 234 284 279 193 q 189 505 189 374 l 189 505 q 234 726 189 635 q 355 864 279 817 q 523 911 431 911 l 523 911 q 690 864 614 911 q 811 727 766 817 q 857 505 857 636 l 857 505 q 811 284 857 374 q 690 146 766 193 q 523 100 614 100 l 523 100 m 612 1117 q 689 1155 661 1117 q 718 1255 716 1193 l 637 1255 l 637 1255 q 625 1214 633 1226 q 600 1201 616 1201 l 600 1201 q 565 1210 583 1201 q 527 1230 547 1218 q 485 1250 507 1241 q 437 1258 463 1258 l 437 1258 q 357 1219 383 1258 q 329 1119 331 1179 l 413 1119 l 413 1119 q 422 1155 414 1138 q 448 1172 431 1172 l 448 1172 q 478 1164 460 1172 q 518 1144 496 1156 q 564 1125 540 1133 q 612 1117 587 1117 l 612 1117 m 335 1443 l 335 1357 l 710 1357 l 710 1443 l 335 1443 "},"Ȯ":{"ha":1045,"x_min":66,"x_max":979,"o":"m 523 -16 q 759 51 656 -16 q 921 234 862 117 q 979 505 979 351 l 979 505 q 921 777 979 659 q 759 960 862 894 q 523 1026 656 1026 l 523 1026 q 287 960 390 1026 q 125 777 184 894 q 66 505 66 659 l 66 505 q 125 234 66 351 q 287 51 184 117 q 523 -16 390 -16 l 523 -16 m 523 100 q 355 146 431 100 q 234 284 279 193 q 189 505 189 374 l 189 505 q 234 726 189 635 q 355 864 279 817 q 523 911 431 911 l 523 911 q 690 864 614 911 q 811 727 766 817 q 857 505 857 636 l 857 505 q 811 284 857 374 q 690 146 766 193 q 523 100 614 100 l 523 100 m 523 1147 q 579 1170 556 1147 q 603 1225 603 1193 l 603 1225 q 579 1282 603 1259 q 522 1305 556 1305 l 522 1305 q 466 1282 490 1305 q 443 1225 443 1259 l 443 1225 q 466 1170 443 1193 q 523 1147 490 1147 l 523 1147 "},"Ȱ":{"ha":1045,"x_min":66,"x_max":979,"o":"m 523 -16 q 759 51 656 -16 q 921 234 862 117 q 979 505 979 351 l 979 505 q 921 777 979 659 q 759 960 862 894 q 523 1026 656 1026 l 523 1026 q 287 960 390 1026 q 125 777 184 894 q 66 505 66 659 l 66 505 q 125 234 66 351 q 287 51 184 117 q 523 -16 390 -16 l 523 -16 m 523 100 q 355 146 431 100 q 234 284 279 193 q 189 505 189 374 l 189 505 q 234 726 189 635 q 355 864 279 817 q 523 911 431 911 l 523 911 q 690 864 614 911 q 811 727 766 817 q 857 505 857 636 l 857 505 q 811 284 857 374 q 690 146 766 193 q 523 100 614 100 l 523 100 m 524 1116 q 580 1139 557 1116 q 604 1195 604 1162 l 604 1195 q 580 1251 604 1228 q 523 1274 557 1274 l 523 1274 q 467 1251 490 1274 q 444 1195 444 1228 l 444 1195 q 467 1139 444 1162 q 524 1116 490 1116 l 524 1116 m 336 1443 l 336 1357 l 711 1357 l 711 1443 l 336 1443 "},"Ṍ":{"ha":1045,"x_min":66,"x_max":979,"o":"m 523 -16 q 759 51 656 -16 q 921 234 862 117 q 979 505 979 351 l 979 505 q 921 777 979 659 q 759 960 862 894 q 523 1026 656 1026 l 523 1026 q 287 960 390 1026 q 125 777 184 894 q 66 505 66 659 l 66 505 q 125 234 66 351 q 287 51 184 117 q 523 -16 390 -16 l 523 -16 m 523 100 q 355 146 431 100 q 234 284 279 193 q 189 505 189 374 l 189 505 q 234 726 189 635 q 355 864 279 817 q 523 911 431 911 l 523 911 q 690 864 614 911 q 811 727 766 817 q 857 505 857 636 l 857 505 q 811 284 857 374 q 690 146 766 193 q 523 100 614 100 l 523 100 m 612 1117 q 689 1155 661 1117 q 718 1255 716 1193 l 637 1255 l 637 1255 q 625 1214 633 1226 q 600 1201 616 1201 l 600 1201 q 565 1210 583 1201 q 527 1230 547 1218 q 485 1250 507 1241 q 437 1258 463 1258 l 437 1258 q 357 1219 383 1258 q 329 1119 331 1179 l 413 1119 l 413 1119 q 422 1155 414 1138 q 448 1172 431 1172 l 448 1172 q 478 1164 460 1172 q 518 1144 496 1156 q 564 1125 540 1133 q 612 1117 587 1117 l 612 1117 m 564 1330 l 695 1516 l 562 1516 l 467 1330 l 564 1330 "},"Ṏ":{"ha":1045,"x_min":66,"x_max":979,"o":"m 523 -16 q 759 51 656 -16 q 921 234 862 117 q 979 505 979 351 l 979 505 q 921 777 979 659 q 759 960 862 894 q 523 1026 656 1026 l 523 1026 q 287 960 390 1026 q 125 777 184 894 q 66 505 66 659 l 66 505 q 125 234 66 351 q 287 51 184 117 q 523 -16 390 -16 l 523 -16 m 523 100 q 355 146 431 100 q 234 284 279 193 q 189 505 189 374 l 189 505 q 234 726 189 635 q 355 864 279 817 q 523 911 431 911 l 523 911 q 690 864 614 911 q 811 727 766 817 q 857 505 857 636 l 857 505 q 811 284 857 374 q 690 146 766 193 q 523 100 614 100 l 523 100 m 612 1117 q 689 1155 661 1117 q 718 1255 716 1193 l 637 1255 l 637 1255 q 625 1214 633 1226 q 600 1201 616 1201 l 600 1201 q 565 1210 583 1201 q 527 1230 547 1218 q 485 1250 507 1241 q 437 1258 463 1258 l 437 1258 q 357 1219 383 1258 q 329 1119 331 1179 l 413 1119 l 413 1119 q 422 1155 414 1138 q 448 1172 431 1172 l 448 1172 q 478 1164 460 1172 q 518 1144 496 1156 q 564 1125 540 1133 q 612 1117 587 1117 l 612 1117 m 661 1334 q 717 1357 694 1334 q 740 1413 740 1380 l 740 1413 q 717 1469 740 1446 q 661 1492 694 1492 l 661 1492 q 605 1469 628 1492 q 582 1413 582 1446 l 582 1413 q 605 1357 582 1380 q 661 1334 628 1334 l 661 1334 m 377 1334 q 433 1357 410 1334 q 456 1413 456 1380 l 456 1413 q 433 1469 456 1446 q 377 1492 410 1492 l 377 1492 q 321 1469 345 1492 q 298 1413 298 1446 l 298 1413 q 321 1357 298 1380 q 377 1334 345 1334 l 377 1334 "},"Ṑ":{"ha":1045,"x_min":66,"x_max":979,"o":"m 523 -16 q 759 51 656 -16 q 921 234 862 117 q 979 505 979 351 l 979 505 q 921 777 979 659 q 759 960 862 894 q 523 1026 656 1026 l 523 1026 q 287 960 390 1026 q 125 777 184 894 q 66 505 66 659 l 66 505 q 125 234 66 351 q 287 51 184 117 q 523 -16 390 -16 l 523 -16 m 523 100 q 355 146 431 100 q 234 284 279 193 q 189 505 189 374 l 189 505 q 234 726 189 635 q 355 864 279 817 q 523 911 431 911 l 523 911 q 690 864 614 911 q 811 727 766 817 q 857 505 857 636 l 857 505 q 811 284 857 374 q 690 146 766 193 q 523 100 614 100 l 523 100 m 336 1242 l 336 1147 l 710 1147 l 710 1242 l 336 1242 m 574 1330 l 479 1516 l 347 1516 l 477 1330 l 574 1330 "},"Ṓ":{"ha":1045,"x_min":66,"x_max":979,"o":"m 523 -16 q 759 51 656 -16 q 921 234 862 117 q 979 505 979 351 l 979 505 q 921 777 979 659 q 759 960 862 894 q 523 1026 656 1026 l 523 1026 q 287 960 390 1026 q 125 777 184 894 q 66 505 66 659 l 66 505 q 125 234 66 351 q 287 51 184 117 q 523 -16 390 -16 l 523 -16 m 523 100 q 355 146 431 100 q 234 284 279 193 q 189 505 189 374 l 189 505 q 234 726 189 635 q 355 864 279 817 q 523 911 431 911 l 523 911 q 690 864 614 911 q 811 727 766 817 q 857 505 857 636 l 857 505 q 811 284 857 374 q 690 146 766 193 q 523 100 614 100 l 523 100 m 336 1242 l 336 1147 l 710 1147 l 710 1242 l 336 1242 m 571 1330 l 701 1516 l 569 1516 l 474 1330 l 571 1330 "},"Ọ":{"ha":1045,"x_min":66,"x_max":979,"o":"m 523 -16 q 759 51 656 -16 q 921 234 862 117 q 979 505 979 351 l 979 505 q 921 777 979 659 q 759 960 862 894 q 523 1026 656 1026 l 523 1026 q 287 960 390 1026 q 125 777 184 894 q 66 505 66 659 l 66 505 q 125 234 66 351 q 287 51 184 117 q 523 -16 390 -16 l 523 -16 m 523 100 q 355 146 431 100 q 234 284 279 193 q 189 505 189 374 l 189 505 q 234 726 189 635 q 355 864 279 817 q 523 911 431 911 l 523 911 q 690 864 614 911 q 811 727 766 817 q 857 505 857 636 l 857 505 q 811 284 857 374 q 690 146 766 193 q 523 100 614 100 l 523 100 m 524 -294 q 580 -271 557 -294 q 604 -216 604 -248 l 604 -216 q 580 -159 604 -182 q 523 -136 557 -136 l 523 -136 q 467 -159 490 -136 q 444 -216 444 -182 l 444 -216 q 467 -271 444 -248 q 524 -294 490 -294 l 524 -294 "},"Ỏ":{"ha":1045,"x_min":66,"x_max":979,"o":"m 523 -16 q 759 51 656 -16 q 921 234 862 117 q 979 505 979 351 l 979 505 q 921 777 979 659 q 759 960 862 894 q 523 1026 656 1026 l 523 1026 q 287 960 390 1026 q 125 777 184 894 q 66 505 66 659 l 66 505 q 125 234 66 351 q 287 51 184 117 q 523 -16 390 -16 l 523 -16 m 523 100 q 355 146 431 100 q 234 284 279 193 q 189 505 189 374 l 189 505 q 234 726 189 635 q 355 864 279 817 q 523 911 431 911 l 523 911 q 690 864 614 911 q 811 727 766 817 q 857 505 857 636 l 857 505 q 811 284 857 374 q 690 146 766 193 q 523 100 614 100 l 523 100 m 602 1166 l 602 1166 q 623 1220 621 1195 q 614 1265 626 1246 q 575 1295 602 1284 q 508 1305 548 1305 l 414 1305 l 414 1227 l 508 1227 l 508 1227 q 527 1220 523 1227 q 523 1200 530 1213 l 474 1104 l 564 1104 l 602 1166 "},"Ố":{"ha":1045,"x_min":66,"x_max":979,"o":"m 523 -16 q 759 51 656 -16 q 921 234 862 117 q 979 505 979 351 l 979 505 q 921 777 979 659 q 759 960 862 894 q 523 1026 656 1026 l 523 1026 q 287 960 390 1026 q 125 777 184 894 q 66 505 66 659 l 66 505 q 125 234 66 351 q 287 51 184 117 q 523 -16 390 -16 l 523 -16 m 523 100 q 355 146 431 100 q 234 284 279 193 q 189 505 189 374 l 189 505 q 234 726 189 635 q 355 864 279 817 q 523 911 431 911 l 523 911 q 690 864 614 911 q 811 727 766 817 q 857 505 857 636 l 857 505 q 811 284 857 374 q 690 146 766 193 q 523 100 614 100 l 523 100 m 524 1221 l 620 1101 l 738 1101 l 738 1103 l 580 1288 l 467 1288 l 310 1103 l 310 1101 l 426 1101 l 524 1221 m 709 1314 l 839 1500 l 707 1500 l 612 1314 l 709 1314 "},"Ồ":{"ha":1045,"x_min":66,"x_max":979,"o":"m 523 -16 q 759 51 656 -16 q 921 234 862 117 q 979 505 979 351 l 979 505 q 921 777 979 659 q 759 960 862 894 q 523 1026 656 1026 l 523 1026 q 287 960 390 1026 q 125 777 184 894 q 66 505 66 659 l 66 505 q 125 234 66 351 q 287 51 184 117 q 523 -16 390 -16 l 523 -16 m 523 100 q 355 146 431 100 q 234 284 279 193 q 189 505 189 374 l 189 505 q 234 726 189 635 q 355 864 279 817 q 523 911 431 911 l 523 911 q 690 864 614 911 q 811 727 766 817 q 857 505 857 636 l 857 505 q 811 284 857 374 q 690 146 766 193 q 523 100 614 100 l 523 100 m 524 1221 l 620 1101 l 738 1101 l 738 1103 l 580 1288 l 467 1288 l 310 1103 l 310 1101 l 426 1101 l 524 1221 m 748 1314 l 653 1500 l 521 1500 l 651 1314 l 748 1314 "},"Ổ":{"ha":1045,"x_min":66,"x_max":979,"o":"m 523 -16 q 759 51 656 -16 q 921 234 862 117 q 979 505 979 351 l 979 505 q 921 777 979 659 q 759 960 862 894 q 523 1026 656 1026 l 523 1026 q 287 960 390 1026 q 125 777 184 894 q 66 505 66 659 l 66 505 q 125 234 66 351 q 287 51 184 117 q 523 -16 390 -16 l 523 -16 m 523 100 q 355 146 431 100 q 234 284 279 193 q 189 505 189 374 l 189 505 q 234 726 189 635 q 355 864 279 817 q 523 911 431 911 l 523 911 q 690 864 614 911 q 811 727 766 817 q 857 505 857 636 l 857 505 q 811 284 857 374 q 690 146 766 193 q 523 100 614 100 l 523 100 m 524 1221 l 620 1101 l 738 1101 l 738 1103 l 580 1288 l 467 1288 l 310 1103 l 310 1101 l 426 1101 l 524 1221 m 732 1360 l 732 1360 q 755 1431 759 1399 q 722 1481 752 1463 q 638 1500 692 1500 l 545 1500 l 545 1422 l 638 1422 l 638 1422 q 657 1415 653 1422 q 654 1394 661 1408 l 611 1314 l 701 1314 l 732 1360 "},"Ỗ":{"ha":1045,"x_min":66,"x_max":979,"o":"m 523 -16 q 759 51 656 -16 q 921 234 862 117 q 979 505 979 351 l 979 505 q 921 777 979 659 q 759 960 862 894 q 523 1026 656 1026 l 523 1026 q 287 960 390 1026 q 125 777 184 894 q 66 505 66 659 l 66 505 q 125 234 66 351 q 287 51 184 117 q 523 -16 390 -16 l 523 -16 m 523 100 q 355 146 431 100 q 234 284 279 193 q 189 505 189 374 l 189 505 q 234 726 189 635 q 355 864 279 817 q 523 911 431 911 l 523 911 q 690 864 614 911 q 811 727 766 817 q 857 505 857 636 l 857 505 q 811 284 857 374 q 690 146 766 193 q 523 100 614 100 l 523 100 m 524 1221 l 620 1101 l 738 1101 l 738 1103 l 580 1288 l 467 1288 l 310 1103 l 310 1101 l 426 1101 l 524 1221 m 612 1339 q 688 1377 661 1339 q 718 1478 716 1415 l 637 1478 l 637 1478 q 625 1436 633 1449 q 600 1423 616 1423 l 600 1423 q 565 1432 583 1423 q 527 1452 547 1440 q 485 1472 507 1463 q 436 1480 463 1480 l 436 1480 q 356 1441 382 1480 q 329 1341 330 1402 l 412 1341 l 412 1341 q 422 1378 414 1361 q 448 1395 431 1395 l 448 1395 q 478 1387 460 1395 q 518 1367 496 1378 q 563 1348 539 1356 q 612 1339 587 1339 l 612 1339 "},"Ộ":{"ha":1045,"x_min":66,"x_max":979,"o":"m 523 -16 q 759 51 656 -16 q 921 234 862 117 q 979 505 979 351 l 979 505 q 921 777 979 659 q 759 960 862 894 q 523 1026 656 1026 l 523 1026 q 287 960 390 1026 q 125 777 184 894 q 66 505 66 659 l 66 505 q 125 234 66 351 q 287 51 184 117 q 523 -16 390 -16 l 523 -16 m 523 100 q 355 146 431 100 q 234 284 279 193 q 189 505 189 374 l 189 505 q 234 726 189 635 q 355 864 279 817 q 523 911 431 911 l 523 911 q 690 864 614 911 q 811 727 766 817 q 857 505 857 636 l 857 505 q 811 284 857 374 q 690 146 766 193 q 523 100 614 100 l 523 100 m 523 1238 l 619 1120 l 737 1120 l 737 1121 l 579 1305 l 466 1305 l 309 1121 l 309 1120 l 425 1120 l 523 1238 m 524 -294 q 580 -271 557 -294 q 604 -216 604 -248 l 604 -216 q 580 -159 604 -182 q 523 -136 557 -136 l 523 -136 q 467 -159 490 -136 q 444 -216 444 -182 l 444 -216 q 467 -271 444 -248 q 524 -294 490 -294 l 524 -294 "},"Ớ":{"ha":1044,"x_min":66,"x_max":979,"o":"m 522 929 q 667 927 613 929 q 754 922 722 925 q 811 917 787 920 q 863 915 835 915 l 863 915 q 950 944 922 915 q 979 1030 979 972 l 979 1168 l 863 1168 l 863 1023 l 863 1023 q 851 1010 863 1010 l 851 1010 q 726 1013 772 1010 q 649 1018 680 1015 q 591 1024 619 1021 q 522 1026 563 1026 l 522 929 l 522 929 m 523 -16 q 759 51 656 -16 q 921 234 862 117 q 979 505 979 351 l 979 505 q 921 777 979 659 q 759 960 862 894 q 523 1026 656 1026 l 523 1026 q 287 960 390 1026 q 125 777 184 894 q 66 505 66 659 l 66 505 q 125 234 66 351 q 287 51 184 117 q 523 -16 390 -16 l 523 -16 m 523 100 q 355 146 431 100 q 234 284 279 193 q 189 505 189 374 l 189 505 q 234 726 189 635 q 355 864 279 817 q 523 911 431 911 l 523 911 q 690 864 614 911 q 811 727 766 817 q 857 505 857 636 l 857 505 q 811 284 857 374 q 690 146 766 193 q 523 100 614 100 l 523 100 m 568 1104 l 699 1305 l 566 1305 l 471 1104 l 568 1104 "},"Ờ":{"ha":1044,"x_min":66,"x_max":979,"o":"m 522 929 q 667 927 613 929 q 754 922 722 925 q 811 917 787 920 q 863 915 835 915 l 863 915 q 950 944 922 915 q 979 1030 979 972 l 979 1168 l 863 1168 l 863 1023 l 863 1023 q 851 1010 863 1010 l 851 1010 q 726 1013 772 1010 q 649 1018 680 1015 q 591 1024 619 1021 q 522 1026 563 1026 l 522 929 l 522 929 m 523 -16 q 759 51 656 -16 q 921 234 862 117 q 979 505 979 351 l 979 505 q 921 777 979 659 q 759 960 862 894 q 523 1026 656 1026 l 523 1026 q 287 960 390 1026 q 125 777 184 894 q 66 505 66 659 l 66 505 q 125 234 66 351 q 287 51 184 117 q 523 -16 390 -16 l 523 -16 m 523 100 q 355 146 431 100 q 234 284 279 193 q 189 505 189 374 l 189 505 q 234 726 189 635 q 355 864 279 817 q 523 911 431 911 l 523 911 q 690 864 614 911 q 811 727 766 817 q 857 505 857 636 l 857 505 q 811 284 857 374 q 690 146 766 193 q 523 100 614 100 l 523 100 m 573 1104 l 478 1305 l 346 1305 l 476 1104 l 573 1104 "},"Ở":{"ha":1044,"x_min":66,"x_max":979,"o":"m 522 929 q 667 927 613 929 q 754 922 722 925 q 811 917 787 920 q 863 915 835 915 l 863 915 q 950 944 922 915 q 979 1030 979 972 l 979 1168 l 863 1168 l 863 1023 l 863 1023 q 851 1010 863 1010 l 851 1010 q 726 1013 772 1010 q 649 1018 680 1015 q 591 1024 619 1021 q 522 1026 563 1026 l 522 929 l 522 929 m 523 -16 q 759 51 656 -16 q 921 234 862 117 q 979 505 979 351 l 979 505 q 921 777 979 659 q 759 960 862 894 q 523 1026 656 1026 l 523 1026 q 287 960 390 1026 q 125 777 184 894 q 66 505 66 659 l 66 505 q 125 234 66 351 q 287 51 184 117 q 523 -16 390 -16 l 523 -16 m 523 100 q 355 146 431 100 q 234 284 279 193 q 189 505 189 374 l 189 505 q 234 726 189 635 q 355 864 279 817 q 523 911 431 911 l 523 911 q 690 864 614 911 q 811 727 766 817 q 857 505 857 636 l 857 505 q 811 284 857 374 q 690 146 766 193 q 523 100 614 100 l 523 100 m 602 1166 l 602 1166 q 623 1220 621 1195 q 614 1265 626 1246 q 575 1295 602 1284 q 508 1305 548 1305 l 414 1305 l 414 1227 l 508 1227 l 508 1227 q 527 1220 523 1227 q 523 1200 530 1213 l 474 1104 l 564 1104 l 602 1166 "},"Ỡ":{"ha":1044,"x_min":66,"x_max":979,"o":"m 522 929 q 667 927 613 929 q 754 922 722 925 q 811 917 787 920 q 863 915 835 915 l 863 915 q 950 944 922 915 q 979 1030 979 972 l 979 1168 l 863 1168 l 863 1023 l 863 1023 q 851 1010 863 1010 l 851 1010 q 726 1013 772 1010 q 649 1018 680 1015 q 591 1024 619 1021 q 522 1026 563 1026 l 522 929 l 522 929 m 523 -16 q 759 51 656 -16 q 921 234 862 117 q 979 505 979 351 l 979 505 q 921 777 979 659 q 759 960 862 894 q 523 1026 656 1026 l 523 1026 q 287 960 390 1026 q 125 777 184 894 q 66 505 66 659 l 66 505 q 125 234 66 351 q 287 51 184 117 q 523 -16 390 -16 l 523 -16 m 523 100 q 355 146 431 100 q 234 284 279 193 q 189 505 189 374 l 189 505 q 234 726 189 635 q 355 864 279 817 q 523 911 431 911 l 523 911 q 690 864 614 911 q 811 727 766 817 q 857 505 857 636 l 857 505 q 811 284 857 374 q 690 146 766 193 q 523 100 614 100 l 523 100 m 612 1147 q 689 1185 661 1147 q 718 1285 716 1223 l 637 1285 l 637 1285 q 625 1244 633 1257 q 600 1231 616 1231 l 600 1231 q 565 1239 583 1231 q 527 1259 547 1248 q 485 1279 507 1271 q 437 1288 463 1288 l 437 1288 q 357 1249 383 1288 q 329 1149 331 1209 l 413 1149 l 413 1149 q 422 1185 414 1168 q 448 1202 431 1202 l 448 1202 q 478 1194 460 1202 q 518 1174 496 1185 q 564 1155 540 1163 q 612 1147 587 1147 l 612 1147 "},"Ợ":{"ha":1044,"x_min":66,"x_max":979,"o":"m 522 929 q 667 927 613 929 q 754 922 722 925 q 811 917 787 920 q 863 915 835 915 l 863 915 q 950 944 922 915 q 979 1030 979 972 l 979 1168 l 863 1168 l 863 1023 l 863 1023 q 851 1010 863 1010 l 851 1010 q 726 1013 772 1010 q 649 1018 680 1015 q 591 1024 619 1021 q 522 1026 563 1026 l 522 929 l 522 929 m 523 -16 q 759 51 656 -16 q 921 234 862 117 q 979 505 979 351 l 979 505 q 921 777 979 659 q 759 960 862 894 q 523 1026 656 1026 l 523 1026 q 287 960 390 1026 q 125 777 184 894 q 66 505 66 659 l 66 505 q 125 234 66 351 q 287 51 184 117 q 523 -16 390 -16 l 523 -16 m 523 100 q 355 146 431 100 q 234 284 279 193 q 189 505 189 374 l 189 505 q 234 726 189 635 q 355 864 279 817 q 523 911 431 911 l 523 911 q 690 864 614 911 q 811 727 766 817 q 857 505 857 636 l 857 505 q 811 284 857 374 q 690 146 766 193 q 523 100 614 100 l 523 100 m 524 -294 q 580 -271 557 -294 q 604 -216 604 -248 l 604 -216 q 580 -159 604 -182 q 523 -136 557 -136 l 523 -136 q 467 -159 490 -136 q 444 -216 444 -182 l 444 -216 q 467 -271 444 -248 q 524 -294 490 -294 l 524 -294 "},"Ǿ":{"ha":1045,"x_min":66,"x_max":979,"o":"m 523 -16 q 759 51 656 -16 q 921 234 862 117 q 979 505 979 351 l 979 505 q 921 777 979 659 q 759 960 862 894 q 523 1026 656 1026 l 523 1026 q 287 960 390 1026 q 125 777 184 894 q 66 505 66 659 l 66 505 q 125 234 66 351 q 287 51 184 117 q 523 -16 390 -16 l 523 -16 m 523 100 q 355 146 431 100 q 234 284 279 193 q 189 505 189 374 l 189 505 q 234 726 189 635 q 355 864 279 817 q 523 911 431 911 l 523 911 q 690 864 614 911 q 811 727 766 817 q 857 505 857 636 l 857 505 q 811 284 857 374 q 690 146 766 193 q 523 100 614 100 l 523 100 m 974 975 l 886 1046 l 71 36 l 159 -36 l 974 975 m 568 1104 l 699 1305 l 566 1305 l 471 1104 l 568 1104 "},"Ο":{"ha":1045,"x_min":66,"x_max":979,"o":"m 523 -16 q 759 51 656 -16 q 921 234 862 117 q 979 505 979 351 l 979 505 q 921 777 979 659 q 759 960 862 894 q 523 1026 656 1026 l 523 1026 q 287 960 390 1026 q 125 777 184 894 q 66 505 66 659 l 66 505 q 125 234 66 351 q 287 51 184 117 q 523 -16 390 -16 l 523 -16 m 523 100 q 355 146 431 100 q 234 284 279 193 q 189 505 189 374 l 189 505 q 234 726 189 635 q 355 864 279 817 q 523 911 431 911 l 523 911 q 690 864 614 911 q 811 727 766 817 q 857 505 857 636 l 857 505 q 811 284 857 374 q 690 146 766 193 q 523 100 614 100 l 523 100 "},"Ό":{"ha":1133,"x_min":41,"x_max":1067,"o":"m 610 -16 q 846 51 743 -16 q 1008 234 949 117 q 1067 505 1067 351 l 1067 505 q 1008 777 1067 659 q 846 960 949 894 q 610 1026 743 1026 l 610 1026 q 374 960 477 1026 q 212 777 271 894 q 153 505 153 659 l 153 505 q 212 234 153 351 q 374 51 271 117 q 610 -16 477 -16 l 610 -16 m 610 100 q 443 146 519 100 q 321 284 367 193 q 276 505 276 374 l 276 505 q 321 726 276 635 q 443 864 367 817 q 610 911 519 911 l 610 911 q 777 864 701 911 q 899 727 853 817 q 944 505 944 636 l 944 505 q 899 284 944 374 q 777 146 853 193 q 610 100 701 100 l 610 100 m 123 809 l 186 1010 l 67 1010 l 41 809 l 123 809 "},"Ὀ":{"ha":1171,"x_min":41,"x_max":1105,"o":"m 649 -16 q 885 51 782 -16 q 1047 234 988 117 q 1105 505 1105 351 l 1105 505 q 1047 777 1105 659 q 885 960 988 894 q 649 1026 782 1026 l 649 1026 q 413 960 516 1026 q 251 777 310 894 q 192 505 192 659 l 192 505 q 251 234 192 351 q 413 51 310 117 q 649 -16 516 -16 l 649 -16 m 649 100 q 481 146 557 100 q 360 284 406 193 q 315 505 315 374 l 315 505 q 360 726 315 635 q 481 864 406 817 q 649 911 557 911 l 649 911 q 816 864 740 911 q 937 727 892 817 q 983 505 983 636 l 983 505 q 937 284 983 374 q 816 146 892 193 q 649 100 740 100 l 649 100 m 62 810 q 181 840 138 810 q 223 918 223 869 l 223 918 q 181 995 223 967 q 62 1022 138 1022 l 41 1022 l 41 945 l 62 945 l 62 945 q 114 936 96 945 q 132 907 132 926 l 132 907 q 114 874 132 886 q 62 863 96 863 l 55 863 l 55 810 l 62 810 l 62 810 "},"Ὁ":{"ha":1185,"x_min":41,"x_max":1120,"o":"m 663 -16 q 899 51 796 -16 q 1061 234 1002 117 q 1120 505 1120 351 l 1120 505 q 1061 777 1120 659 q 899 960 1002 894 q 663 1026 796 1026 l 663 1026 q 427 960 530 1026 q 265 777 324 894 q 206 505 206 659 l 206 505 q 265 234 206 351 q 427 51 324 117 q 663 -16 530 -16 l 663 -16 m 663 100 q 496 146 572 100 q 374 284 420 193 q 329 505 329 374 l 329 505 q 374 726 329 635 q 496 864 420 817 q 663 911 572 911 l 663 911 q 830 864 754 911 q 951 727 906 817 q 997 505 997 636 l 997 505 q 951 284 997 374 q 830 146 906 193 q 663 100 754 100 l 663 100 m 210 801 l 210 854 l 202 854 l 202 854 q 151 865 169 854 q 133 899 133 877 l 133 899 q 151 927 133 917 q 202 937 169 937 l 223 937 l 223 1013 l 202 1013 l 202 1013 q 84 986 127 1013 q 41 909 41 958 l 41 909 q 84 831 41 861 q 202 801 127 801 l 210 801 "}}}
